%TF.GenerationSoftware,KiCad,Pcbnew,8.0.7*%
%TF.CreationDate,2025-04-18T15:45:10+02:00*%
%TF.ProjectId,DataLogger,44617461-4c6f-4676-9765-722e6b696361,V1.0*%
%TF.SameCoordinates,Original*%
%TF.FileFunction,Paste,Top*%
%TF.FilePolarity,Positive*%
%FSLAX46Y46*%
G04 Gerber Fmt 4.6, Leading zero omitted, Abs format (unit mm)*
G04 Created by KiCad (PCBNEW 8.0.7) date 2025-04-18 15:45:10*
%MOMM*%
%LPD*%
G01*
G04 APERTURE LIST*
G04 Aperture macros list*
%AMRoundRect*
0 Rectangle with rounded corners*
0 $1 Rounding radius*
0 $2 $3 $4 $5 $6 $7 $8 $9 X,Y pos of 4 corners*
0 Add a 4 corners polygon primitive as box body*
4,1,4,$2,$3,$4,$5,$6,$7,$8,$9,$2,$3,0*
0 Add four circle primitives for the rounded corners*
1,1,$1+$1,$2,$3*
1,1,$1+$1,$4,$5*
1,1,$1+$1,$6,$7*
1,1,$1+$1,$8,$9*
0 Add four rect primitives between the rounded corners*
20,1,$1+$1,$2,$3,$4,$5,0*
20,1,$1+$1,$4,$5,$6,$7,0*
20,1,$1+$1,$6,$7,$8,$9,0*
20,1,$1+$1,$8,$9,$2,$3,0*%
G04 Aperture macros list end*
%ADD10RoundRect,0.150000X-0.825000X-0.150000X0.825000X-0.150000X0.825000X0.150000X-0.825000X0.150000X0*%
%ADD11RoundRect,0.218750X-0.218750X-0.256250X0.218750X-0.256250X0.218750X0.256250X-0.218750X0.256250X0*%
%ADD12RoundRect,0.140000X-0.140000X-0.170000X0.140000X-0.170000X0.140000X0.170000X-0.140000X0.170000X0*%
%ADD13RoundRect,0.200000X0.200000X0.275000X-0.200000X0.275000X-0.200000X-0.275000X0.200000X-0.275000X0*%
%ADD14RoundRect,0.200000X-0.200000X-0.275000X0.200000X-0.275000X0.200000X0.275000X-0.200000X0.275000X0*%
%ADD15R,1.500000X0.550000*%
%ADD16R,0.550000X1.500000*%
G04 APERTURE END LIST*
D10*
%TO.C,U4*%
X137682200Y-104419400D03*
X137682200Y-105689400D03*
X137682200Y-106959400D03*
X137682200Y-108229400D03*
X142632200Y-108229400D03*
X142632200Y-106959400D03*
X142632200Y-105689400D03*
X142632200Y-104419400D03*
%TD*%
D11*
%TO.C,D2*%
X165277700Y-90830400D03*
X166852700Y-90830400D03*
%TD*%
D12*
%TO.C,C4*%
X160708400Y-90982800D03*
X161668400Y-90982800D03*
%TD*%
D13*
%TO.C,R1*%
X162369000Y-94691200D03*
X160719000Y-94691200D03*
%TD*%
D10*
%TO.C,U2*%
X137885400Y-95986600D03*
X137885400Y-97256600D03*
X137885400Y-98526600D03*
X137885400Y-99796600D03*
X142835400Y-99796600D03*
X142835400Y-98526600D03*
X142835400Y-97256600D03*
X142835400Y-95986600D03*
%TD*%
D14*
%TO.C,R6*%
X136690600Y-125323600D03*
X138340600Y-125323600D03*
%TD*%
%TO.C,R5*%
X142583400Y-125323600D03*
X144233400Y-125323600D03*
%TD*%
D12*
%TO.C,C1*%
X171274800Y-107238800D03*
X172234800Y-107238800D03*
%TD*%
D13*
%TO.C,R2*%
X172478200Y-94691200D03*
X170828200Y-94691200D03*
%TD*%
D12*
%TO.C,C3*%
X156441200Y-90982800D03*
X157401200Y-90982800D03*
%TD*%
D13*
%TO.C,R4*%
X172579800Y-100685600D03*
X170929800Y-100685600D03*
%TD*%
D11*
%TO.C,D1*%
X170713300Y-90830400D03*
X172288300Y-90830400D03*
%TD*%
D14*
%TO.C,R8*%
X165341800Y-94691200D03*
X166991800Y-94691200D03*
%TD*%
D12*
%TO.C,C2*%
X171274800Y-104038400D03*
X172234800Y-104038400D03*
%TD*%
D14*
%TO.C,R3*%
X156147000Y-94691200D03*
X157797000Y-94691200D03*
%TD*%
D13*
%TO.C,R7*%
X172579800Y-97586800D03*
X170929800Y-97586800D03*
%TD*%
D15*
%TO.C,U1*%
X150132000Y-101289200D03*
X150132000Y-102089200D03*
X150132000Y-102889200D03*
X150132000Y-103689200D03*
X150132000Y-104489200D03*
X150132000Y-105289200D03*
X150132000Y-106089200D03*
X150132000Y-106889200D03*
D16*
X151632000Y-108389200D03*
X152432000Y-108389200D03*
X153232000Y-108389200D03*
X154032000Y-108389200D03*
X154832000Y-108389200D03*
X155632000Y-108389200D03*
X156432000Y-108389200D03*
X157232000Y-108389200D03*
D15*
X158732000Y-106889200D03*
X158732000Y-106089200D03*
X158732000Y-105289200D03*
X158732000Y-104489200D03*
X158732000Y-103689200D03*
X158732000Y-102889200D03*
X158732000Y-102089200D03*
X158732000Y-101289200D03*
D16*
X157232000Y-99789200D03*
X156432000Y-99789200D03*
X155632000Y-99789200D03*
X154832000Y-99789200D03*
X154032000Y-99789200D03*
X153232000Y-99789200D03*
X152432000Y-99789200D03*
X151632000Y-99789200D03*
%TD*%
M02*
