%TF.GenerationSoftware,KiCad,Pcbnew,8.0.7*%
%TF.CreationDate,2025-03-27T15:31:39+02:00*%
%TF.ProjectId,DataLogger,44617461-4c6f-4676-9765-722e6b696361,V1.0*%
%TF.SameCoordinates,Original*%
%TF.FileFunction,Copper,L1,Top*%
%TF.FilePolarity,Positive*%
%FSLAX46Y46*%
G04 Gerber Fmt 4.6, Leading zero omitted, Abs format (unit mm)*
G04 Created by KiCad (PCBNEW 8.0.7) date 2025-03-27 15:31:39*
%MOMM*%
%LPD*%
G01*
G04 APERTURE LIST*
G04 Aperture macros list*
%AMRoundRect*
0 Rectangle with rounded corners*
0 $1 Rounding radius*
0 $2 $3 $4 $5 $6 $7 $8 $9 X,Y pos of 4 corners*
0 Add a 4 corners polygon primitive as box body*
4,1,4,$2,$3,$4,$5,$6,$7,$8,$9,$2,$3,0*
0 Add four circle primitives for the rounded corners*
1,1,$1+$1,$2,$3*
1,1,$1+$1,$4,$5*
1,1,$1+$1,$6,$7*
1,1,$1+$1,$8,$9*
0 Add four rect primitives between the rounded corners*
20,1,$1+$1,$2,$3,$4,$5,0*
20,1,$1+$1,$4,$5,$6,$7,0*
20,1,$1+$1,$6,$7,$8,$9,0*
20,1,$1+$1,$8,$9,$2,$3,0*%
G04 Aperture macros list end*
%TA.AperFunction,SMDPad,CuDef*%
%ADD10RoundRect,0.150000X-0.825000X-0.150000X0.825000X-0.150000X0.825000X0.150000X-0.825000X0.150000X0*%
%TD*%
%TA.AperFunction,ComponentPad*%
%ADD11C,3.800000*%
%TD*%
%TA.AperFunction,ComponentPad*%
%ADD12R,2.800000X2.800000*%
%TD*%
%TA.AperFunction,ComponentPad*%
%ADD13C,2.800000*%
%TD*%
%TA.AperFunction,ComponentPad*%
%ADD14C,1.500000*%
%TD*%
%TA.AperFunction,SMDPad,CuDef*%
%ADD15RoundRect,0.218750X-0.218750X-0.256250X0.218750X-0.256250X0.218750X0.256250X-0.218750X0.256250X0*%
%TD*%
%TA.AperFunction,ComponentPad*%
%ADD16R,1.210000X1.210000*%
%TD*%
%TA.AperFunction,ComponentPad*%
%ADD17C,1.210000*%
%TD*%
%TA.AperFunction,SMDPad,CuDef*%
%ADD18RoundRect,0.140000X-0.140000X-0.170000X0.140000X-0.170000X0.140000X0.170000X-0.140000X0.170000X0*%
%TD*%
%TA.AperFunction,SMDPad,CuDef*%
%ADD19RoundRect,0.200000X0.200000X0.275000X-0.200000X0.275000X-0.200000X-0.275000X0.200000X-0.275000X0*%
%TD*%
%TA.AperFunction,SMDPad,CuDef*%
%ADD20RoundRect,0.200000X-0.200000X-0.275000X0.200000X-0.275000X0.200000X0.275000X-0.200000X0.275000X0*%
%TD*%
%TA.AperFunction,ComponentPad*%
%ADD21C,2.000000*%
%TD*%
%TA.AperFunction,ComponentPad*%
%ADD22R,1.408000X1.408000*%
%TD*%
%TA.AperFunction,ComponentPad*%
%ADD23C,1.408000*%
%TD*%
%TA.AperFunction,SMDPad,CuDef*%
%ADD24R,1.500000X0.550000*%
%TD*%
%TA.AperFunction,SMDPad,CuDef*%
%ADD25R,0.550000X1.500000*%
%TD*%
%TA.AperFunction,ViaPad*%
%ADD26C,0.600000*%
%TD*%
%TA.AperFunction,Conductor*%
%ADD27C,0.200000*%
%TD*%
G04 APERTURE END LIST*
D10*
%TO.P,U4,1,A0*%
%TO.N,GND*%
X137682200Y-104419400D03*
%TO.P,U4,2,A1*%
X137682200Y-105689400D03*
%TO.P,U4,3,A2*%
%TO.N,/VCC*%
X137682200Y-106959400D03*
%TO.P,U4,4,GND*%
%TO.N,GND*%
X137682200Y-108229400D03*
%TO.P,U4,5,SDA*%
%TO.N,/SDA*%
X142632200Y-108229400D03*
%TO.P,U4,6,SCL*%
%TO.N,/SCL*%
X142632200Y-106959400D03*
%TO.P,U4,7,WP*%
%TO.N,GND*%
X142632200Y-105689400D03*
%TO.P,U4,8,VCC*%
%TO.N,/VCC*%
X142632200Y-104419400D03*
%TD*%
D11*
%TO.P,H2,1*%
%TO.N,N/C*%
X185928000Y-136398000D03*
%TD*%
%TO.P,H1,1*%
%TO.N,N/C*%
X186182000Y-78892400D03*
%TD*%
D12*
%TO.P,J4,1,Pin_1*%
%TO.N,Net-(D2-A)*%
X128168400Y-99359800D03*
D13*
%TO.P,J4,2,Pin_2*%
%TO.N,GND*%
X128168400Y-104439800D03*
%TD*%
D12*
%TO.P,J6,1,Pin_1*%
%TO.N,Net-(J6-Pin_1)*%
X128828800Y-84632800D03*
D13*
%TO.P,J6,2,Pin_2*%
%TO.N,Net-(J6-Pin_2)*%
X133908800Y-84632800D03*
%TO.P,J6,3,Pin_3*%
%TO.N,Net-(J6-Pin_3)*%
X138988800Y-84632800D03*
%TO.P,J6,4,Pin_4*%
%TO.N,Net-(J6-Pin_4)*%
X144068800Y-84632800D03*
%TD*%
D12*
%TO.P,J1,1,Pin_1*%
%TO.N,GND*%
X164388800Y-130657600D03*
D13*
%TO.P,J1,2,Pin_2*%
%TO.N,/TX*%
X169468800Y-130657600D03*
%TO.P,J1,3,Pin_3*%
%TO.N,/RX*%
X174548800Y-130657600D03*
%TO.P,J1,4,Pin_4*%
%TO.N,/VCC*%
X179628800Y-130657600D03*
%TD*%
D14*
%TO.P,Y2,1,1*%
%TO.N,/XTAL2*%
X152032800Y-116484400D03*
%TO.P,Y2,2,2*%
%TO.N,/XTAL1*%
X156912800Y-116484400D03*
%TD*%
D15*
%TO.P,D2,1,K*%
%TO.N,Power supply*%
X165277700Y-90830400D03*
%TO.P,D2,2,A*%
%TO.N,Net-(D2-A)*%
X166852700Y-90830400D03*
%TD*%
D16*
%TO.P,U3,1,X1*%
%TO.N,Net-(U3-X1)*%
X136339600Y-113944400D03*
D17*
%TO.P,U3,2,X2*%
%TO.N,Net-(U3-X2)*%
X136339600Y-116484400D03*
%TO.P,U3,3,#INTA*%
%TO.N,/INTA*%
X136339600Y-119024400D03*
%TO.P,U3,4,GND*%
%TO.N,GND*%
X136339600Y-121564400D03*
%TO.P,U3,5,SDA*%
%TO.N,/SDA*%
X144279600Y-121564400D03*
%TO.P,U3,6,SCL*%
%TO.N,/SCL*%
X144279600Y-119024400D03*
%TO.P,U3,7,SQW/#INTB*%
%TO.N,/INTB*%
X144279600Y-116484400D03*
%TO.P,U3,8,VCC*%
%TO.N,/VCC*%
X144279600Y-113944400D03*
%TD*%
D12*
%TO.P,J5,1,Pin_1*%
%TO.N,Net-(J5-Pin_1)*%
X129955700Y-130606800D03*
D13*
%TO.P,J5,2,Pin_2*%
%TO.N,Net-(J5-Pin_2)*%
X135035700Y-130606800D03*
%TO.P,J5,3,Pin_3*%
%TO.N,Net-(J5-Pin_3)*%
X140115700Y-130606800D03*
%TO.P,J5,4,Pin_4*%
%TO.N,Net-(J5-Pin_4)*%
X145195700Y-130606800D03*
%TO.P,J5,5,Pin_5*%
%TO.N,Net-(J5-Pin_5)*%
X150275700Y-130606800D03*
%TO.P,J5,6,Pin_6*%
%TO.N,Net-(J5-Pin_6)*%
X155355700Y-130606800D03*
%TD*%
D12*
%TO.P,J3,1,Pin_1*%
%TO.N,GND*%
X179019200Y-101295200D03*
D13*
%TO.P,J3,2,Pin_2*%
%TO.N,/SCL*%
X179019200Y-106375200D03*
%TO.P,J3,3,Pin_3*%
%TO.N,/SDA*%
X179019200Y-111455200D03*
%TO.P,J3,4,Pin_4*%
%TO.N,/VCC*%
X179019200Y-116535200D03*
%TD*%
D18*
%TO.P,C4,1*%
%TO.N,GND*%
X160708400Y-90982800D03*
%TO.P,C4,2*%
%TO.N,Net-(U3-X1)*%
X161668400Y-90982800D03*
%TD*%
D19*
%TO.P,R1,1*%
%TO.N,/VCC*%
X162369000Y-94691200D03*
%TO.P,R1,2*%
%TO.N,/SDA*%
X160719000Y-94691200D03*
%TD*%
D11*
%TO.P,H3,1*%
%TO.N,N/C*%
X121716800Y-78689200D03*
%TD*%
D10*
%TO.P,U2,1,A0*%
%TO.N,GND*%
X137885400Y-95986600D03*
%TO.P,U2,2,A1*%
X137885400Y-97256600D03*
%TO.P,U2,3,A2*%
%TO.N,/VCC*%
X137885400Y-98526600D03*
%TO.P,U2,4,GND*%
%TO.N,GND*%
X137885400Y-99796600D03*
%TO.P,U2,5,SDA*%
%TO.N,/SDA*%
X142835400Y-99796600D03*
%TO.P,U2,6,SCL*%
%TO.N,/SCL*%
X142835400Y-98526600D03*
%TO.P,U2,7,WP*%
%TO.N,GND*%
X142835400Y-97256600D03*
%TO.P,U2,8,VCC*%
%TO.N,/VCC*%
X142835400Y-95986600D03*
%TD*%
D20*
%TO.P,R6,1*%
%TO.N,/SDA*%
X136690600Y-125323600D03*
%TO.P,R6,2*%
%TO.N,/VCC*%
X138340600Y-125323600D03*
%TD*%
%TO.P,R5,1*%
%TO.N,/VCC*%
X142583400Y-125323600D03*
%TO.P,R5,2*%
%TO.N,/SCL*%
X144233400Y-125323600D03*
%TD*%
D18*
%TO.P,C1,1*%
%TO.N,/XTAL1*%
X171274800Y-107238800D03*
%TO.P,C1,2*%
%TO.N,GND*%
X172234800Y-107238800D03*
%TD*%
D19*
%TO.P,R2,1*%
%TO.N,/SCL*%
X172478200Y-94691200D03*
%TO.P,R2,2*%
%TO.N,/VCC*%
X170828200Y-94691200D03*
%TD*%
D11*
%TO.P,H4,1*%
%TO.N,N/C*%
X121818400Y-137363200D03*
%TD*%
D12*
%TO.P,J2,1,Pin_1*%
%TO.N,VCC*%
X153771600Y-84683600D03*
D13*
%TO.P,J2,2,Pin_2*%
%TO.N,MOSI*%
X158851600Y-84683600D03*
%TO.P,J2,3,Pin_3*%
%TO.N,MISO*%
X163931600Y-84683600D03*
%TO.P,J2,4,Pin_4*%
%TO.N,Net-(D1-A)*%
X169011600Y-84683600D03*
%TO.P,J2,5,Pin_5*%
%TO.N,NSS*%
X174091600Y-84683600D03*
%TO.P,J2,6,Pin_6*%
%TO.N,GND*%
X179171600Y-84683600D03*
%TD*%
D18*
%TO.P,C3,1*%
%TO.N,Net-(U3-X2)*%
X156441200Y-90982800D03*
%TO.P,C3,2*%
%TO.N,GND*%
X157401200Y-90982800D03*
%TD*%
D19*
%TO.P,R4,1*%
%TO.N,/SCL*%
X172579800Y-100685600D03*
%TO.P,R4,2*%
%TO.N,/VCC*%
X170929800Y-100685600D03*
%TD*%
D21*
%TO.P,SW1,1,1*%
%TO.N,/RESET*%
X164390000Y-114336000D03*
X170890000Y-114336000D03*
%TO.P,SW1,2,2*%
%TO.N,GND*%
X164390000Y-118836000D03*
X170890000Y-118836000D03*
%TD*%
D15*
%TO.P,D1,1,K*%
%TO.N,SCK*%
X170713300Y-90830400D03*
%TO.P,D1,2,A*%
%TO.N,Net-(D1-A)*%
X172288300Y-90830400D03*
%TD*%
D20*
%TO.P,R8,1*%
%TO.N,/INTB*%
X165341800Y-94691200D03*
%TO.P,R8,2*%
%TO.N,/VCC*%
X166991800Y-94691200D03*
%TD*%
D18*
%TO.P,C2,1*%
%TO.N,/XTAL2*%
X171274800Y-104038400D03*
%TO.P,C2,2*%
%TO.N,GND*%
X172234800Y-104038400D03*
%TD*%
D20*
%TO.P,R3,1*%
%TO.N,/VCC*%
X156147000Y-94691200D03*
%TO.P,R3,2*%
%TO.N,/SDA*%
X157797000Y-94691200D03*
%TD*%
D22*
%TO.P,SW2,1,A*%
%TO.N,/VCC*%
X165658800Y-107656000D03*
D23*
%TO.P,SW2,2,B*%
%TO.N,+5V*%
X165658800Y-105156000D03*
%TO.P,SW2,3,C*%
%TO.N,Power supply*%
X165658800Y-102656000D03*
%TD*%
D14*
%TO.P,Y1,1,1*%
%TO.N,Net-(U3-X2)*%
X128270000Y-121626800D03*
%TO.P,Y1,2,2*%
%TO.N,Net-(U3-X1)*%
X128270000Y-116746800D03*
%TD*%
D19*
%TO.P,R7,1*%
%TO.N,/VCC*%
X172579800Y-97586800D03*
%TO.P,R7,2*%
%TO.N,/INTA*%
X170929800Y-97586800D03*
%TD*%
D24*
%TO.P,U1,1,~{RESET}/PC6*%
%TO.N,/RESET*%
X150132000Y-101289200D03*
%TO.P,U1,2,PD0*%
%TO.N,/RX*%
X150132000Y-102089200D03*
%TO.P,U1,3,PD1*%
%TO.N,/TX*%
X150132000Y-102889200D03*
%TO.P,U1,4,PD2*%
%TO.N,/INTA*%
X150132000Y-103689200D03*
%TO.P,U1,5,PD3*%
%TO.N,/INTB*%
X150132000Y-104489200D03*
%TO.P,U1,6,PD4*%
%TO.N,/SDA*%
X150132000Y-105289200D03*
%TO.P,U1,7,VCC*%
%TO.N,+5V*%
X150132000Y-106089200D03*
%TO.P,U1,8,GND*%
%TO.N,GND*%
X150132000Y-106889200D03*
D25*
%TO.P,U1,9,XTAL1/PB6*%
%TO.N,/XTAL1*%
X151632000Y-108389200D03*
%TO.P,U1,10,XTAL2/PB7*%
%TO.N,/XTAL2*%
X152432000Y-108389200D03*
%TO.P,U1,11,PD5*%
%TO.N,/SCL*%
X153232000Y-108389200D03*
%TO.P,U1,12,PD6*%
%TO.N,Net-(J6-Pin_2)*%
X154032000Y-108389200D03*
%TO.P,U1,13,PD7*%
%TO.N,Net-(J6-Pin_1)*%
X154832000Y-108389200D03*
%TO.P,U1,14,PB0*%
%TO.N,Net-(J6-Pin_4)*%
X155632000Y-108389200D03*
%TO.P,U1,15,PB1*%
%TO.N,Net-(J6-Pin_3)*%
X156432000Y-108389200D03*
%TO.P,U1,16,PB2*%
%TO.N,NSS*%
X157232000Y-108389200D03*
D24*
%TO.P,U1,17,PB3*%
%TO.N,MOSI*%
X158732000Y-106889200D03*
%TO.P,U1,18,PB4*%
%TO.N,MISO*%
X158732000Y-106089200D03*
%TO.P,U1,19,PB5*%
%TO.N,SCK*%
X158732000Y-105289200D03*
%TO.P,U1,20,AVCC*%
%TO.N,unconnected-(U1-AVCC-Pad20)*%
X158732000Y-104489200D03*
%TO.P,U1,21,AREF*%
%TO.N,unconnected-(U1-AREF-Pad21)*%
X158732000Y-103689200D03*
%TO.P,U1,22,GND*%
%TO.N,GND*%
X158732000Y-102889200D03*
%TO.P,U1,23,PC0*%
%TO.N,Net-(J5-Pin_6)*%
X158732000Y-102089200D03*
%TO.P,U1,24,PC1*%
%TO.N,Net-(J5-Pin_5)*%
X158732000Y-101289200D03*
D25*
%TO.P,U1,25,PC2*%
%TO.N,Net-(J5-Pin_4)*%
X157232000Y-99789200D03*
%TO.P,U1,26,PC3*%
%TO.N,Net-(J5-Pin_3)*%
X156432000Y-99789200D03*
%TO.P,U1,27,PC4*%
%TO.N,Net-(J5-Pin_2)*%
X155632000Y-99789200D03*
%TO.P,U1,28,PC5*%
%TO.N,Net-(J5-Pin_1)*%
X154832000Y-99789200D03*
%TO.P,U1,29*%
%TO.N,N/C*%
X154032000Y-99789200D03*
%TO.P,U1,30*%
X153232000Y-99789200D03*
%TO.P,U1,31*%
X152432000Y-99789200D03*
%TO.P,U1,32*%
X151632000Y-99789200D03*
%TD*%
D26*
%TO.N,GND*%
X164033200Y-109524800D03*
X136906000Y-123901200D03*
X141427200Y-105105200D03*
X148430065Y-107993265D03*
X138693600Y-105105200D03*
X147320000Y-109270800D03*
%TO.N,Net-(U3-X2)*%
X132943600Y-91541600D03*
%TO.N,Net-(U3-X1)*%
X125868400Y-110998000D03*
%TO.N,SCK*%
X166166800Y-97739200D03*
X169519600Y-93370400D03*
X160426400Y-100025200D03*
X160172400Y-104241600D03*
%TO.N,Power supply*%
X163626800Y-91795600D03*
%TO.N,/TX*%
X159664400Y-113182400D03*
%TO.N,/RX*%
X152095200Y-102209600D03*
%TO.N,NSS*%
X157632400Y-110642400D03*
%TO.N,MISO*%
X161053865Y-100870935D03*
X161036000Y-106121200D03*
X162306000Y-98552000D03*
%TO.N,MOSI*%
X162814000Y-107035600D03*
%TO.N,/SDA*%
X141732000Y-100939600D03*
X144635135Y-99509665D03*
X145592800Y-97586800D03*
X164226800Y-96012000D03*
X136296400Y-110490000D03*
X141833600Y-109931200D03*
X140055600Y-101295200D03*
%TO.N,/SCL*%
X143907200Y-109829600D03*
X146405600Y-118821200D03*
%TO.N,Net-(J5-Pin_6)*%
X157073600Y-102362000D03*
%TO.N,Net-(J5-Pin_2)*%
X153771600Y-101556314D03*
%TO.N,Net-(J5-Pin_1)*%
X153009600Y-90170000D03*
X155194000Y-97688400D03*
%TO.N,Net-(J5-Pin_5)*%
X157070659Y-101556314D03*
%TO.N,Net-(J5-Pin_3)*%
X154482800Y-102260400D03*
%TO.N,Net-(J5-Pin_4)*%
X155549600Y-102565200D03*
%TO.N,Net-(J6-Pin_2)*%
X151790400Y-105105200D03*
%TO.N,Net-(J6-Pin_4)*%
X154362000Y-106137728D03*
X154949600Y-103733600D03*
X152571436Y-101291234D03*
%TO.N,Net-(J6-Pin_1)*%
X151460200Y-104267000D03*
%TO.N,Net-(J6-Pin_3)*%
X152704800Y-103581200D03*
%TO.N,/INTA*%
X148234400Y-104546400D03*
%TO.N,/INTB*%
X168452800Y-96316800D03*
X141681200Y-117957600D03*
X148480865Y-105366735D03*
%TO.N,/RESET*%
X150953353Y-98744122D03*
%TO.N,+5V*%
X147218400Y-99060000D03*
X149240800Y-99060000D03*
%TD*%
D27*
%TO.N,/XTAL1*%
X151130000Y-118262400D02*
X150063200Y-117195600D01*
X167769600Y-110744000D02*
X165658800Y-110744000D01*
X171274800Y-107238800D02*
X167769600Y-110744000D01*
X150063200Y-117195600D02*
X150063200Y-109958000D01*
X165658800Y-110744000D02*
X159918400Y-116484400D01*
X156912800Y-116484400D02*
X155134800Y-118262400D01*
X155134800Y-118262400D02*
X151130000Y-118262400D01*
X159918400Y-116484400D02*
X156912800Y-116484400D01*
X150063200Y-109958000D02*
X151632000Y-108389200D01*
%TO.N,GND*%
X172234800Y-107238800D02*
X172234800Y-117491200D01*
X143612752Y-103784400D02*
X141630400Y-103784400D01*
X161318400Y-91592800D02*
X162000800Y-91592800D01*
X164390000Y-118836000D02*
X170890000Y-118836000D01*
X164388800Y-118837200D02*
X164390000Y-118836000D01*
X158732000Y-102889200D02*
X161207600Y-102889200D01*
X136407200Y-107908400D02*
X136728200Y-108229400D01*
X164033200Y-105714800D02*
X164033200Y-109524800D01*
X144983200Y-105154848D02*
X143612752Y-103784400D01*
X140912800Y-105454400D02*
X141147800Y-105689400D01*
X145999200Y-100025200D02*
X145999200Y-104495600D01*
X136610400Y-97556601D02*
X136610400Y-99424800D01*
X148430065Y-107993265D02*
X149027935Y-107993265D01*
X144983200Y-107035600D02*
X144983200Y-105154848D01*
X136339600Y-123334800D02*
X136906000Y-123901200D01*
X176885600Y-82397600D02*
X179171600Y-84683600D01*
X166319200Y-83820000D02*
X167741600Y-82397600D01*
X136610400Y-99424800D02*
X136982200Y-99796600D01*
X172234800Y-104038400D02*
X172234800Y-107238800D01*
X136728200Y-108229400D02*
X137682200Y-108229400D01*
X140912800Y-104502000D02*
X140912800Y-105454400D01*
X141147800Y-105689400D02*
X142632200Y-105689400D01*
X128168400Y-104439800D02*
X137661800Y-104439800D01*
X137682200Y-120221800D02*
X136339600Y-121564400D01*
X142011400Y-105689400D02*
X141427200Y-105105200D01*
X137682200Y-99999800D02*
X137885400Y-99796600D01*
X161207600Y-102889200D02*
X164033200Y-105714800D01*
X136707201Y-105689400D02*
X136407200Y-105989401D01*
X137682200Y-105689400D02*
X137682200Y-104419400D01*
X136910401Y-97256600D02*
X136610400Y-97556601D01*
X166319200Y-87274400D02*
X166319200Y-83820000D01*
X179019200Y-101295200D02*
X174978000Y-101295200D01*
X137885400Y-97256600D02*
X136910401Y-97256600D01*
X147218400Y-109270800D02*
X144983200Y-107035600D01*
X167741600Y-82397600D02*
X176885600Y-82397600D01*
X164388800Y-130657600D02*
X164388800Y-118837200D01*
X137682200Y-108229400D02*
X137682200Y-120221800D01*
X141630400Y-103784400D02*
X140912800Y-104502000D01*
X172234800Y-117491200D02*
X170890000Y-118836000D01*
X137661800Y-104439800D02*
X137682200Y-104419400D01*
X174978000Y-101295200D02*
X172234800Y-104038400D01*
X142835400Y-97256600D02*
X143230600Y-97256600D01*
X143230600Y-97256600D02*
X145999200Y-100025200D01*
X137682200Y-105689400D02*
X136707201Y-105689400D01*
X142632200Y-105689400D02*
X142977752Y-105689400D01*
X149027935Y-107993265D02*
X150132000Y-106889200D01*
X137682200Y-104419400D02*
X137682200Y-99999800D01*
X136407200Y-105989401D02*
X136407200Y-107908400D01*
X160708400Y-90982800D02*
X161318400Y-91592800D01*
X136339600Y-121564400D02*
X136339600Y-123334800D01*
X148392800Y-106889200D02*
X150132000Y-106889200D01*
X138693600Y-105105200D02*
X138266400Y-105105200D01*
X137885400Y-97256600D02*
X137885400Y-95986600D01*
X142632200Y-105689400D02*
X142011400Y-105689400D01*
X147320000Y-109270800D02*
X147218400Y-109270800D01*
X138266400Y-105105200D02*
X137682200Y-105689400D01*
X157401200Y-90982800D02*
X160708400Y-90982800D01*
X136982200Y-99796600D02*
X137885400Y-99796600D01*
X162000800Y-91592800D02*
X166319200Y-87274400D01*
X145999200Y-104495600D02*
X148392800Y-106889200D01*
%TO.N,/XTAL2*%
X152432000Y-116085200D02*
X152432000Y-108389200D01*
X165493114Y-110344000D02*
X160521114Y-115316000D01*
X166109600Y-110344000D02*
X165493114Y-110344000D01*
X171274800Y-104038400D02*
X171274800Y-105178800D01*
X171274800Y-105178800D02*
X166109600Y-110344000D01*
X153201200Y-115316000D02*
X152032800Y-116484400D01*
X152032800Y-116484400D02*
X152432000Y-116085200D01*
X160521114Y-115316000D02*
X153201200Y-115316000D01*
%TO.N,Net-(U3-X2)*%
X133502400Y-90982800D02*
X156441200Y-90982800D01*
X132943600Y-91541600D02*
X133502400Y-90982800D01*
%TO.N,Net-(U3-X1)*%
X125868400Y-97187514D02*
X125868400Y-110998000D01*
X161668400Y-90982800D02*
X160255600Y-89570000D01*
X160255600Y-89570000D02*
X133485914Y-89570000D01*
X133485914Y-89570000D02*
X125868400Y-97187514D01*
%TO.N,SCK*%
X170713300Y-92176700D02*
X170713300Y-90830400D01*
X158732000Y-105289200D02*
X159682000Y-105289200D01*
X160426400Y-99583071D02*
X162270271Y-97739200D01*
X160426400Y-100025200D02*
X160426400Y-99583071D01*
X162270271Y-97739200D02*
X166166800Y-97739200D01*
X169519600Y-93370400D02*
X170713300Y-92176700D01*
X160172400Y-104798800D02*
X160172400Y-104241600D01*
X159682000Y-105289200D02*
X160172400Y-104798800D01*
%TO.N,Net-(D1-A)*%
X169011600Y-87553700D02*
X172288300Y-90830400D01*
X169011600Y-84683600D02*
X169011600Y-87553700D01*
%TO.N,Net-(D2-A)*%
X166370000Y-92456000D02*
X166852700Y-91973300D01*
X166852700Y-91973300D02*
X166852700Y-90830400D01*
X128168400Y-99359800D02*
X135072200Y-92456000D01*
X135072200Y-92456000D02*
X166370000Y-92456000D01*
%TO.N,Power supply*%
X164592000Y-90830400D02*
X165277700Y-90830400D01*
X163626800Y-91795600D02*
X164592000Y-90830400D01*
%TO.N,/VCC*%
X139141200Y-106959400D02*
X139746648Y-106959400D01*
X142875000Y-95986600D02*
X144170400Y-94691200D01*
X145592800Y-115257600D02*
X145592800Y-122529600D01*
X145592800Y-122529600D02*
X142798800Y-125323600D01*
X139949848Y-98526600D02*
X142489848Y-95986600D01*
X166216800Y-93916200D02*
X166991800Y-94691200D01*
X172579800Y-99035600D02*
X170929800Y-100685600D01*
X162369000Y-94691200D02*
X163144000Y-93916200D01*
X170929800Y-102385000D02*
X165658800Y-107656000D01*
X142489848Y-95986600D02*
X142835400Y-95986600D01*
X172579800Y-97586800D02*
X172579800Y-96442800D01*
X162369000Y-94691200D02*
X161594000Y-93916200D01*
X137682200Y-106959400D02*
X139141200Y-106959400D01*
X161594000Y-93916200D02*
X156922000Y-93916200D01*
X170929800Y-100685600D02*
X170929800Y-102385000D01*
X144507200Y-113716800D02*
X144279600Y-113944400D01*
X156922000Y-93916200D02*
X156147000Y-94691200D01*
X144279600Y-113944400D02*
X145592800Y-115257600D01*
X143607199Y-104419400D02*
X144475200Y-105287401D01*
X144475200Y-109549071D02*
X144507200Y-109581071D01*
X166991800Y-94691200D02*
X170828200Y-94691200D01*
X142835400Y-95986600D02*
X142875000Y-95986600D01*
X163144000Y-93916200D02*
X166216800Y-93916200D01*
X137885400Y-98526600D02*
X139852400Y-98526600D01*
X139852400Y-98526600D02*
X139949848Y-98526600D01*
X142632200Y-104419400D02*
X143607199Y-104419400D01*
X139746648Y-109411448D02*
X144279600Y-113944400D01*
X139141200Y-105918000D02*
X139141200Y-106959400D01*
X139293600Y-99085400D02*
X139293600Y-105765600D01*
X172579800Y-97586800D02*
X172579800Y-99035600D01*
X139746648Y-106959400D02*
X139746648Y-109411448D01*
X172579800Y-96442800D02*
X170828200Y-94691200D01*
X142798800Y-125323600D02*
X142583400Y-125323600D01*
X144507200Y-109581071D02*
X144507200Y-113716800D01*
X144475200Y-105287401D02*
X144475200Y-109549071D01*
X139852400Y-98526600D02*
X139293600Y-99085400D01*
X139293600Y-105765600D02*
X139141200Y-105918000D01*
X138340600Y-125323600D02*
X142583400Y-125323600D01*
X142286648Y-104419400D02*
X142632200Y-104419400D01*
X144170400Y-94691200D02*
X156147000Y-94691200D01*
%TO.N,/TX*%
X159664400Y-109321600D02*
X159664400Y-113182400D01*
X150132000Y-102889200D02*
X153232000Y-102889200D01*
X153232000Y-102889200D02*
X159664400Y-109321600D01*
%TO.N,/RX*%
X151974800Y-102089200D02*
X150132000Y-102089200D01*
X152095200Y-102209600D02*
X151974800Y-102089200D01*
%TO.N,NSS*%
X157232000Y-110242000D02*
X157232000Y-108389200D01*
X157632400Y-110642400D02*
X157232000Y-110242000D01*
%TO.N,MISO*%
X161036000Y-106121200D02*
X159714000Y-106121200D01*
X159714000Y-106121200D02*
X159682000Y-106089200D01*
X159682000Y-106089200D02*
X158732000Y-106089200D01*
X161053865Y-100870935D02*
X162306000Y-99618800D01*
X162306000Y-99618800D02*
X162306000Y-98552000D01*
%TO.N,MOSI*%
X162667600Y-106889200D02*
X158732000Y-106889200D01*
X162814000Y-107035600D02*
X162667600Y-106889200D01*
%TO.N,/SDA*%
X142632200Y-108229400D02*
X141657201Y-108229400D01*
X140449800Y-121564400D02*
X144279600Y-121564400D01*
X136296400Y-110490000D02*
X135434600Y-111351800D01*
X151485600Y-105692800D02*
X151485600Y-107035600D01*
X136690600Y-125323600D02*
X140449800Y-121564400D01*
X150132000Y-105289200D02*
X151082000Y-105289200D01*
X151082000Y-105289200D02*
X151485600Y-105692800D01*
X143122335Y-99509665D02*
X142835400Y-99796600D01*
X135434600Y-111351800D02*
X135434600Y-124067600D01*
X147364400Y-95815200D02*
X145592800Y-97586800D01*
X141732000Y-100939600D02*
X141732000Y-100900000D01*
X147929600Y-108610400D02*
X145389600Y-106070400D01*
X145389600Y-102350800D02*
X142835400Y-99796600D01*
X141833600Y-109931200D02*
X141833600Y-109028000D01*
X135434600Y-124067600D02*
X136690600Y-125323600D01*
X157797000Y-94691200D02*
X160719000Y-94691200D01*
X151485600Y-107035600D02*
X149910800Y-108610400D01*
X144635135Y-99509665D02*
X143122335Y-99509665D01*
X164226800Y-96012000D02*
X162039800Y-96012000D01*
X157797000Y-94691200D02*
X156673000Y-95815200D01*
X140055600Y-106627799D02*
X140055600Y-101295200D01*
X162039800Y-96012000D02*
X160719000Y-94691200D01*
X141657201Y-108229400D02*
X140055600Y-106627799D01*
X156673000Y-95815200D02*
X147364400Y-95815200D01*
X141833600Y-109028000D02*
X142632200Y-108229400D01*
X141732000Y-100900000D02*
X142835400Y-99796600D01*
X149910800Y-108610400D02*
X147929600Y-108610400D01*
X145389600Y-106070400D02*
X145389600Y-102350800D01*
%TO.N,/SCL*%
X181356000Y-104038400D02*
X181356000Y-99618800D01*
X172579800Y-100685600D02*
X172579800Y-101797266D01*
X141860401Y-98526600D02*
X140512800Y-99874201D01*
X173279800Y-99415600D02*
X173279800Y-95492800D01*
X162688800Y-132357600D02*
X170172964Y-132357600D01*
X180492400Y-98755200D02*
X173940200Y-98755200D01*
X166662800Y-107714266D02*
X166662800Y-108520800D01*
X143907200Y-107788400D02*
X143078200Y-106959400D01*
X173279800Y-95492800D02*
X172478200Y-94691200D01*
X166662800Y-108520800D02*
X160426400Y-114757200D01*
X160426400Y-114757200D02*
X158775000Y-114757200D01*
X143078200Y-106959400D02*
X142632200Y-106959400D01*
X141757400Y-106959400D02*
X142632200Y-106959400D01*
X140512800Y-105714800D02*
X141757400Y-106959400D01*
X143907200Y-109829600D02*
X143907200Y-107788400D01*
X142835400Y-98526600D02*
X141860401Y-98526600D01*
X140655600Y-101543729D02*
X140512800Y-101686529D01*
X180746400Y-121784164D02*
X180746400Y-108102400D01*
X173279800Y-99985600D02*
X173279800Y-99415600D01*
X155654800Y-125323600D02*
X162688800Y-132357600D01*
X179019200Y-106375200D02*
X181356000Y-104038400D01*
X144233400Y-125323600D02*
X155654800Y-125323600D01*
X140655600Y-101046671D02*
X140655600Y-101543729D01*
X172579800Y-101797266D02*
X166662800Y-107714266D01*
X143907200Y-109829600D02*
X143747600Y-109829600D01*
X180746400Y-108102400D02*
X179019200Y-106375200D01*
X172579800Y-100685600D02*
X173279800Y-99985600D01*
X140512800Y-101686529D02*
X140512800Y-105714800D01*
X144233400Y-125323600D02*
X146405600Y-123151400D01*
X181356000Y-99618800D02*
X180492400Y-98755200D01*
X170172964Y-132357600D02*
X180746400Y-121784164D01*
X153232000Y-109214200D02*
X153232000Y-108389200D01*
X140512800Y-99874201D02*
X140512800Y-100903871D01*
X146405600Y-123151400D02*
X146405600Y-118821200D01*
X140512800Y-100903871D02*
X140655600Y-101046671D01*
X158775000Y-114757200D02*
X153232000Y-109214200D01*
X173940200Y-98755200D02*
X173279800Y-99415600D01*
%TO.N,Net-(J5-Pin_6)*%
X157073600Y-102362000D02*
X157346400Y-102089200D01*
X157346400Y-102089200D02*
X158732000Y-102089200D01*
%TO.N,Net-(J5-Pin_2)*%
X155532000Y-100839200D02*
X155632000Y-100739200D01*
X155632000Y-100739200D02*
X155632000Y-99789200D01*
X153771600Y-101556314D02*
X154488714Y-100839200D01*
X154488714Y-100839200D02*
X155532000Y-100839200D01*
%TO.N,Net-(J5-Pin_1)*%
X129955700Y-130606800D02*
X126468400Y-127119500D01*
X126468400Y-127119500D02*
X126468400Y-97153200D01*
X155194000Y-98044000D02*
X154832000Y-98406000D01*
X126468400Y-97153200D02*
X133451600Y-90170000D01*
X133451600Y-90170000D02*
X153009600Y-90170000D01*
X154832000Y-98406000D02*
X154832000Y-99789200D01*
X155194000Y-97688400D02*
X155194000Y-98044000D01*
%TO.N,Net-(J5-Pin_5)*%
X157070659Y-101556314D02*
X157337773Y-101289200D01*
X157337773Y-101289200D02*
X158732000Y-101289200D01*
%TO.N,Net-(J5-Pin_3)*%
X156207000Y-100014200D02*
X156432000Y-99789200D01*
X154482800Y-102260400D02*
X154736800Y-102006400D01*
X154736800Y-102006400D02*
X155039800Y-102006400D01*
X156207000Y-100839200D02*
X156207000Y-100014200D01*
X155039800Y-102006400D02*
X156207000Y-100839200D01*
%TO.N,Net-(J5-Pin_4)*%
X155549600Y-102228844D02*
X157232000Y-100546444D01*
X155549600Y-102565200D02*
X155549600Y-102228844D01*
X157232000Y-100546444D02*
X157232000Y-99789200D01*
%TO.N,Net-(J6-Pin_2)*%
X151790400Y-105105200D02*
X154032000Y-107346800D01*
X154032000Y-107346800D02*
X154032000Y-108389200D01*
%TO.N,Net-(J6-Pin_4)*%
X152571436Y-101355436D02*
X154949600Y-103733600D01*
X155632000Y-107439200D02*
X155632000Y-108389200D01*
X154362000Y-106137728D02*
X154362000Y-106169200D01*
X154362000Y-106169200D02*
X155632000Y-107439200D01*
X152571436Y-101291234D02*
X152571436Y-101355436D01*
%TO.N,Net-(J6-Pin_1)*%
X151460200Y-104267000D02*
X151917400Y-104267000D01*
X154832000Y-107581114D02*
X154832000Y-108389200D01*
X153762000Y-106511114D02*
X154832000Y-107581114D01*
X153762000Y-106111600D02*
X153762000Y-106511114D01*
X151917400Y-104267000D02*
X153762000Y-106111600D01*
%TO.N,Net-(J6-Pin_3)*%
X156207000Y-107134200D02*
X156207000Y-107339200D01*
X156207000Y-107339200D02*
X156432000Y-107564200D01*
X152704800Y-103632000D02*
X156207000Y-107134200D01*
X152704800Y-103581200D02*
X152704800Y-103632000D01*
X156432000Y-107564200D02*
X156432000Y-108389200D01*
%TO.N,/INTA*%
X149091600Y-103689200D02*
X150132000Y-103689200D01*
X148234400Y-104546400D02*
X149091600Y-103689200D01*
X170929800Y-97586800D02*
X170320200Y-96977200D01*
X162083715Y-96621600D02*
X161677315Y-96215200D01*
X149082000Y-102870000D02*
X149082000Y-103464200D01*
X149307000Y-103689200D02*
X150132000Y-103689200D01*
X149082000Y-103464200D02*
X149307000Y-103689200D01*
X164526129Y-96621600D02*
X162083715Y-96621600D01*
X170320200Y-96977200D02*
X164881729Y-96977200D01*
X161677315Y-96215200D02*
X151180800Y-96215200D01*
X151180800Y-96215200D02*
X148640800Y-98755200D01*
X148640800Y-102870000D02*
X149082000Y-102870000D01*
X164881729Y-96977200D02*
X164526129Y-96621600D01*
X148640800Y-98755200D02*
X148640800Y-102870000D01*
%TO.N,/INTB*%
X141681200Y-117957600D02*
X143154400Y-116484400D01*
X143154400Y-116484400D02*
X144279600Y-116484400D01*
X165341800Y-94691200D02*
X166967400Y-96316800D01*
X166967400Y-96316800D02*
X168452800Y-96316800D01*
X149907000Y-104714200D02*
X150132000Y-104489200D01*
X148480865Y-105315335D02*
X149082000Y-104714200D01*
X148480865Y-105366735D02*
X148480865Y-105315335D01*
X149082000Y-104714200D02*
X149907000Y-104714200D01*
%TO.N,/RESET*%
X150418800Y-99278675D02*
X150418800Y-101002400D01*
X150418800Y-101002400D02*
X150132000Y-101289200D01*
X150953353Y-98744122D02*
X150418800Y-99278675D01*
X164390000Y-114336000D02*
X170890000Y-114336000D01*
%TO.N,+5V*%
X164490401Y-105156000D02*
X165658800Y-105156000D01*
X147218400Y-99060000D02*
X147218400Y-104952800D01*
X148354800Y-106089200D02*
X150132000Y-106089200D01*
X149240800Y-99060000D02*
X149316271Y-99060000D01*
X151348271Y-97028000D02*
X158699200Y-97028000D01*
X158699200Y-97028000D02*
X158699200Y-99364799D01*
X158699200Y-99364799D02*
X164490401Y-105156000D01*
X147218400Y-104952800D02*
X148354800Y-106089200D01*
X149316271Y-99060000D02*
X151348271Y-97028000D01*
%TD*%
M02*
