%TF.GenerationSoftware,KiCad,Pcbnew,8.0.7*%
%TF.CreationDate,2025-04-18T15:45:10+02:00*%
%TF.ProjectId,DataLogger,44617461-4c6f-4676-9765-722e6b696361,V1.0*%
%TF.SameCoordinates,Original*%
%TF.FileFunction,Copper,L2,Bot*%
%TF.FilePolarity,Positive*%
%FSLAX46Y46*%
G04 Gerber Fmt 4.6, Leading zero omitted, Abs format (unit mm)*
G04 Created by KiCad (PCBNEW 8.0.7) date 2025-04-18 15:45:10*
%MOMM*%
%LPD*%
G01*
G04 APERTURE LIST*
%TA.AperFunction,ComponentPad*%
%ADD10C,3.800000*%
%TD*%
%TA.AperFunction,ComponentPad*%
%ADD11R,2.800000X2.800000*%
%TD*%
%TA.AperFunction,ComponentPad*%
%ADD12C,2.800000*%
%TD*%
%TA.AperFunction,ComponentPad*%
%ADD13C,1.500000*%
%TD*%
%TA.AperFunction,ComponentPad*%
%ADD14R,1.210000X1.210000*%
%TD*%
%TA.AperFunction,ComponentPad*%
%ADD15C,1.210000*%
%TD*%
%TA.AperFunction,ComponentPad*%
%ADD16C,2.000000*%
%TD*%
%TA.AperFunction,ComponentPad*%
%ADD17R,1.408000X1.408000*%
%TD*%
%TA.AperFunction,ComponentPad*%
%ADD18C,1.408000*%
%TD*%
%TA.AperFunction,ViaPad*%
%ADD19C,0.600000*%
%TD*%
%TA.AperFunction,Conductor*%
%ADD20C,0.200000*%
%TD*%
G04 APERTURE END LIST*
D10*
%TO.P,H2,1*%
%TO.N,N/C*%
X185928000Y-136398000D03*
%TD*%
%TO.P,H1,1*%
%TO.N,N/C*%
X186182000Y-78892400D03*
%TD*%
D11*
%TO.P,J4,1,Pin_1*%
%TO.N,Net-(D2-A)*%
X128168400Y-99359800D03*
D12*
%TO.P,J4,2,Pin_2*%
%TO.N,GND*%
X128168400Y-104439800D03*
%TD*%
D11*
%TO.P,J6,1,Pin_1*%
%TO.N,Net-(J6-Pin_1)*%
X128828800Y-84632800D03*
D12*
%TO.P,J6,2,Pin_2*%
%TO.N,Net-(J6-Pin_2)*%
X133908800Y-84632800D03*
%TO.P,J6,3,Pin_3*%
%TO.N,Net-(J6-Pin_3)*%
X138988800Y-84632800D03*
%TO.P,J6,4,Pin_4*%
%TO.N,Net-(J6-Pin_4)*%
X144068800Y-84632800D03*
%TD*%
D11*
%TO.P,J1,1,Pin_1*%
%TO.N,GND*%
X164388800Y-130657600D03*
D12*
%TO.P,J1,2,Pin_2*%
%TO.N,/TX*%
X169468800Y-130657600D03*
%TO.P,J1,3,Pin_3*%
%TO.N,/RX*%
X174548800Y-130657600D03*
%TO.P,J1,4,Pin_4*%
%TO.N,/VCC*%
X179628800Y-130657600D03*
%TD*%
D13*
%TO.P,Y2,1,1*%
%TO.N,/XTAL2*%
X152032800Y-116484400D03*
%TO.P,Y2,2,2*%
%TO.N,/XTAL1*%
X156912800Y-116484400D03*
%TD*%
D14*
%TO.P,U3,1,X1*%
%TO.N,Net-(U3-X1)*%
X136339600Y-113944400D03*
D15*
%TO.P,U3,2,X2*%
%TO.N,Net-(U3-X2)*%
X136339600Y-116484400D03*
%TO.P,U3,3,#INTA*%
%TO.N,/INTA*%
X136339600Y-119024400D03*
%TO.P,U3,4,GND*%
%TO.N,GND*%
X136339600Y-121564400D03*
%TO.P,U3,5,SDA*%
%TO.N,/SDA*%
X144279600Y-121564400D03*
%TO.P,U3,6,SCL*%
%TO.N,/SCL*%
X144279600Y-119024400D03*
%TO.P,U3,7,SQW/#INTB*%
%TO.N,/INTB*%
X144279600Y-116484400D03*
%TO.P,U3,8,VCC*%
%TO.N,/VCC*%
X144279600Y-113944400D03*
%TD*%
D11*
%TO.P,J5,1,Pin_1*%
%TO.N,Net-(J5-Pin_1)*%
X129955700Y-130606800D03*
D12*
%TO.P,J5,2,Pin_2*%
%TO.N,Net-(J5-Pin_2)*%
X135035700Y-130606800D03*
%TO.P,J5,3,Pin_3*%
%TO.N,Net-(J5-Pin_3)*%
X140115700Y-130606800D03*
%TO.P,J5,4,Pin_4*%
%TO.N,Net-(J5-Pin_4)*%
X145195700Y-130606800D03*
%TO.P,J5,5,Pin_5*%
%TO.N,Net-(J5-Pin_5)*%
X150275700Y-130606800D03*
%TO.P,J5,6,Pin_6*%
%TO.N,Net-(J5-Pin_6)*%
X155355700Y-130606800D03*
%TD*%
D11*
%TO.P,J3,1,Pin_1*%
%TO.N,GND*%
X179019200Y-101295200D03*
D12*
%TO.P,J3,2,Pin_2*%
%TO.N,/SCL*%
X179019200Y-106375200D03*
%TO.P,J3,3,Pin_3*%
%TO.N,/SDA*%
X179019200Y-111455200D03*
%TO.P,J3,4,Pin_4*%
%TO.N,/VCC*%
X179019200Y-116535200D03*
%TD*%
D10*
%TO.P,H3,1*%
%TO.N,N/C*%
X121716800Y-78689200D03*
%TD*%
%TO.P,H4,1*%
%TO.N,N/C*%
X121818400Y-137363200D03*
%TD*%
D11*
%TO.P,J2,1,Pin_1*%
%TO.N,VCC*%
X153771600Y-84683600D03*
D12*
%TO.P,J2,2,Pin_2*%
%TO.N,MOSI*%
X158851600Y-84683600D03*
%TO.P,J2,3,Pin_3*%
%TO.N,MISO*%
X163931600Y-84683600D03*
%TO.P,J2,4,Pin_4*%
%TO.N,Net-(D1-A)*%
X169011600Y-84683600D03*
%TO.P,J2,5,Pin_5*%
%TO.N,NSS*%
X174091600Y-84683600D03*
%TO.P,J2,6,Pin_6*%
%TO.N,GND*%
X179171600Y-84683600D03*
%TD*%
D16*
%TO.P,SW1,1,1*%
%TO.N,/RESET*%
X164390000Y-114336000D03*
X170890000Y-114336000D03*
%TO.P,SW1,2,2*%
%TO.N,GND*%
X164390000Y-118836000D03*
X170890000Y-118836000D03*
%TD*%
D17*
%TO.P,SW2,1,A*%
%TO.N,/VCC*%
X165658800Y-107656000D03*
D18*
%TO.P,SW2,2,B*%
%TO.N,+5V*%
X165658800Y-105156000D03*
%TO.P,SW2,3,C*%
%TO.N,Power supply*%
X165658800Y-102656000D03*
%TD*%
D13*
%TO.P,Y1,1,1*%
%TO.N,Net-(U3-X2)*%
X128270000Y-121626800D03*
%TO.P,Y1,2,2*%
%TO.N,Net-(U3-X1)*%
X128270000Y-116746800D03*
%TD*%
D19*
%TO.N,GND*%
X161798000Y-89865200D03*
X134767600Y-97616000D03*
X134767600Y-100524000D03*
X173039100Y-107402200D03*
X140410100Y-109248000D03*
X140492000Y-94688300D03*
X134768800Y-106340000D03*
X141142200Y-105689400D03*
X172064400Y-103205500D03*
X141556800Y-97875800D03*
X135120900Y-103432000D03*
X158215600Y-91023000D03*
X161156800Y-103002600D03*
X161696400Y-101244400D03*
X148668900Y-106591600D03*
%TO.N,/XTAL2*%
X152073300Y-109736900D03*
X167328300Y-110078900D03*
X167614700Y-104207600D03*
%TO.N,Net-(U3-X2)*%
X138515100Y-90988900D03*
%TO.N,Net-(U3-X1)*%
X137698300Y-91800000D03*
%TO.N,SCK*%
X160343000Y-103188300D03*
X163220400Y-93533800D03*
%TO.N,Power supply*%
X165182500Y-91868500D03*
%TO.N,/VCC*%
X167005300Y-115477000D03*
%TO.N,/TX*%
X155041900Y-104367500D03*
%TO.N,/RX*%
X169732500Y-102958200D03*
%TO.N,NSS*%
X164302000Y-106827000D03*
%TO.N,MISO*%
X161960700Y-102620900D03*
%TO.N,MOSI*%
X161204000Y-106083500D03*
%TO.N,/SDA*%
X147761700Y-105673100D03*
X147560900Y-118533400D03*
%TO.N,/SCL*%
X144116300Y-106768500D03*
%TO.N,Net-(J5-Pin_6)*%
X156405900Y-102390900D03*
%TO.N,Net-(J5-Pin_2)*%
X151733500Y-98526700D03*
%TO.N,Net-(J5-Pin_1)*%
X153923300Y-127063300D03*
X154058100Y-105085700D03*
%TO.N,Net-(J5-Pin_5)*%
X152247600Y-105511600D03*
%TO.N,Net-(J5-Pin_3)*%
X155437300Y-101163700D03*
%TO.N,Net-(J5-Pin_4)*%
X155829300Y-98363000D03*
%TO.N,Net-(J6-Pin_2)*%
X153621850Y-107083750D03*
X155747600Y-86930100D03*
%TO.N,Net-(J6-Pin_4)*%
X158592800Y-109120200D03*
X158399000Y-86760800D03*
%TO.N,Net-(J6-Pin_1)*%
X159391700Y-88892000D03*
X161899600Y-109120200D03*
%TO.N,Net-(J6-Pin_3)*%
X155819900Y-106914200D03*
X155958100Y-85984000D03*
%TO.N,/INTA*%
X148801000Y-102860400D03*
%TO.N,/INTB*%
X146846800Y-103788500D03*
%TO.N,/RESET*%
X163549100Y-101495500D03*
%TD*%
D20*
%TO.N,GND*%
X173126400Y-107489500D02*
X173039100Y-107402200D01*
X163090000Y-117536000D02*
X164390000Y-118836000D01*
X163820400Y-91887600D02*
X161798000Y-89865200D01*
X161156800Y-103002600D02*
X163090000Y-104935800D01*
X163820400Y-99120400D02*
X163820400Y-91887600D01*
X163090000Y-104935800D02*
X163090000Y-117536000D01*
X173126400Y-116599600D02*
X173126400Y-107489500D01*
X170890000Y-118836000D02*
X173126400Y-116599600D01*
X161696400Y-101244400D02*
X163820400Y-99120400D01*
%TO.N,/XTAL2*%
X152073300Y-116443900D02*
X152073300Y-109736900D01*
X167614700Y-104207600D02*
X167614700Y-109792500D01*
X167614700Y-109792500D02*
X167328300Y-110078900D01*
X152032800Y-116484400D02*
X152073300Y-116443900D01*
%TO.N,Net-(U3-X2)*%
X136339600Y-116484400D02*
X138515100Y-114308900D01*
X138515100Y-114308900D02*
X138515100Y-90988900D01*
%TO.N,Net-(U3-X1)*%
X136339600Y-93158700D02*
X137698300Y-91800000D01*
X136339600Y-113944400D02*
X136339600Y-93158700D01*
%TO.N,SCK*%
X163220400Y-93533800D02*
X160343000Y-96411200D01*
X160343000Y-96411200D02*
X160343000Y-103188300D01*
%TO.N,Power supply*%
X165658800Y-92344800D02*
X165658800Y-102656000D01*
X165182500Y-91868500D02*
X165658800Y-92344800D01*
%TO.N,/VCC*%
X165658800Y-108661700D02*
X165658800Y-109260200D01*
X165658800Y-107656000D02*
X165658800Y-108661700D01*
X179628800Y-130657600D02*
X179628800Y-117144800D01*
X167005300Y-110606700D02*
X167005300Y-115477000D01*
X179628800Y-117144800D02*
X179019200Y-116535200D01*
X165658800Y-109260200D02*
X167005300Y-110606700D01*
%TO.N,/TX*%
X155116300Y-104441900D02*
X155041900Y-104367500D01*
X169468800Y-130657600D02*
X155116300Y-116305100D01*
X155116300Y-116305100D02*
X155116300Y-104441900D01*
%TO.N,/RX*%
X169732500Y-102958200D02*
X174548800Y-107774500D01*
X174548800Y-107774500D02*
X174548800Y-130657600D01*
%TO.N,NSS*%
X174091600Y-84683600D02*
X174091600Y-95691400D01*
X174091600Y-95691400D02*
X165770200Y-104012800D01*
X165311300Y-104012800D02*
X164302000Y-105022100D01*
X164302000Y-105022100D02*
X164302000Y-106827000D01*
X165770200Y-104012800D02*
X165311300Y-104012800D01*
%TO.N,MISO*%
X163931600Y-84683600D02*
X164439600Y-85191600D01*
X161960700Y-102233100D02*
X161960700Y-102620900D01*
X164439600Y-99754200D02*
X161960700Y-102233100D01*
X164439600Y-85191600D02*
X164439600Y-99754200D01*
%TO.N,MOSI*%
X158790000Y-88642900D02*
X158790000Y-89141100D01*
X158790000Y-89141100D02*
X159003400Y-89354500D01*
X158851600Y-84683600D02*
X159004900Y-84836900D01*
X159004900Y-84836900D02*
X159004900Y-88428000D01*
X159003400Y-103882900D02*
X161204000Y-106083500D01*
X159004900Y-88428000D02*
X158790000Y-88642900D01*
X159003400Y-89354500D02*
X159003400Y-103882900D01*
%TO.N,/SDA*%
X147560900Y-118533400D02*
X147761700Y-118332600D01*
X144279600Y-121564400D02*
X147310600Y-118533400D01*
X147761700Y-118332600D02*
X147761700Y-105673100D01*
X147310600Y-118533400D02*
X147560900Y-118533400D01*
%TO.N,/SCL*%
X143368600Y-118113400D02*
X143368600Y-107516200D01*
X143368600Y-107516200D02*
X144116300Y-106768500D01*
X144279600Y-119024400D02*
X143368600Y-118113400D01*
%TO.N,Net-(J5-Pin_6)*%
X156167600Y-102391000D02*
X156405900Y-102391000D01*
X154293100Y-104469800D02*
X154293100Y-104265500D01*
X156405900Y-102391000D02*
X156405900Y-102390900D01*
X154714600Y-104891300D02*
X154293100Y-104469800D01*
X155355700Y-130606800D02*
X154714600Y-129965700D01*
X154293100Y-104265500D02*
X156167600Y-102391000D01*
X154714600Y-129965700D02*
X154714600Y-104891300D01*
%TO.N,Net-(J5-Pin_2)*%
X151733500Y-100850500D02*
X147160000Y-105424000D01*
X144254900Y-120294400D02*
X135035700Y-129513600D01*
X147160000Y-117505500D02*
X144371100Y-120294400D01*
X144371100Y-120294400D02*
X144254900Y-120294400D01*
X147160000Y-105424000D02*
X147160000Y-117505500D01*
X135035700Y-129513600D02*
X135035700Y-130606800D01*
X151733500Y-98526700D02*
X151733500Y-100850500D01*
%TO.N,Net-(J5-Pin_1)*%
X154312900Y-105827300D02*
X153923300Y-105437700D01*
X153923300Y-127063300D02*
X154312900Y-126673700D01*
X154312900Y-126673700D02*
X154312900Y-105827300D01*
X153923300Y-105437700D02*
X153923300Y-105220500D01*
X153923300Y-105220500D02*
X154058100Y-105085700D01*
%TO.N,Net-(J5-Pin_5)*%
X150805600Y-130076900D02*
X150275700Y-130606800D01*
X150805600Y-106953600D02*
X150805600Y-130076900D01*
X152247600Y-105511600D02*
X150805600Y-106953600D01*
%TO.N,Net-(J5-Pin_3)*%
X150403900Y-106197100D02*
X150403900Y-127810600D01*
X141839700Y-132330800D02*
X140115700Y-130606800D01*
X145883700Y-132330800D02*
X141839700Y-132330800D01*
X155437300Y-101163700D02*
X150403900Y-106197100D01*
X150403900Y-127810600D02*
X145883700Y-132330800D01*
%TO.N,Net-(J5-Pin_4)*%
X149710900Y-126091600D02*
X149710900Y-104481400D01*
X145195700Y-130606800D02*
X149710900Y-126091600D01*
X149710900Y-104481400D02*
X155829300Y-98363000D01*
%TO.N,Net-(J6-Pin_2)*%
X156482300Y-100973700D02*
X156482300Y-87664800D01*
X153621850Y-107083750D02*
X153438200Y-106900100D01*
X153438200Y-106900100D02*
X153438200Y-104017800D01*
X153438200Y-104017800D02*
X156482300Y-100973700D01*
X156482300Y-87664800D02*
X155747600Y-86930100D01*
%TO.N,Net-(J6-Pin_4)*%
X158399000Y-86760800D02*
X157572600Y-87587200D01*
X157572600Y-108100000D02*
X158592800Y-109120200D01*
X157572600Y-87587200D02*
X157572600Y-108100000D01*
%TO.N,Net-(J6-Pin_1)*%
X161899600Y-105646500D02*
X159405100Y-103152000D01*
X159405100Y-103152000D02*
X159405100Y-88905400D01*
X161899600Y-109120200D02*
X161899600Y-105646500D01*
X159405100Y-88905400D02*
X159391700Y-88892000D01*
%TO.N,Net-(J6-Pin_3)*%
X157019400Y-87045300D02*
X157019400Y-105714700D01*
X157019400Y-105714700D02*
X155819900Y-106914200D01*
X155958100Y-85984000D02*
X157019400Y-87045300D01*
%TO.N,/INTA*%
X146870600Y-102860400D02*
X142118100Y-107612900D01*
X142118100Y-107612900D02*
X142118100Y-113245900D01*
X142118100Y-113245900D02*
X136339600Y-119024400D01*
X148801000Y-102860400D02*
X146870600Y-102860400D01*
%TO.N,/INTB*%
X146758300Y-103877000D02*
X146758300Y-114005700D01*
X146758300Y-114005700D02*
X144279600Y-116484400D01*
X146846800Y-103788500D02*
X146758300Y-103877000D01*
%TO.N,/RESET*%
X163630900Y-101577300D02*
X163549100Y-101495500D01*
X164390000Y-114336000D02*
X163630900Y-113576900D01*
X163630900Y-113576900D02*
X163630900Y-101577300D01*
%TD*%
%TA.AperFunction,Conductor*%
%TO.N,GND*%
G36*
X163783199Y-94211187D02*
G01*
X163828414Y-94264455D01*
X163839100Y-94314814D01*
X163839100Y-99454102D01*
X163819415Y-99521141D01*
X163802781Y-99541783D01*
X161480181Y-101864382D01*
X161480179Y-101864385D01*
X161442281Y-101930028D01*
X161442280Y-101930029D01*
X161401122Y-102001317D01*
X161401120Y-102001320D01*
X161392487Y-102033540D01*
X161360396Y-102089125D01*
X161330884Y-102118636D01*
X161234911Y-102271377D01*
X161184542Y-102415324D01*
X161143820Y-102472100D01*
X161078867Y-102497847D01*
X161010305Y-102484391D01*
X160959903Y-102436003D01*
X160943500Y-102374369D01*
X160943500Y-96711296D01*
X160963185Y-96644257D01*
X160979814Y-96623620D01*
X163238935Y-94364498D01*
X163300256Y-94331015D01*
X163312711Y-94328963D01*
X163399655Y-94319168D01*
X163569922Y-94259589D01*
X163649127Y-94209820D01*
X163716364Y-94190820D01*
X163783199Y-94211187D01*
G37*
%TD.AperFunction*%
%TA.AperFunction,Conductor*%
G36*
X127696367Y-79081923D02*
G01*
X127763125Y-79102535D01*
X127808144Y-79155968D01*
X127818642Y-79204876D01*
X127820295Y-79402920D01*
X127820299Y-79403955D01*
X127820299Y-79441022D01*
X127820234Y-79445051D01*
X127818421Y-79500792D01*
X127819220Y-79508876D01*
X127818666Y-79508930D01*
X127818685Y-79509103D01*
X127819238Y-79509031D01*
X127820299Y-79517095D01*
X127834719Y-79570912D01*
X127835698Y-79574819D01*
X127848371Y-79629119D01*
X127851237Y-79636727D01*
X127850716Y-79636922D01*
X127850784Y-79637093D01*
X127851298Y-79636881D01*
X127854406Y-79644384D01*
X127882273Y-79692652D01*
X127884230Y-79696173D01*
X127910521Y-79745333D01*
X127915256Y-79751937D01*
X127914804Y-79752260D01*
X127914910Y-79752402D01*
X127915351Y-79752065D01*
X127920300Y-79758515D01*
X127959702Y-79797917D01*
X127962506Y-79800813D01*
X128000628Y-79841498D01*
X128006911Y-79846652D01*
X128006557Y-79847082D01*
X128006699Y-79847195D01*
X128007039Y-79846753D01*
X128013482Y-79851697D01*
X128013485Y-79851700D01*
X128013488Y-79851701D01*
X128013491Y-79851704D01*
X128061762Y-79879574D01*
X128065217Y-79881644D01*
X128112555Y-79911066D01*
X128119964Y-79914421D01*
X128119733Y-79914929D01*
X128119885Y-79914995D01*
X128120099Y-79914480D01*
X128127609Y-79917590D01*
X128127610Y-79917590D01*
X128127613Y-79917592D01*
X128181492Y-79932028D01*
X128185301Y-79933115D01*
X128238674Y-79949294D01*
X128238676Y-79949294D01*
X128246698Y-79950617D01*
X128246607Y-79951168D01*
X128246773Y-79951192D01*
X128246846Y-79950639D01*
X128254905Y-79951700D01*
X128254907Y-79951700D01*
X128310664Y-79951700D01*
X128314693Y-79951765D01*
X128331670Y-79952318D01*
X128370385Y-79953577D01*
X128370385Y-79953576D01*
X128370388Y-79953577D01*
X128370390Y-79953576D01*
X128378474Y-79952779D01*
X128378528Y-79953332D01*
X128392709Y-79951700D01*
X180658914Y-79951700D01*
X180658916Y-79951700D01*
X180786210Y-79917592D01*
X180900338Y-79851700D01*
X180900342Y-79851695D01*
X180906784Y-79846753D01*
X180908885Y-79849492D01*
X180956144Y-79823608D01*
X180984373Y-79820752D01*
X183519721Y-79855904D01*
X183586479Y-79876516D01*
X183631498Y-79929949D01*
X183642000Y-79979892D01*
X183642000Y-135645764D01*
X183635931Y-135684082D01*
X183598320Y-135799835D01*
X183541719Y-136096546D01*
X183541718Y-136096553D01*
X183522754Y-136397994D01*
X183522754Y-136398005D01*
X183541718Y-136699446D01*
X183541719Y-136699453D01*
X183541720Y-136699457D01*
X183598319Y-136996160D01*
X183635931Y-137111919D01*
X183642000Y-137150234D01*
X183642000Y-137389095D01*
X183622315Y-137456134D01*
X183569511Y-137501889D01*
X183515520Y-137513070D01*
X180798342Y-137458725D01*
X180731710Y-137437704D01*
X180687020Y-137383996D01*
X180677746Y-137349863D01*
X180676338Y-137338393D01*
X180676336Y-137338387D01*
X180665997Y-137312798D01*
X180661182Y-137298400D01*
X180657176Y-137283430D01*
X180654054Y-137271764D01*
X180642895Y-137252423D01*
X180635334Y-137236912D01*
X180626969Y-137216209D01*
X180626968Y-137216207D01*
X180626968Y-137216206D01*
X180610354Y-137194160D01*
X180601982Y-137181506D01*
X180588199Y-137157615D01*
X180572410Y-137141816D01*
X180561099Y-137128799D01*
X180550117Y-137114226D01*
X180547656Y-137110960D01*
X180525902Y-137093965D01*
X180514549Y-137083918D01*
X180495043Y-137064399D01*
X180475699Y-137053222D01*
X180461404Y-137043576D01*
X180443807Y-137029829D01*
X180443808Y-137029829D01*
X180443806Y-137029828D01*
X180443803Y-137029827D01*
X180443802Y-137029826D01*
X180418409Y-137019047D01*
X180404831Y-137012275D01*
X180380936Y-136998470D01*
X180359368Y-136992683D01*
X180343058Y-136987064D01*
X180322505Y-136978340D01*
X180322493Y-136978337D01*
X180295179Y-136974499D01*
X180280306Y-136971471D01*
X180253653Y-136964321D01*
X180253642Y-136964320D01*
X180231320Y-136964313D01*
X180214115Y-136963107D01*
X180191997Y-136960000D01*
X180191992Y-136959999D01*
X180164604Y-136963362D01*
X180149456Y-136964286D01*
X155684581Y-136956427D01*
X155682141Y-136956402D01*
X125343089Y-136349621D01*
X125276457Y-136328600D01*
X125231767Y-136274892D01*
X125221570Y-136226088D01*
X125196509Y-129158935D01*
X128055200Y-129158935D01*
X128055200Y-132054670D01*
X128055201Y-132054676D01*
X128061608Y-132114283D01*
X128111902Y-132249128D01*
X128111906Y-132249135D01*
X128198152Y-132364344D01*
X128198155Y-132364347D01*
X128313364Y-132450593D01*
X128313371Y-132450597D01*
X128448217Y-132500891D01*
X128448216Y-132500891D01*
X128455144Y-132501635D01*
X128507827Y-132507300D01*
X131403572Y-132507299D01*
X131463183Y-132500891D01*
X131598031Y-132450596D01*
X131713246Y-132364346D01*
X131799496Y-132249131D01*
X131849791Y-132114283D01*
X131856200Y-132054673D01*
X131856199Y-130606798D01*
X133130345Y-130606798D01*
X133130345Y-130606801D01*
X133149739Y-130877960D01*
X133149740Y-130877967D01*
X133191964Y-131072068D01*
X133207525Y-131143601D01*
X133273093Y-131319394D01*
X133302530Y-131398319D01*
X133432809Y-131636907D01*
X133432810Y-131636908D01*
X133432813Y-131636913D01*
X133595729Y-131854542D01*
X133595733Y-131854546D01*
X133595738Y-131854552D01*
X133787947Y-132046761D01*
X133787953Y-132046766D01*
X133787958Y-132046771D01*
X134005587Y-132209687D01*
X134005591Y-132209689D01*
X134005592Y-132209690D01*
X134244181Y-132339969D01*
X134244180Y-132339969D01*
X134244184Y-132339970D01*
X134244187Y-132339972D01*
X134498899Y-132434975D01*
X134764540Y-132492761D01*
X135016305Y-132510767D01*
X135035699Y-132512155D01*
X135035700Y-132512155D01*
X135035701Y-132512155D01*
X135053800Y-132510860D01*
X135306860Y-132492761D01*
X135572501Y-132434975D01*
X135827213Y-132339972D01*
X135827217Y-132339969D01*
X135827219Y-132339969D01*
X135993582Y-132249128D01*
X136065813Y-132209687D01*
X136283442Y-132046771D01*
X136475671Y-131854542D01*
X136638587Y-131636913D01*
X136715371Y-131496294D01*
X136768869Y-131398319D01*
X136768869Y-131398317D01*
X136768872Y-131398313D01*
X136863875Y-131143601D01*
X136921661Y-130877960D01*
X136941055Y-130606800D01*
X136921661Y-130335640D01*
X136863875Y-130069999D01*
X136768872Y-129815287D01*
X136768870Y-129815284D01*
X136768869Y-129815280D01*
X136638590Y-129576692D01*
X136638589Y-129576691D01*
X136638587Y-129576687D01*
X136475671Y-129359058D01*
X136475666Y-129359053D01*
X136475661Y-129359047D01*
X136345255Y-129228641D01*
X136311770Y-129167318D01*
X136316754Y-129097626D01*
X136345255Y-129053279D01*
X139607032Y-125791502D01*
X143197902Y-122200632D01*
X143259223Y-122167149D01*
X143328915Y-122172133D01*
X143384535Y-122213588D01*
X143415384Y-122254438D01*
X143459126Y-122312361D01*
X143610533Y-122450387D01*
X143784725Y-122558243D01*
X143975769Y-122632253D01*
X144177160Y-122669900D01*
X144177162Y-122669900D01*
X144382038Y-122669900D01*
X144382040Y-122669900D01*
X144583431Y-122632253D01*
X144774475Y-122558243D01*
X144948667Y-122450387D01*
X145100074Y-122312361D01*
X145223542Y-122148864D01*
X145314864Y-121965464D01*
X145370932Y-121768405D01*
X145389836Y-121564400D01*
X145373072Y-121383492D01*
X145386487Y-121314924D01*
X145408859Y-121284374D01*
X147332969Y-119360264D01*
X147394290Y-119326781D01*
X147434532Y-119324727D01*
X147560897Y-119338965D01*
X147560900Y-119338965D01*
X147560904Y-119338965D01*
X147740149Y-119318769D01*
X147740152Y-119318768D01*
X147740155Y-119318768D01*
X147910422Y-119259189D01*
X148063162Y-119163216D01*
X148190716Y-119035662D01*
X148286689Y-118882922D01*
X148346268Y-118712655D01*
X148365504Y-118541934D01*
X148366465Y-118533402D01*
X148366465Y-118533399D01*
X148360686Y-118482116D01*
X148358172Y-118459806D01*
X148361178Y-118419724D01*
X148361139Y-118419719D01*
X148361230Y-118419022D01*
X148361621Y-118413818D01*
X148362200Y-118411658D01*
X148362200Y-106255512D01*
X148381885Y-106188473D01*
X148389255Y-106178197D01*
X148391510Y-106175367D01*
X148391516Y-106175362D01*
X148487489Y-106022622D01*
X148547068Y-105852355D01*
X148548640Y-105838406D01*
X148567265Y-105673103D01*
X148567265Y-105673096D01*
X148547069Y-105493850D01*
X148547068Y-105493845D01*
X148487488Y-105323575D01*
X148419400Y-105215215D01*
X148394301Y-105175270D01*
X148375301Y-105108036D01*
X148395668Y-105041201D01*
X148411609Y-105021624D01*
X148898720Y-104534514D01*
X148960042Y-104501030D01*
X149029734Y-104506014D01*
X149085667Y-104547886D01*
X149110084Y-104613350D01*
X149110400Y-104622196D01*
X149110400Y-125791502D01*
X149090715Y-125858541D01*
X149074081Y-125879183D01*
X146110877Y-128842386D01*
X146049554Y-128875871D01*
X145979864Y-128870887D01*
X145732501Y-128778625D01*
X145732494Y-128778623D01*
X145732493Y-128778623D01*
X145466867Y-128720840D01*
X145466860Y-128720839D01*
X145195701Y-128701445D01*
X145195699Y-128701445D01*
X144924539Y-128720839D01*
X144924532Y-128720840D01*
X144658906Y-128778623D01*
X144658902Y-128778624D01*
X144658899Y-128778625D01*
X144563388Y-128814249D01*
X144404180Y-128873630D01*
X144165592Y-129003909D01*
X144165591Y-129003910D01*
X143947959Y-129166828D01*
X143947947Y-129166838D01*
X143755738Y-129359047D01*
X143755728Y-129359059D01*
X143592810Y-129576691D01*
X143592809Y-129576692D01*
X143462530Y-129815280D01*
X143440840Y-129873435D01*
X143367525Y-130069999D01*
X143367524Y-130070002D01*
X143367523Y-130070006D01*
X143309740Y-130335632D01*
X143309739Y-130335639D01*
X143290345Y-130606798D01*
X143290345Y-130606801D01*
X143309739Y-130877960D01*
X143309740Y-130877967D01*
X143351964Y-131072068D01*
X143367525Y-131143601D01*
X143433093Y-131319394D01*
X143462530Y-131398319D01*
X143543647Y-131546873D01*
X143558499Y-131615146D01*
X143534082Y-131680611D01*
X143478148Y-131722482D01*
X143434815Y-131730300D01*
X142139797Y-131730300D01*
X142072758Y-131710615D01*
X142052116Y-131693981D01*
X141880113Y-131521978D01*
X141846628Y-131460655D01*
X141851611Y-131390967D01*
X141943875Y-131143601D01*
X142001661Y-130877960D01*
X142021055Y-130606800D01*
X142001661Y-130335640D01*
X141943875Y-130069999D01*
X141848872Y-129815287D01*
X141848870Y-129815284D01*
X141848869Y-129815280D01*
X141718590Y-129576692D01*
X141718589Y-129576691D01*
X141718587Y-129576687D01*
X141555671Y-129359058D01*
X141555666Y-129359053D01*
X141555661Y-129359047D01*
X141363452Y-129166838D01*
X141363446Y-129166833D01*
X141363442Y-129166829D01*
X141145813Y-129003913D01*
X141145808Y-129003910D01*
X141145807Y-129003909D01*
X140907218Y-128873630D01*
X140907219Y-128873630D01*
X140852398Y-128853183D01*
X140652501Y-128778625D01*
X140652494Y-128778623D01*
X140652493Y-128778623D01*
X140386867Y-128720840D01*
X140386860Y-128720839D01*
X140115701Y-128701445D01*
X140115699Y-128701445D01*
X139844539Y-128720839D01*
X139844532Y-128720840D01*
X139578906Y-128778623D01*
X139578902Y-128778624D01*
X139578899Y-128778625D01*
X139483388Y-128814249D01*
X139324180Y-128873630D01*
X139085592Y-129003909D01*
X139085591Y-129003910D01*
X138867959Y-129166828D01*
X138867947Y-129166838D01*
X138675738Y-129359047D01*
X138675728Y-129359059D01*
X138512810Y-129576691D01*
X138512809Y-129576692D01*
X138382530Y-129815280D01*
X138360840Y-129873435D01*
X138287525Y-130069999D01*
X138287524Y-130070002D01*
X138287523Y-130070006D01*
X138229740Y-130335632D01*
X138229739Y-130335639D01*
X138210345Y-130606798D01*
X138210345Y-130606801D01*
X138229739Y-130877960D01*
X138229740Y-130877967D01*
X138271964Y-131072068D01*
X138287525Y-131143601D01*
X138353093Y-131319394D01*
X138382530Y-131398319D01*
X138512809Y-131636907D01*
X138512810Y-131636908D01*
X138512813Y-131636913D01*
X138675729Y-131854542D01*
X138675733Y-131854546D01*
X138675738Y-131854552D01*
X138867947Y-132046761D01*
X138867953Y-132046766D01*
X138867958Y-132046771D01*
X139085587Y-132209687D01*
X139085591Y-132209689D01*
X139085592Y-132209690D01*
X139324181Y-132339969D01*
X139324180Y-132339969D01*
X139324184Y-132339970D01*
X139324187Y-132339972D01*
X139578899Y-132434975D01*
X139844540Y-132492761D01*
X140096305Y-132510767D01*
X140115699Y-132512155D01*
X140115700Y-132512155D01*
X140115701Y-132512155D01*
X140133800Y-132510860D01*
X140386860Y-132492761D01*
X140652501Y-132434975D01*
X140899867Y-132342711D01*
X140969555Y-132337728D01*
X141030875Y-132371210D01*
X141030878Y-132371213D01*
X141354839Y-132695174D01*
X141354849Y-132695185D01*
X141359179Y-132699515D01*
X141359180Y-132699516D01*
X141470984Y-132811320D01*
X141557795Y-132861439D01*
X141557797Y-132861441D01*
X141595851Y-132883411D01*
X141607915Y-132890377D01*
X141760643Y-132931300D01*
X145797031Y-132931300D01*
X145797047Y-132931301D01*
X145804643Y-132931301D01*
X145962754Y-132931301D01*
X145962757Y-132931301D01*
X146115485Y-132890377D01*
X146165604Y-132861439D01*
X146252416Y-132811320D01*
X146364220Y-132699516D01*
X146364220Y-132699514D01*
X146374428Y-132689307D01*
X146374430Y-132689304D01*
X148192722Y-130871011D01*
X148254043Y-130837528D01*
X148323735Y-130842512D01*
X148379668Y-130884384D01*
X148401567Y-130932336D01*
X148431964Y-131072068D01*
X148447525Y-131143601D01*
X148513093Y-131319394D01*
X148542530Y-131398319D01*
X148672809Y-131636907D01*
X148672810Y-131636908D01*
X148672813Y-131636913D01*
X148835729Y-131854542D01*
X148835733Y-131854546D01*
X148835738Y-131854552D01*
X149027947Y-132046761D01*
X149027953Y-132046766D01*
X149027958Y-132046771D01*
X149245587Y-132209687D01*
X149245591Y-132209689D01*
X149245592Y-132209690D01*
X149484181Y-132339969D01*
X149484180Y-132339969D01*
X149484184Y-132339970D01*
X149484187Y-132339972D01*
X149738899Y-132434975D01*
X150004540Y-132492761D01*
X150256305Y-132510767D01*
X150275699Y-132512155D01*
X150275700Y-132512155D01*
X150275701Y-132512155D01*
X150293800Y-132510860D01*
X150546860Y-132492761D01*
X150812501Y-132434975D01*
X151067213Y-132339972D01*
X151067217Y-132339969D01*
X151067219Y-132339969D01*
X151233582Y-132249128D01*
X151305813Y-132209687D01*
X151523442Y-132046771D01*
X151715671Y-131854542D01*
X151878587Y-131636913D01*
X151955371Y-131496294D01*
X152008869Y-131398319D01*
X152008869Y-131398317D01*
X152008872Y-131398313D01*
X152103875Y-131143601D01*
X152161661Y-130877960D01*
X152181055Y-130606800D01*
X152161661Y-130335640D01*
X152103875Y-130069999D01*
X152008872Y-129815287D01*
X152008870Y-129815284D01*
X152008869Y-129815280D01*
X151878590Y-129576692D01*
X151878589Y-129576691D01*
X151878587Y-129576687D01*
X151715671Y-129359058D01*
X151715666Y-129359053D01*
X151715661Y-129359047D01*
X151523452Y-129166838D01*
X151523440Y-129166827D01*
X151455789Y-129116184D01*
X151413918Y-129060250D01*
X151406100Y-129016917D01*
X151406100Y-117766580D01*
X151425785Y-117699541D01*
X151478589Y-117653786D01*
X151547747Y-117643842D01*
X151582502Y-117654197D01*
X151603470Y-117663975D01*
X151814823Y-117720607D01*
X151997726Y-117736608D01*
X152032798Y-117739677D01*
X152032800Y-117739677D01*
X152032802Y-117739677D01*
X152063845Y-117736961D01*
X152250777Y-117720607D01*
X152462130Y-117663975D01*
X152660439Y-117571502D01*
X152839677Y-117445998D01*
X152994398Y-117291277D01*
X153119902Y-117112039D01*
X153212375Y-116913730D01*
X153269007Y-116702377D01*
X153288077Y-116484400D01*
X153269007Y-116266423D01*
X153212375Y-116055070D01*
X153119902Y-115856762D01*
X153119900Y-115856759D01*
X153119899Y-115856757D01*
X152994399Y-115677524D01*
X152935880Y-115619005D01*
X152839677Y-115522802D01*
X152839672Y-115522799D01*
X152839669Y-115522796D01*
X152726676Y-115443676D01*
X152683051Y-115389099D01*
X152673800Y-115342102D01*
X152673800Y-110319312D01*
X152693485Y-110252273D01*
X152700855Y-110241997D01*
X152703110Y-110239167D01*
X152703116Y-110239162D01*
X152799089Y-110086422D01*
X152858668Y-109916155D01*
X152863693Y-109871555D01*
X152878865Y-109736903D01*
X152878865Y-109736896D01*
X152858669Y-109557650D01*
X152858668Y-109557645D01*
X152843271Y-109513643D01*
X152799089Y-109387378D01*
X152703116Y-109234638D01*
X152575562Y-109107084D01*
X152520013Y-109072180D01*
X152422823Y-109011111D01*
X152252554Y-108951531D01*
X152252549Y-108951530D01*
X152073304Y-108931335D01*
X152073296Y-108931335D01*
X151894050Y-108951530D01*
X151894045Y-108951531D01*
X151723776Y-109011111D01*
X151596072Y-109091354D01*
X151528835Y-109110354D01*
X151462000Y-109089986D01*
X151416786Y-109036718D01*
X151406100Y-108986360D01*
X151406100Y-107253696D01*
X151425785Y-107186657D01*
X151442415Y-107166019D01*
X152266135Y-106342298D01*
X152327456Y-106308815D01*
X152339911Y-106306763D01*
X152426855Y-106296968D01*
X152597122Y-106237389D01*
X152647727Y-106205592D01*
X152714964Y-106186591D01*
X152781799Y-106206958D01*
X152827014Y-106260226D01*
X152837700Y-106310585D01*
X152837700Y-106813430D01*
X152837699Y-106813448D01*
X152837699Y-106886727D01*
X152836919Y-106900610D01*
X152816285Y-107083746D01*
X152816285Y-107083753D01*
X152836480Y-107262999D01*
X152836481Y-107263004D01*
X152896061Y-107433273D01*
X152981042Y-107568519D01*
X152992034Y-107586012D01*
X153119588Y-107713566D01*
X153272328Y-107809539D01*
X153320114Y-107826260D01*
X153442595Y-107869118D01*
X153442599Y-107869119D01*
X153531295Y-107879112D01*
X153602284Y-107887110D01*
X153666697Y-107914176D01*
X153706252Y-107971771D01*
X153712400Y-108010330D01*
X153712400Y-126201021D01*
X153692715Y-126268060D01*
X153639911Y-126313815D01*
X153629356Y-126318062D01*
X153573779Y-126337509D01*
X153421037Y-126433484D01*
X153293484Y-126561037D01*
X153197511Y-126713776D01*
X153137931Y-126884045D01*
X153137930Y-126884050D01*
X153117735Y-127063296D01*
X153117735Y-127063303D01*
X153137930Y-127242549D01*
X153137931Y-127242554D01*
X153197511Y-127412823D01*
X153258887Y-127510502D01*
X153293484Y-127565562D01*
X153421038Y-127693116D01*
X153573778Y-127789089D01*
X153732499Y-127844628D01*
X153744045Y-127848668D01*
X153744050Y-127848669D01*
X153923296Y-127868865D01*
X153923300Y-127868865D01*
X153923303Y-127868865D01*
X153976216Y-127862903D01*
X154045038Y-127874957D01*
X154096418Y-127922306D01*
X154114100Y-127986123D01*
X154114100Y-129109324D01*
X154094415Y-129176363D01*
X154077781Y-129197005D01*
X153915738Y-129359047D01*
X153915728Y-129359059D01*
X153752810Y-129576691D01*
X153752809Y-129576692D01*
X153622530Y-129815280D01*
X153600840Y-129873435D01*
X153527525Y-130069999D01*
X153527524Y-130070002D01*
X153527523Y-130070006D01*
X153469740Y-130335632D01*
X153469739Y-130335639D01*
X153450345Y-130606798D01*
X153450345Y-130606801D01*
X153469739Y-130877960D01*
X153469740Y-130877967D01*
X153511964Y-131072068D01*
X153527525Y-131143601D01*
X153593093Y-131319394D01*
X153622530Y-131398319D01*
X153752809Y-131636907D01*
X153752810Y-131636908D01*
X153752813Y-131636913D01*
X153915729Y-131854542D01*
X153915733Y-131854546D01*
X153915738Y-131854552D01*
X154107947Y-132046761D01*
X154107953Y-132046766D01*
X154107958Y-132046771D01*
X154325587Y-132209687D01*
X154325591Y-132209689D01*
X154325592Y-132209690D01*
X154564181Y-132339969D01*
X154564180Y-132339969D01*
X154564184Y-132339970D01*
X154564187Y-132339972D01*
X154818899Y-132434975D01*
X155084540Y-132492761D01*
X155336305Y-132510767D01*
X155355699Y-132512155D01*
X155355700Y-132512155D01*
X155355701Y-132512155D01*
X155373800Y-132510860D01*
X155626860Y-132492761D01*
X155892501Y-132434975D01*
X156147213Y-132339972D01*
X156147217Y-132339969D01*
X156147219Y-132339969D01*
X156313582Y-132249128D01*
X156385813Y-132209687D01*
X156603442Y-132046771D01*
X156795671Y-131854542D01*
X156958587Y-131636913D01*
X157035371Y-131496294D01*
X157088869Y-131398319D01*
X157088869Y-131398317D01*
X157088872Y-131398313D01*
X157183875Y-131143601D01*
X157241661Y-130877960D01*
X157261055Y-130606800D01*
X157241661Y-130335640D01*
X157183875Y-130069999D01*
X157088872Y-129815287D01*
X157088870Y-129815284D01*
X157088869Y-129815280D01*
X156958590Y-129576692D01*
X156958589Y-129576691D01*
X156958587Y-129576687D01*
X156795671Y-129359058D01*
X156795666Y-129359053D01*
X156795661Y-129359047D01*
X156646369Y-129209755D01*
X162488800Y-129209755D01*
X162488800Y-130407600D01*
X163546386Y-130407600D01*
X163513800Y-130571420D01*
X163513800Y-130743780D01*
X163546386Y-130907600D01*
X162488800Y-130907600D01*
X162488800Y-132105444D01*
X162495201Y-132164972D01*
X162495203Y-132164979D01*
X162545445Y-132299686D01*
X162545449Y-132299693D01*
X162631609Y-132414787D01*
X162631612Y-132414790D01*
X162746706Y-132500950D01*
X162746713Y-132500954D01*
X162881420Y-132551196D01*
X162881427Y-132551198D01*
X162940955Y-132557599D01*
X162940972Y-132557600D01*
X164138800Y-132557600D01*
X164138800Y-131500013D01*
X164302620Y-131532600D01*
X164474980Y-131532600D01*
X164638800Y-131500013D01*
X164638800Y-132557600D01*
X165836628Y-132557600D01*
X165836644Y-132557599D01*
X165896172Y-132551198D01*
X165896179Y-132551196D01*
X166030886Y-132500954D01*
X166030893Y-132500950D01*
X166145987Y-132414790D01*
X166145990Y-132414787D01*
X166232150Y-132299693D01*
X166232154Y-132299686D01*
X166282396Y-132164979D01*
X166282398Y-132164972D01*
X166288799Y-132105444D01*
X166288800Y-132105427D01*
X166288800Y-130907600D01*
X165231214Y-130907600D01*
X165263800Y-130743780D01*
X165263800Y-130571420D01*
X165231214Y-130407600D01*
X166288800Y-130407600D01*
X166288800Y-129209772D01*
X166288799Y-129209755D01*
X166282398Y-129150227D01*
X166282396Y-129150220D01*
X166232154Y-129015513D01*
X166232150Y-129015506D01*
X166145990Y-128900412D01*
X166145987Y-128900409D01*
X166030893Y-128814249D01*
X166030886Y-128814245D01*
X165896179Y-128764003D01*
X165896172Y-128764001D01*
X165836644Y-128757600D01*
X164638800Y-128757600D01*
X164638800Y-129815186D01*
X164474980Y-129782600D01*
X164302620Y-129782600D01*
X164138800Y-129815186D01*
X164138800Y-128757600D01*
X162940955Y-128757600D01*
X162881427Y-128764001D01*
X162881420Y-128764003D01*
X162746713Y-128814245D01*
X162746706Y-128814249D01*
X162631612Y-128900409D01*
X162631609Y-128900412D01*
X162545449Y-129015506D01*
X162545445Y-129015513D01*
X162495203Y-129150220D01*
X162495201Y-129150227D01*
X162488800Y-129209755D01*
X156646369Y-129209755D01*
X156603452Y-129166838D01*
X156603446Y-129166833D01*
X156603442Y-129166829D01*
X156385813Y-129003913D01*
X156385808Y-129003910D01*
X156385807Y-129003909D01*
X156147218Y-128873630D01*
X156147219Y-128873630D01*
X156092398Y-128853183D01*
X155892501Y-128778625D01*
X155892494Y-128778623D01*
X155892493Y-128778623D01*
X155626867Y-128720840D01*
X155626860Y-128720839D01*
X155430254Y-128706777D01*
X155364789Y-128682360D01*
X155322918Y-128626426D01*
X155315100Y-128583093D01*
X155315100Y-117652497D01*
X155334785Y-117585458D01*
X155387589Y-117539703D01*
X155456747Y-117529759D01*
X155520303Y-117558784D01*
X155526781Y-117564816D01*
X167704386Y-129742421D01*
X167737871Y-129803744D01*
X167732887Y-129873435D01*
X167640623Y-130120803D01*
X167582840Y-130386432D01*
X167582839Y-130386439D01*
X167563445Y-130657598D01*
X167563445Y-130657601D01*
X167582839Y-130928760D01*
X167582840Y-130928767D01*
X167629574Y-131143601D01*
X167640625Y-131194401D01*
X167693908Y-131337257D01*
X167735630Y-131449119D01*
X167865909Y-131687707D01*
X167865910Y-131687708D01*
X167865913Y-131687713D01*
X168028829Y-131905342D01*
X168028833Y-131905346D01*
X168028838Y-131905352D01*
X168221047Y-132097561D01*
X168221053Y-132097566D01*
X168221058Y-132097571D01*
X168438687Y-132260487D01*
X168438691Y-132260489D01*
X168438692Y-132260490D01*
X168677281Y-132390769D01*
X168677280Y-132390769D01*
X168677284Y-132390770D01*
X168677287Y-132390772D01*
X168931999Y-132485775D01*
X169197640Y-132543561D01*
X169449405Y-132561567D01*
X169468799Y-132562955D01*
X169468800Y-132562955D01*
X169468801Y-132562955D01*
X169486900Y-132561660D01*
X169739960Y-132543561D01*
X170005601Y-132485775D01*
X170260313Y-132390772D01*
X170260317Y-132390769D01*
X170260319Y-132390769D01*
X170427125Y-132299686D01*
X170498913Y-132260487D01*
X170716542Y-132097571D01*
X170908771Y-131905342D01*
X171071687Y-131687713D01*
X171176209Y-131496294D01*
X171201969Y-131449119D01*
X171201969Y-131449117D01*
X171201972Y-131449113D01*
X171296975Y-131194401D01*
X171354761Y-130928760D01*
X171374155Y-130657600D01*
X171354761Y-130386440D01*
X171296975Y-130120799D01*
X171201972Y-129866087D01*
X171201970Y-129866084D01*
X171201969Y-129866080D01*
X171071690Y-129627492D01*
X171071689Y-129627491D01*
X171071687Y-129627487D01*
X170908771Y-129409858D01*
X170908766Y-129409853D01*
X170908761Y-129409847D01*
X170716552Y-129217638D01*
X170716546Y-129217633D01*
X170716542Y-129217629D01*
X170498913Y-129054713D01*
X170498908Y-129054710D01*
X170498907Y-129054709D01*
X170260318Y-128924430D01*
X170260319Y-128924430D01*
X170176550Y-128893186D01*
X170005601Y-128829425D01*
X170005594Y-128829423D01*
X170005593Y-128829423D01*
X169739967Y-128771640D01*
X169739960Y-128771639D01*
X169468801Y-128752245D01*
X169468799Y-128752245D01*
X169197639Y-128771639D01*
X169197632Y-128771640D01*
X168932003Y-128829423D01*
X168684635Y-128921687D01*
X168614944Y-128926671D01*
X168553621Y-128893186D01*
X158496429Y-118835994D01*
X162884859Y-118835994D01*
X162884859Y-118836005D01*
X162905385Y-119083729D01*
X162905387Y-119083738D01*
X162966412Y-119324717D01*
X163066267Y-119552367D01*
X163166562Y-119705881D01*
X163866212Y-119006233D01*
X163877482Y-119048292D01*
X163949890Y-119173708D01*
X164052292Y-119276110D01*
X164177708Y-119348518D01*
X164219766Y-119359787D01*
X163519943Y-120059609D01*
X163566768Y-120096055D01*
X163566771Y-120096057D01*
X163785385Y-120214364D01*
X163785396Y-120214369D01*
X164020506Y-120295083D01*
X164265707Y-120336000D01*
X164514293Y-120336000D01*
X164759493Y-120295083D01*
X164994603Y-120214369D01*
X164994614Y-120214364D01*
X165213230Y-120096056D01*
X165213236Y-120096051D01*
X165260055Y-120059610D01*
X165260056Y-120059609D01*
X164560233Y-119359787D01*
X164602292Y-119348518D01*
X164727708Y-119276110D01*
X164830110Y-119173708D01*
X164902518Y-119048292D01*
X164913787Y-119006234D01*
X165613435Y-119705882D01*
X165713733Y-119552364D01*
X165813587Y-119324717D01*
X165874612Y-119083738D01*
X165874614Y-119083729D01*
X165895141Y-118836005D01*
X165895141Y-118835994D01*
X169384859Y-118835994D01*
X169384859Y-118836005D01*
X169405385Y-119083729D01*
X169405387Y-119083738D01*
X169466412Y-119324717D01*
X169566267Y-119552367D01*
X169666562Y-119705881D01*
X170366212Y-119006233D01*
X170377482Y-119048292D01*
X170449890Y-119173708D01*
X170552292Y-119276110D01*
X170677708Y-119348518D01*
X170719766Y-119359787D01*
X170019943Y-120059609D01*
X170066768Y-120096055D01*
X170066771Y-120096057D01*
X170285385Y-120214364D01*
X170285396Y-120214369D01*
X170520506Y-120295083D01*
X170765707Y-120336000D01*
X171014293Y-120336000D01*
X171259493Y-120295083D01*
X171494603Y-120214369D01*
X171494614Y-120214364D01*
X171713230Y-120096056D01*
X171713236Y-120096051D01*
X171760055Y-120059610D01*
X171760056Y-120059609D01*
X171060233Y-119359787D01*
X171102292Y-119348518D01*
X171227708Y-119276110D01*
X171330110Y-119173708D01*
X171402518Y-119048292D01*
X171413787Y-119006234D01*
X172113435Y-119705882D01*
X172213733Y-119552364D01*
X172313587Y-119324717D01*
X172374612Y-119083738D01*
X172374614Y-119083729D01*
X172395141Y-118836005D01*
X172395141Y-118835994D01*
X172374614Y-118588270D01*
X172374612Y-118588261D01*
X172313587Y-118347282D01*
X172213732Y-118119632D01*
X172113435Y-117966116D01*
X171413787Y-118665765D01*
X171402518Y-118623708D01*
X171330110Y-118498292D01*
X171227708Y-118395890D01*
X171102292Y-118323482D01*
X171060233Y-118312212D01*
X171760055Y-117612389D01*
X171760055Y-117612388D01*
X171713236Y-117575947D01*
X171713231Y-117575944D01*
X171494614Y-117457635D01*
X171494603Y-117457630D01*
X171259493Y-117376916D01*
X171014293Y-117336000D01*
X170765707Y-117336000D01*
X170520506Y-117376916D01*
X170285396Y-117457630D01*
X170285385Y-117457635D01*
X170066770Y-117575943D01*
X170019943Y-117612389D01*
X170719766Y-118312212D01*
X170677708Y-118323482D01*
X170552292Y-118395890D01*
X170449890Y-118498292D01*
X170377482Y-118623708D01*
X170366212Y-118665765D01*
X169666563Y-117966117D01*
X169566267Y-118119633D01*
X169566265Y-118119637D01*
X169466412Y-118347282D01*
X169405387Y-118588261D01*
X169405385Y-118588270D01*
X169384859Y-118835994D01*
X165895141Y-118835994D01*
X165874614Y-118588270D01*
X165874612Y-118588261D01*
X165813587Y-118347282D01*
X165713732Y-118119632D01*
X165613435Y-117966116D01*
X164913787Y-118665765D01*
X164902518Y-118623708D01*
X164830110Y-118498292D01*
X164727708Y-118395890D01*
X164602292Y-118323482D01*
X164560233Y-118312212D01*
X165260055Y-117612389D01*
X165260055Y-117612388D01*
X165213236Y-117575947D01*
X165213231Y-117575944D01*
X164994614Y-117457635D01*
X164994603Y-117457630D01*
X164759493Y-117376916D01*
X164514293Y-117336000D01*
X164265707Y-117336000D01*
X164020506Y-117376916D01*
X163785396Y-117457630D01*
X163785385Y-117457635D01*
X163566770Y-117575943D01*
X163519943Y-117612389D01*
X164219766Y-118312212D01*
X164177708Y-118323482D01*
X164052292Y-118395890D01*
X163949890Y-118498292D01*
X163877482Y-118623708D01*
X163866212Y-118665766D01*
X163166563Y-117966117D01*
X163066267Y-118119633D01*
X163066265Y-118119637D01*
X162966412Y-118347282D01*
X162905387Y-118588261D01*
X162905385Y-118588270D01*
X162884859Y-118835994D01*
X158496429Y-118835994D01*
X157455266Y-117794831D01*
X157421781Y-117733508D01*
X157426765Y-117663816D01*
X157468637Y-117607883D01*
X157490533Y-117594773D01*
X157540439Y-117571502D01*
X157719677Y-117445998D01*
X157874398Y-117291277D01*
X157999902Y-117112039D01*
X158092375Y-116913730D01*
X158149007Y-116702377D01*
X158168077Y-116484400D01*
X158149007Y-116266423D01*
X158092375Y-116055070D01*
X157999902Y-115856762D01*
X157999900Y-115856759D01*
X157999899Y-115856757D01*
X157874399Y-115677524D01*
X157815880Y-115619005D01*
X157719677Y-115522802D01*
X157567931Y-115416548D01*
X157540438Y-115397297D01*
X157422071Y-115342102D01*
X157342130Y-115304825D01*
X157342126Y-115304824D01*
X157342122Y-115304822D01*
X157130777Y-115248193D01*
X156912802Y-115229123D01*
X156912798Y-115229123D01*
X156767482Y-115241836D01*
X156694823Y-115248193D01*
X156694820Y-115248193D01*
X156483477Y-115304822D01*
X156483468Y-115304826D01*
X156285161Y-115397298D01*
X156285157Y-115397300D01*
X156105921Y-115522802D01*
X155951203Y-115677520D01*
X155942374Y-115690130D01*
X155887796Y-115733754D01*
X155818297Y-115740946D01*
X155755943Y-115709422D01*
X155720531Y-115649192D01*
X155716800Y-115619005D01*
X155716800Y-107842194D01*
X155736485Y-107775155D01*
X155789289Y-107729400D01*
X155826914Y-107718974D01*
X155923005Y-107708148D01*
X155999150Y-107699569D01*
X155999153Y-107699568D01*
X155999155Y-107699568D01*
X156169422Y-107639989D01*
X156322162Y-107544016D01*
X156449716Y-107416462D01*
X156545689Y-107263722D01*
X156605268Y-107093455D01*
X156615061Y-107006529D01*
X156642126Y-106942118D01*
X156650580Y-106932753D01*
X156760422Y-106822912D01*
X156821742Y-106789430D01*
X156891434Y-106794414D01*
X156947367Y-106836286D01*
X156971784Y-106901751D01*
X156972100Y-106910596D01*
X156972100Y-108013330D01*
X156972099Y-108013348D01*
X156972099Y-108179054D01*
X156972098Y-108179054D01*
X157013024Y-108331789D01*
X157013025Y-108331790D01*
X157037973Y-108375000D01*
X157037974Y-108375001D01*
X157056952Y-108407872D01*
X157092079Y-108468714D01*
X157092081Y-108468717D01*
X157210949Y-108587585D01*
X157210955Y-108587590D01*
X157762098Y-109138733D01*
X157795583Y-109200056D01*
X157797637Y-109212530D01*
X157807430Y-109299449D01*
X157867010Y-109469721D01*
X157922257Y-109557645D01*
X157962984Y-109622462D01*
X158090538Y-109750016D01*
X158243278Y-109845989D01*
X158413545Y-109905568D01*
X158413550Y-109905569D01*
X158592796Y-109925765D01*
X158592800Y-109925765D01*
X158592804Y-109925765D01*
X158772049Y-109905569D01*
X158772052Y-109905568D01*
X158772055Y-109905568D01*
X158942322Y-109845989D01*
X159095062Y-109750016D01*
X159222616Y-109622462D01*
X159318589Y-109469722D01*
X159378168Y-109299455D01*
X159387962Y-109212530D01*
X159398365Y-109120203D01*
X159398365Y-109120196D01*
X159378169Y-108940950D01*
X159378168Y-108940945D01*
X159318588Y-108770676D01*
X159256087Y-108671207D01*
X159222616Y-108617938D01*
X159095062Y-108490384D01*
X159060578Y-108468716D01*
X158942321Y-108394410D01*
X158772049Y-108334830D01*
X158685130Y-108325037D01*
X158620716Y-108297970D01*
X158611333Y-108289498D01*
X158209419Y-107887583D01*
X158175934Y-107826260D01*
X158173100Y-107799902D01*
X158173100Y-104046206D01*
X158192785Y-103979167D01*
X158245589Y-103933412D01*
X158314747Y-103923468D01*
X158378303Y-103952493D01*
X158416077Y-104011271D01*
X158416855Y-104014043D01*
X158443823Y-104114685D01*
X158451824Y-104128543D01*
X158522877Y-104251612D01*
X158522881Y-104251617D01*
X158641749Y-104370485D01*
X158641755Y-104370490D01*
X160373298Y-106102033D01*
X160406783Y-106163356D01*
X160408837Y-106175830D01*
X160418630Y-106262749D01*
X160478210Y-106433021D01*
X160525450Y-106508202D01*
X160574184Y-106585762D01*
X160701738Y-106713316D01*
X160789556Y-106768496D01*
X160830804Y-106794414D01*
X160854478Y-106809289D01*
X160931631Y-106836286D01*
X161024745Y-106868868D01*
X161024750Y-106868869D01*
X161188983Y-106887373D01*
X161253397Y-106914439D01*
X161292952Y-106972034D01*
X161299100Y-107010593D01*
X161299100Y-108537787D01*
X161279415Y-108604826D01*
X161272050Y-108615096D01*
X161269786Y-108617934D01*
X161173811Y-108770676D01*
X161114231Y-108940945D01*
X161114230Y-108940950D01*
X161094035Y-109120196D01*
X161094035Y-109120203D01*
X161114230Y-109299449D01*
X161114231Y-109299454D01*
X161173811Y-109469723D01*
X161229060Y-109557650D01*
X161269784Y-109622462D01*
X161397338Y-109750016D01*
X161550078Y-109845989D01*
X161720345Y-109905568D01*
X161720350Y-109905569D01*
X161899596Y-109925765D01*
X161899600Y-109925765D01*
X161899604Y-109925765D01*
X162078849Y-109905569D01*
X162078852Y-109905568D01*
X162078855Y-109905568D01*
X162249122Y-109845989D01*
X162401862Y-109750016D01*
X162529416Y-109622462D01*
X162625389Y-109469722D01*
X162684968Y-109299455D01*
X162694762Y-109212530D01*
X162705165Y-109120203D01*
X162705165Y-109120196D01*
X162684969Y-108940950D01*
X162684968Y-108940945D01*
X162625388Y-108770676D01*
X162562887Y-108671207D01*
X162529416Y-108617938D01*
X162529414Y-108617936D01*
X162529413Y-108617934D01*
X162527150Y-108615096D01*
X162526259Y-108612915D01*
X162525711Y-108612042D01*
X162525864Y-108611945D01*
X162500744Y-108550409D01*
X162500100Y-108537787D01*
X162500100Y-105735560D01*
X162500101Y-105735547D01*
X162500101Y-105567444D01*
X162473895Y-105469643D01*
X162459177Y-105414716D01*
X162459111Y-105414602D01*
X162380124Y-105277790D01*
X162380118Y-105277782D01*
X161702966Y-104600630D01*
X160970536Y-103868201D01*
X160937052Y-103806879D01*
X160942036Y-103737187D01*
X160968492Y-103696026D01*
X160968472Y-103696010D01*
X160968635Y-103695805D01*
X160970547Y-103692830D01*
X160972816Y-103690562D01*
X161068789Y-103537822D01*
X161128368Y-103367555D01*
X161135110Y-103307723D01*
X161144794Y-103221771D01*
X161171860Y-103157357D01*
X161229455Y-103117802D01*
X161299292Y-103115664D01*
X161355695Y-103147973D01*
X161458438Y-103250716D01*
X161611178Y-103346689D01*
X161670807Y-103367554D01*
X161781445Y-103406268D01*
X161781450Y-103406269D01*
X161960696Y-103426465D01*
X161960700Y-103426465D01*
X161960704Y-103426465D01*
X162139949Y-103406269D01*
X162139952Y-103406268D01*
X162139955Y-103406268D01*
X162310222Y-103346689D01*
X162462962Y-103250716D01*
X162590516Y-103123162D01*
X162686489Y-102970422D01*
X162746068Y-102800155D01*
X162746069Y-102800149D01*
X162766265Y-102620903D01*
X162766265Y-102620896D01*
X162746069Y-102441651D01*
X162746068Y-102441649D01*
X162746068Y-102441645D01*
X162734297Y-102408007D01*
X162730735Y-102338234D01*
X162763657Y-102279376D01*
X162818720Y-102224314D01*
X162880043Y-102190830D01*
X162949735Y-102195815D01*
X163005668Y-102237686D01*
X163030084Y-102303151D01*
X163030400Y-102311996D01*
X163030400Y-113490230D01*
X163030399Y-113490248D01*
X163030399Y-113664084D01*
X163029163Y-113664084D01*
X163020975Y-113721642D01*
X162965935Y-113847123D01*
X162904892Y-114088175D01*
X162904890Y-114088187D01*
X162884357Y-114335994D01*
X162884357Y-114336005D01*
X162904890Y-114583812D01*
X162904892Y-114583824D01*
X162965936Y-114824881D01*
X163065826Y-115052606D01*
X163201833Y-115260782D01*
X163201836Y-115260785D01*
X163370256Y-115443738D01*
X163566491Y-115596474D01*
X163566493Y-115596475D01*
X163775200Y-115709422D01*
X163785190Y-115714828D01*
X164020386Y-115795571D01*
X164265665Y-115836500D01*
X164514335Y-115836500D01*
X164759614Y-115795571D01*
X164994810Y-115714828D01*
X165213509Y-115596474D01*
X165409744Y-115443738D01*
X165578164Y-115260785D01*
X165714173Y-115052607D01*
X165814063Y-114824881D01*
X165875108Y-114583821D01*
X165878682Y-114540690D01*
X165895643Y-114336005D01*
X165895643Y-114335994D01*
X165875109Y-114088187D01*
X165875107Y-114088175D01*
X165814063Y-113847118D01*
X165714173Y-113619393D01*
X165578166Y-113411217D01*
X165530957Y-113359935D01*
X165409744Y-113228262D01*
X165213509Y-113075526D01*
X165213507Y-113075525D01*
X165213506Y-113075524D01*
X164994811Y-112957172D01*
X164994802Y-112957169D01*
X164759616Y-112876429D01*
X164514335Y-112835500D01*
X164355400Y-112835500D01*
X164288361Y-112815815D01*
X164242606Y-112763011D01*
X164231400Y-112711500D01*
X164231400Y-108539968D01*
X164251085Y-108472929D01*
X164303889Y-108427174D01*
X164373047Y-108417230D01*
X164436603Y-108446255D01*
X164471582Y-108496635D01*
X164511002Y-108602328D01*
X164511006Y-108602335D01*
X164597252Y-108717544D01*
X164597255Y-108717547D01*
X164712464Y-108803793D01*
X164712471Y-108803797D01*
X164757418Y-108820561D01*
X164847317Y-108854091D01*
X164906927Y-108860500D01*
X164934298Y-108860499D01*
X165001336Y-108880181D01*
X165047093Y-108932984D01*
X165058300Y-108984499D01*
X165058300Y-109173530D01*
X165058299Y-109173548D01*
X165058299Y-109339254D01*
X165058298Y-109339254D01*
X165099223Y-109491984D01*
X165099223Y-109491985D01*
X165126724Y-109539618D01*
X165126724Y-109539619D01*
X165178275Y-109628909D01*
X165178281Y-109628917D01*
X165297149Y-109747785D01*
X165297155Y-109747790D01*
X166368481Y-110819116D01*
X166401966Y-110880439D01*
X166404800Y-110906797D01*
X166404800Y-114894587D01*
X166385115Y-114961626D01*
X166377750Y-114971896D01*
X166375486Y-114974734D01*
X166279511Y-115127476D01*
X166219931Y-115297745D01*
X166219930Y-115297750D01*
X166199735Y-115476996D01*
X166199735Y-115477003D01*
X166219930Y-115656249D01*
X166219931Y-115656254D01*
X166279511Y-115826523D01*
X166350766Y-115939924D01*
X166375484Y-115979262D01*
X166503038Y-116106816D01*
X166655778Y-116202789D01*
X166747615Y-116234924D01*
X166826045Y-116262368D01*
X166826050Y-116262369D01*
X167005296Y-116282565D01*
X167005300Y-116282565D01*
X167005304Y-116282565D01*
X167184549Y-116262369D01*
X167184552Y-116262368D01*
X167184555Y-116262368D01*
X167354822Y-116202789D01*
X167507562Y-116106816D01*
X167635116Y-115979262D01*
X167731089Y-115826522D01*
X167790668Y-115656255D01*
X167800699Y-115567226D01*
X167810865Y-115477003D01*
X167810865Y-115476996D01*
X167790669Y-115297750D01*
X167790668Y-115297745D01*
X167777734Y-115260782D01*
X167731089Y-115127478D01*
X167635116Y-114974738D01*
X167635114Y-114974736D01*
X167635113Y-114974734D01*
X167632850Y-114971896D01*
X167631959Y-114969715D01*
X167631411Y-114968842D01*
X167631564Y-114968745D01*
X167606444Y-114907209D01*
X167605800Y-114894587D01*
X167605800Y-114335994D01*
X169384357Y-114335994D01*
X169384357Y-114336005D01*
X169404890Y-114583812D01*
X169404892Y-114583824D01*
X169465936Y-114824881D01*
X169565826Y-115052606D01*
X169701833Y-115260782D01*
X169701836Y-115260785D01*
X169870256Y-115443738D01*
X170066491Y-115596474D01*
X170066493Y-115596475D01*
X170275200Y-115709422D01*
X170285190Y-115714828D01*
X170520386Y-115795571D01*
X170765665Y-115836500D01*
X171014335Y-115836500D01*
X171259614Y-115795571D01*
X171494810Y-115714828D01*
X171713509Y-115596474D01*
X171909744Y-115443738D01*
X172078164Y-115260785D01*
X172214173Y-115052607D01*
X172314063Y-114824881D01*
X172375108Y-114583821D01*
X172378682Y-114540690D01*
X172395643Y-114336005D01*
X172395643Y-114335994D01*
X172375109Y-114088187D01*
X172375107Y-114088175D01*
X172314063Y-113847118D01*
X172214173Y-113619393D01*
X172078166Y-113411217D01*
X172030957Y-113359935D01*
X171909744Y-113228262D01*
X171713509Y-113075526D01*
X171713507Y-113075525D01*
X171713506Y-113075524D01*
X171494811Y-112957172D01*
X171494802Y-112957169D01*
X171259616Y-112876429D01*
X171014335Y-112835500D01*
X170765665Y-112835500D01*
X170520383Y-112876429D01*
X170285197Y-112957169D01*
X170285188Y-112957172D01*
X170066493Y-113075524D01*
X169870257Y-113228261D01*
X169701833Y-113411217D01*
X169565826Y-113619393D01*
X169465936Y-113847118D01*
X169404892Y-114088175D01*
X169404890Y-114088187D01*
X169384357Y-114335994D01*
X167605800Y-114335994D01*
X167605800Y-110917287D01*
X167625485Y-110850248D01*
X167672238Y-110808893D01*
X167671925Y-110808394D01*
X167674958Y-110806487D01*
X167676002Y-110805565D01*
X167677814Y-110804691D01*
X167677822Y-110804689D01*
X167830562Y-110708716D01*
X167958116Y-110581162D01*
X168054089Y-110428422D01*
X168113668Y-110258155D01*
X168113668Y-110258154D01*
X168113669Y-110258152D01*
X168128814Y-110123721D01*
X168144645Y-110075605D01*
X168174277Y-110024284D01*
X168215201Y-109871557D01*
X168215201Y-109713442D01*
X168215201Y-109705847D01*
X168215200Y-109705829D01*
X168215200Y-104790012D01*
X168234885Y-104722973D01*
X168242255Y-104712697D01*
X168244510Y-104709867D01*
X168244516Y-104709862D01*
X168340489Y-104557122D01*
X168400068Y-104386855D01*
X168401912Y-104370490D01*
X168420265Y-104207603D01*
X168420265Y-104207596D01*
X168400069Y-104028350D01*
X168400068Y-104028345D01*
X168370590Y-103944101D01*
X168340489Y-103858078D01*
X168244516Y-103705338D01*
X168116962Y-103577784D01*
X168096298Y-103564800D01*
X167964223Y-103481811D01*
X167793954Y-103422231D01*
X167793949Y-103422230D01*
X167614704Y-103402035D01*
X167614696Y-103402035D01*
X167533517Y-103411181D01*
X167464695Y-103399126D01*
X167413316Y-103351777D01*
X167395692Y-103284166D01*
X167417419Y-103217761D01*
X167431946Y-103200287D01*
X167674037Y-102958196D01*
X168926935Y-102958196D01*
X168926935Y-102958203D01*
X168947130Y-103137449D01*
X168947131Y-103137454D01*
X169006711Y-103307723D01*
X169078661Y-103422230D01*
X169102684Y-103460462D01*
X169230238Y-103588016D01*
X169382978Y-103683989D01*
X169553245Y-103743568D01*
X169640169Y-103753361D01*
X169704580Y-103780426D01*
X169713965Y-103788900D01*
X173911981Y-107986916D01*
X173945466Y-108048239D01*
X173948300Y-108074597D01*
X173948300Y-128767088D01*
X173928615Y-128834127D01*
X173875811Y-128879882D01*
X173867635Y-128883269D01*
X173757288Y-128924427D01*
X173757281Y-128924430D01*
X173518692Y-129054709D01*
X173518691Y-129054710D01*
X173301059Y-129217628D01*
X173301047Y-129217638D01*
X173108838Y-129409847D01*
X173108828Y-129409859D01*
X172945910Y-129627491D01*
X172945909Y-129627492D01*
X172815630Y-129866080D01*
X172773908Y-129977943D01*
X172720625Y-130120799D01*
X172720624Y-130120802D01*
X172720623Y-130120806D01*
X172662840Y-130386432D01*
X172662839Y-130386439D01*
X172643445Y-130657598D01*
X172643445Y-130657601D01*
X172662839Y-130928760D01*
X172662840Y-130928767D01*
X172709574Y-131143601D01*
X172720625Y-131194401D01*
X172773908Y-131337257D01*
X172815630Y-131449119D01*
X172945909Y-131687707D01*
X172945910Y-131687708D01*
X172945913Y-131687713D01*
X173108829Y-131905342D01*
X173108833Y-131905346D01*
X173108838Y-131905352D01*
X173301047Y-132097561D01*
X173301053Y-132097566D01*
X173301058Y-132097571D01*
X173518687Y-132260487D01*
X173518691Y-132260489D01*
X173518692Y-132260490D01*
X173757281Y-132390769D01*
X173757280Y-132390769D01*
X173757284Y-132390770D01*
X173757287Y-132390772D01*
X174011999Y-132485775D01*
X174277640Y-132543561D01*
X174529405Y-132561567D01*
X174548799Y-132562955D01*
X174548800Y-132562955D01*
X174548801Y-132562955D01*
X174566900Y-132561660D01*
X174819960Y-132543561D01*
X175085601Y-132485775D01*
X175340313Y-132390772D01*
X175340317Y-132390769D01*
X175340319Y-132390769D01*
X175507125Y-132299686D01*
X175578913Y-132260487D01*
X175796542Y-132097571D01*
X175988771Y-131905342D01*
X176151687Y-131687713D01*
X176256209Y-131496294D01*
X176281969Y-131449119D01*
X176281969Y-131449117D01*
X176281972Y-131449113D01*
X176376975Y-131194401D01*
X176434761Y-130928760D01*
X176454155Y-130657600D01*
X176434761Y-130386440D01*
X176376975Y-130120799D01*
X176281972Y-129866087D01*
X176281970Y-129866084D01*
X176281969Y-129866080D01*
X176151690Y-129627492D01*
X176151689Y-129627491D01*
X176151687Y-129627487D01*
X175988771Y-129409858D01*
X175988766Y-129409853D01*
X175988761Y-129409847D01*
X175796552Y-129217638D01*
X175796546Y-129217633D01*
X175796542Y-129217629D01*
X175578913Y-129054713D01*
X175578908Y-129054710D01*
X175578907Y-129054709D01*
X175340318Y-128924430D01*
X175340311Y-128924427D01*
X175229965Y-128883269D01*
X175174032Y-128841398D01*
X175149616Y-128775933D01*
X175149300Y-128767088D01*
X175149300Y-116535198D01*
X177113845Y-116535198D01*
X177113845Y-116535201D01*
X177133239Y-116806360D01*
X177133240Y-116806367D01*
X177191023Y-117071993D01*
X177191025Y-117072001D01*
X177250837Y-117232363D01*
X177286030Y-117326719D01*
X177416309Y-117565307D01*
X177416310Y-117565308D01*
X177416313Y-117565313D01*
X177579229Y-117782942D01*
X177579233Y-117782946D01*
X177579238Y-117782952D01*
X177771447Y-117975161D01*
X177771453Y-117975166D01*
X177771458Y-117975171D01*
X177989087Y-118138087D01*
X177989091Y-118138089D01*
X177989092Y-118138090D01*
X178227681Y-118268369D01*
X178227680Y-118268369D01*
X178227684Y-118268370D01*
X178227687Y-118268372D01*
X178482399Y-118363375D01*
X178748040Y-118421161D01*
X178913148Y-118432969D01*
X178978610Y-118457386D01*
X179020482Y-118513319D01*
X179028300Y-118556653D01*
X179028300Y-128767088D01*
X179008615Y-128834127D01*
X178955811Y-128879882D01*
X178947635Y-128883269D01*
X178837288Y-128924427D01*
X178837281Y-128924430D01*
X178598692Y-129054709D01*
X178598691Y-129054710D01*
X178381059Y-129217628D01*
X178381047Y-129217638D01*
X178188838Y-129409847D01*
X178188828Y-129409859D01*
X178025910Y-129627491D01*
X178025909Y-129627492D01*
X177895630Y-129866080D01*
X177853908Y-129977943D01*
X177800625Y-130120799D01*
X177800624Y-130120802D01*
X177800623Y-130120806D01*
X177742840Y-130386432D01*
X177742839Y-130386439D01*
X177723445Y-130657598D01*
X177723445Y-130657601D01*
X177742839Y-130928760D01*
X177742840Y-130928767D01*
X177789574Y-131143601D01*
X177800625Y-131194401D01*
X177853908Y-131337257D01*
X177895630Y-131449119D01*
X178025909Y-131687707D01*
X178025910Y-131687708D01*
X178025913Y-131687713D01*
X178188829Y-131905342D01*
X178188833Y-131905346D01*
X178188838Y-131905352D01*
X178381047Y-132097561D01*
X178381053Y-132097566D01*
X178381058Y-132097571D01*
X178598687Y-132260487D01*
X178598691Y-132260489D01*
X178598692Y-132260490D01*
X178837281Y-132390769D01*
X178837280Y-132390769D01*
X178837284Y-132390770D01*
X178837287Y-132390772D01*
X179091999Y-132485775D01*
X179357640Y-132543561D01*
X179609405Y-132561567D01*
X179628799Y-132562955D01*
X179628800Y-132562955D01*
X179628801Y-132562955D01*
X179646900Y-132561660D01*
X179899960Y-132543561D01*
X180165601Y-132485775D01*
X180420313Y-132390772D01*
X180420317Y-132390769D01*
X180420319Y-132390769D01*
X180587125Y-132299686D01*
X180658913Y-132260487D01*
X180876542Y-132097571D01*
X181068771Y-131905342D01*
X181231687Y-131687713D01*
X181336209Y-131496294D01*
X181361969Y-131449119D01*
X181361969Y-131449117D01*
X181361972Y-131449113D01*
X181456975Y-131194401D01*
X181514761Y-130928760D01*
X181534155Y-130657600D01*
X181514761Y-130386440D01*
X181456975Y-130120799D01*
X181361972Y-129866087D01*
X181361970Y-129866084D01*
X181361969Y-129866080D01*
X181231690Y-129627492D01*
X181231689Y-129627491D01*
X181231687Y-129627487D01*
X181068771Y-129409858D01*
X181068766Y-129409853D01*
X181068761Y-129409847D01*
X180876552Y-129217638D01*
X180876546Y-129217633D01*
X180876542Y-129217629D01*
X180658913Y-129054713D01*
X180658908Y-129054710D01*
X180658907Y-129054709D01*
X180420318Y-128924430D01*
X180420311Y-128924427D01*
X180309965Y-128883269D01*
X180254032Y-128841398D01*
X180229616Y-128775933D01*
X180229300Y-128767088D01*
X180229300Y-118064176D01*
X180248985Y-117997137D01*
X180265619Y-117976495D01*
X180459161Y-117782952D01*
X180459171Y-117782942D01*
X180622087Y-117565313D01*
X180728524Y-117370387D01*
X180752369Y-117326719D01*
X180752369Y-117326717D01*
X180752372Y-117326713D01*
X180847375Y-117072001D01*
X180905161Y-116806360D01*
X180924555Y-116535200D01*
X180905161Y-116264040D01*
X180847375Y-115998399D01*
X180752372Y-115743687D01*
X180752370Y-115743684D01*
X180752369Y-115743680D01*
X180622090Y-115505092D01*
X180622089Y-115505091D01*
X180622087Y-115505087D01*
X180459171Y-115287458D01*
X180459166Y-115287453D01*
X180459161Y-115287447D01*
X180266952Y-115095238D01*
X180266946Y-115095233D01*
X180266942Y-115095229D01*
X180049313Y-114932313D01*
X180049308Y-114932310D01*
X180049307Y-114932309D01*
X179810718Y-114802030D01*
X179810719Y-114802030D01*
X179761120Y-114783530D01*
X179556001Y-114707025D01*
X179555994Y-114707023D01*
X179555993Y-114707023D01*
X179290367Y-114649240D01*
X179290360Y-114649239D01*
X179019201Y-114629845D01*
X179019199Y-114629845D01*
X178748039Y-114649239D01*
X178748032Y-114649240D01*
X178482406Y-114707023D01*
X178482402Y-114707024D01*
X178482399Y-114707025D01*
X178355043Y-114754526D01*
X178227680Y-114802030D01*
X177989092Y-114932309D01*
X177989091Y-114932310D01*
X177771459Y-115095228D01*
X177771447Y-115095238D01*
X177579238Y-115287447D01*
X177579228Y-115287459D01*
X177416310Y-115505091D01*
X177416309Y-115505092D01*
X177286030Y-115743680D01*
X177251410Y-115836500D01*
X177191025Y-115998399D01*
X177191024Y-115998402D01*
X177191023Y-115998406D01*
X177133240Y-116264032D01*
X177133239Y-116264039D01*
X177113845Y-116535198D01*
X175149300Y-116535198D01*
X175149300Y-111455198D01*
X177113845Y-111455198D01*
X177113845Y-111455201D01*
X177133239Y-111726360D01*
X177133240Y-111726367D01*
X177191023Y-111991993D01*
X177191025Y-111992001D01*
X177267530Y-112197120D01*
X177286030Y-112246719D01*
X177416309Y-112485307D01*
X177416310Y-112485308D01*
X177416313Y-112485313D01*
X177579229Y-112702942D01*
X177579233Y-112702946D01*
X177579238Y-112702952D01*
X177771447Y-112895161D01*
X177771453Y-112895166D01*
X177771458Y-112895171D01*
X177989087Y-113058087D01*
X177989091Y-113058089D01*
X177989092Y-113058090D01*
X178227681Y-113188369D01*
X178227680Y-113188369D01*
X178227684Y-113188370D01*
X178227687Y-113188372D01*
X178482399Y-113283375D01*
X178748040Y-113341161D01*
X178999805Y-113359167D01*
X179019199Y-113360555D01*
X179019200Y-113360555D01*
X179019201Y-113360555D01*
X179037300Y-113359260D01*
X179290360Y-113341161D01*
X179556001Y-113283375D01*
X179810713Y-113188372D01*
X179810717Y-113188369D01*
X179810719Y-113188369D01*
X179977919Y-113097071D01*
X180049313Y-113058087D01*
X180266942Y-112895171D01*
X180459171Y-112702942D01*
X180622087Y-112485313D01*
X180752372Y-112246713D01*
X180847375Y-111992001D01*
X180905161Y-111726360D01*
X180924555Y-111455200D01*
X180905161Y-111184040D01*
X180847375Y-110918399D01*
X180752372Y-110663687D01*
X180752370Y-110663684D01*
X180752369Y-110663680D01*
X180622090Y-110425092D01*
X180622089Y-110425091D01*
X180622087Y-110425087D01*
X180459171Y-110207458D01*
X180459166Y-110207453D01*
X180459161Y-110207447D01*
X180266952Y-110015238D01*
X180266946Y-110015233D01*
X180266942Y-110015229D01*
X180049313Y-109852313D01*
X180049308Y-109852310D01*
X180049307Y-109852309D01*
X179810718Y-109722030D01*
X179810719Y-109722030D01*
X179761120Y-109703530D01*
X179556001Y-109627025D01*
X179555994Y-109627023D01*
X179555993Y-109627023D01*
X179290367Y-109569240D01*
X179290360Y-109569239D01*
X179019201Y-109549845D01*
X179019199Y-109549845D01*
X178748039Y-109569239D01*
X178748032Y-109569240D01*
X178482406Y-109627023D01*
X178482402Y-109627024D01*
X178482399Y-109627025D01*
X178355043Y-109674526D01*
X178227680Y-109722030D01*
X177989092Y-109852309D01*
X177989091Y-109852310D01*
X177771459Y-110015228D01*
X177771447Y-110015238D01*
X177579238Y-110207447D01*
X177579228Y-110207459D01*
X177416310Y-110425091D01*
X177416309Y-110425092D01*
X177286030Y-110663680D01*
X177269233Y-110708715D01*
X177191025Y-110918399D01*
X177191024Y-110918402D01*
X177191023Y-110918406D01*
X177133240Y-111184032D01*
X177133239Y-111184039D01*
X177113845Y-111455198D01*
X175149300Y-111455198D01*
X175149300Y-107863560D01*
X175149301Y-107863547D01*
X175149301Y-107695444D01*
X175149301Y-107695443D01*
X175108377Y-107542716D01*
X175035485Y-107416462D01*
X175029324Y-107405790D01*
X175029318Y-107405782D01*
X173998734Y-106375198D01*
X177113845Y-106375198D01*
X177113845Y-106375201D01*
X177133239Y-106646360D01*
X177133240Y-106646367D01*
X177188795Y-106901751D01*
X177191025Y-106912001D01*
X177258704Y-107093455D01*
X177286030Y-107166719D01*
X177416309Y-107405307D01*
X177416310Y-107405308D01*
X177416313Y-107405313D01*
X177579229Y-107622942D01*
X177579233Y-107622946D01*
X177579238Y-107622952D01*
X177771447Y-107815161D01*
X177771453Y-107815166D01*
X177771458Y-107815171D01*
X177989087Y-107978087D01*
X177989091Y-107978089D01*
X177989092Y-107978090D01*
X178227681Y-108108369D01*
X178227680Y-108108369D01*
X178227684Y-108108370D01*
X178227687Y-108108372D01*
X178482399Y-108203375D01*
X178748040Y-108261161D01*
X178999805Y-108279167D01*
X179019199Y-108280555D01*
X179019200Y-108280555D01*
X179019201Y-108280555D01*
X179037300Y-108279260D01*
X179290360Y-108261161D01*
X179556001Y-108203375D01*
X179810713Y-108108372D01*
X179810717Y-108108369D01*
X179810719Y-108108369D01*
X179990264Y-108010330D01*
X180049313Y-107978087D01*
X180266942Y-107815171D01*
X180459171Y-107622942D01*
X180622087Y-107405313D01*
X180752372Y-107166713D01*
X180847375Y-106912001D01*
X180905161Y-106646360D01*
X180924555Y-106375200D01*
X180905161Y-106104040D01*
X180847375Y-105838399D01*
X180752372Y-105583687D01*
X180752370Y-105583684D01*
X180752369Y-105583680D01*
X180622090Y-105345092D01*
X180622089Y-105345091D01*
X180622087Y-105345087D01*
X180459171Y-105127458D01*
X180459166Y-105127453D01*
X180459161Y-105127447D01*
X180266952Y-104935238D01*
X180266946Y-104935233D01*
X180266942Y-104935229D01*
X180049313Y-104772313D01*
X180049308Y-104772310D01*
X180049307Y-104772309D01*
X179810718Y-104642030D01*
X179810719Y-104642030D01*
X179761120Y-104623530D01*
X179556001Y-104547025D01*
X179555994Y-104547023D01*
X179555993Y-104547023D01*
X179290367Y-104489240D01*
X179290360Y-104489239D01*
X179019201Y-104469845D01*
X179019199Y-104469845D01*
X178748039Y-104489239D01*
X178748032Y-104489240D01*
X178482406Y-104547023D01*
X178482402Y-104547024D01*
X178482399Y-104547025D01*
X178355043Y-104594526D01*
X178227680Y-104642030D01*
X177989092Y-104772309D01*
X177989091Y-104772310D01*
X177771459Y-104935228D01*
X177771447Y-104935238D01*
X177579238Y-105127447D01*
X177579228Y-105127459D01*
X177416310Y-105345091D01*
X177416309Y-105345092D01*
X177286030Y-105583680D01*
X177252677Y-105673103D01*
X177191025Y-105838399D01*
X177191024Y-105838402D01*
X177191023Y-105838406D01*
X177133240Y-106104032D01*
X177133239Y-106104039D01*
X177113845Y-106375198D01*
X173998734Y-106375198D01*
X172798809Y-105175273D01*
X170563199Y-102939664D01*
X170529715Y-102878342D01*
X170527663Y-102865886D01*
X170517868Y-102778945D01*
X170458289Y-102608678D01*
X170362316Y-102455938D01*
X170234762Y-102328384D01*
X170190899Y-102300823D01*
X170082023Y-102232411D01*
X169911754Y-102172831D01*
X169911749Y-102172830D01*
X169732504Y-102152635D01*
X169732496Y-102152635D01*
X169553250Y-102172830D01*
X169553245Y-102172831D01*
X169382976Y-102232411D01*
X169230237Y-102328384D01*
X169102684Y-102455937D01*
X169006711Y-102608676D01*
X168947131Y-102778945D01*
X168947130Y-102778950D01*
X168926935Y-102958196D01*
X167674037Y-102958196D01*
X170784879Y-99847355D01*
X177119200Y-99847355D01*
X177119200Y-101045200D01*
X178176786Y-101045200D01*
X178144200Y-101209020D01*
X178144200Y-101381380D01*
X178176786Y-101545200D01*
X177119200Y-101545200D01*
X177119200Y-102743044D01*
X177125601Y-102802572D01*
X177125603Y-102802579D01*
X177175845Y-102937286D01*
X177175849Y-102937293D01*
X177262009Y-103052387D01*
X177262012Y-103052390D01*
X177377106Y-103138550D01*
X177377113Y-103138554D01*
X177511820Y-103188796D01*
X177511827Y-103188798D01*
X177571355Y-103195199D01*
X177571372Y-103195200D01*
X178769200Y-103195200D01*
X178769200Y-102137613D01*
X178933020Y-102170200D01*
X179105380Y-102170200D01*
X179269200Y-102137613D01*
X179269200Y-103195200D01*
X180467028Y-103195200D01*
X180467044Y-103195199D01*
X180526572Y-103188798D01*
X180526579Y-103188796D01*
X180661286Y-103138554D01*
X180661293Y-103138550D01*
X180776387Y-103052390D01*
X180776390Y-103052387D01*
X180862550Y-102937293D01*
X180862554Y-102937286D01*
X180912796Y-102802579D01*
X180912798Y-102802572D01*
X180919199Y-102743044D01*
X180919200Y-102743027D01*
X180919200Y-101545200D01*
X179861614Y-101545200D01*
X179894200Y-101381380D01*
X179894200Y-101209020D01*
X179861614Y-101045200D01*
X180919200Y-101045200D01*
X180919200Y-99847372D01*
X180919199Y-99847355D01*
X180912798Y-99787827D01*
X180912796Y-99787820D01*
X180862554Y-99653113D01*
X180862550Y-99653106D01*
X180776390Y-99538012D01*
X180776387Y-99538009D01*
X180661293Y-99451849D01*
X180661286Y-99451845D01*
X180526579Y-99401603D01*
X180526572Y-99401601D01*
X180467044Y-99395200D01*
X179269200Y-99395200D01*
X179269200Y-100452786D01*
X179105380Y-100420200D01*
X178933020Y-100420200D01*
X178769200Y-100452786D01*
X178769200Y-99395200D01*
X177571355Y-99395200D01*
X177511827Y-99401601D01*
X177511820Y-99401603D01*
X177377113Y-99451845D01*
X177377106Y-99451849D01*
X177262012Y-99538009D01*
X177262009Y-99538012D01*
X177175849Y-99653106D01*
X177175845Y-99653113D01*
X177125603Y-99787820D01*
X177125601Y-99787827D01*
X177119200Y-99847355D01*
X170784879Y-99847355D01*
X174572120Y-96060116D01*
X174651177Y-95923184D01*
X174692101Y-95770457D01*
X174692101Y-95612342D01*
X174692101Y-95604747D01*
X174692100Y-95604729D01*
X174692100Y-86574110D01*
X174711785Y-86507071D01*
X174764589Y-86461316D01*
X174772746Y-86457936D01*
X174883113Y-86416772D01*
X175121713Y-86286487D01*
X175339342Y-86123571D01*
X175531571Y-85931342D01*
X175694487Y-85713713D01*
X175797546Y-85524974D01*
X175824769Y-85475119D01*
X175824769Y-85475117D01*
X175824772Y-85475113D01*
X175919775Y-85220401D01*
X175977561Y-84954760D01*
X175996955Y-84683600D01*
X175996955Y-84683598D01*
X177266747Y-84683598D01*
X177266747Y-84683601D01*
X177286136Y-84954690D01*
X177286137Y-84954697D01*
X177343905Y-85220254D01*
X177438885Y-85474906D01*
X177438887Y-85474910D01*
X177569132Y-85713435D01*
X177569137Y-85713443D01*
X177662921Y-85838723D01*
X177662922Y-85838724D01*
X178399146Y-85102500D01*
X178491943Y-85241380D01*
X178613820Y-85363257D01*
X178752698Y-85456052D01*
X178016474Y-86192276D01*
X178141763Y-86286066D01*
X178141764Y-86286067D01*
X178380289Y-86416312D01*
X178380293Y-86416314D01*
X178634945Y-86511294D01*
X178900502Y-86569062D01*
X178900509Y-86569063D01*
X179171599Y-86588453D01*
X179171601Y-86588453D01*
X179442690Y-86569063D01*
X179442697Y-86569062D01*
X179708254Y-86511294D01*
X179962906Y-86416314D01*
X179962910Y-86416312D01*
X180201444Y-86286062D01*
X180326723Y-86192277D01*
X180326724Y-86192276D01*
X179590500Y-85456053D01*
X179729380Y-85363257D01*
X179851257Y-85241380D01*
X179944052Y-85102500D01*
X180680276Y-85838724D01*
X180680277Y-85838723D01*
X180774062Y-85713444D01*
X180904312Y-85474910D01*
X180904314Y-85474906D01*
X180999294Y-85220254D01*
X181057062Y-84954697D01*
X181057063Y-84954690D01*
X181076453Y-84683601D01*
X181076453Y-84683598D01*
X181057063Y-84412509D01*
X181057062Y-84412502D01*
X180999294Y-84146945D01*
X180904314Y-83892293D01*
X180904312Y-83892289D01*
X180774067Y-83653764D01*
X180774066Y-83653763D01*
X180680276Y-83528474D01*
X179944052Y-84264698D01*
X179851257Y-84125820D01*
X179729380Y-84003943D01*
X179590499Y-83911145D01*
X180326724Y-83174922D01*
X180326723Y-83174921D01*
X180201443Y-83081137D01*
X180201435Y-83081132D01*
X179962910Y-82950887D01*
X179962906Y-82950885D01*
X179708254Y-82855905D01*
X179442697Y-82798137D01*
X179442690Y-82798136D01*
X179171601Y-82778747D01*
X179171599Y-82778747D01*
X178900509Y-82798136D01*
X178900502Y-82798137D01*
X178634945Y-82855905D01*
X178380293Y-82950885D01*
X178380289Y-82950887D01*
X178141764Y-83081132D01*
X178141756Y-83081137D01*
X178016475Y-83174921D01*
X178016474Y-83174922D01*
X178752699Y-83911146D01*
X178613820Y-84003943D01*
X178491943Y-84125820D01*
X178399146Y-84264699D01*
X177662922Y-83528474D01*
X177662921Y-83528475D01*
X177569137Y-83653756D01*
X177569132Y-83653764D01*
X177438887Y-83892289D01*
X177438885Y-83892293D01*
X177343905Y-84146945D01*
X177286137Y-84412502D01*
X177286136Y-84412509D01*
X177266747Y-84683598D01*
X175996955Y-84683598D01*
X175977561Y-84412440D01*
X175919775Y-84146799D01*
X175824772Y-83892087D01*
X175824770Y-83892084D01*
X175824769Y-83892080D01*
X175694490Y-83653492D01*
X175694489Y-83653491D01*
X175694487Y-83653487D01*
X175531571Y-83435858D01*
X175531566Y-83435853D01*
X175531561Y-83435847D01*
X175339352Y-83243638D01*
X175339346Y-83243633D01*
X175339342Y-83243629D01*
X175121713Y-83080713D01*
X175121708Y-83080710D01*
X175121707Y-83080709D01*
X174883118Y-82950430D01*
X174883119Y-82950430D01*
X174833520Y-82931930D01*
X174628401Y-82855425D01*
X174628394Y-82855423D01*
X174628393Y-82855423D01*
X174362767Y-82797640D01*
X174362760Y-82797639D01*
X174091601Y-82778245D01*
X174091599Y-82778245D01*
X173820439Y-82797639D01*
X173820432Y-82797640D01*
X173554806Y-82855423D01*
X173554802Y-82855424D01*
X173554799Y-82855425D01*
X173436287Y-82899628D01*
X173300080Y-82950430D01*
X173061492Y-83080709D01*
X173061491Y-83080710D01*
X172843859Y-83243628D01*
X172843847Y-83243638D01*
X172651638Y-83435847D01*
X172651628Y-83435859D01*
X172488710Y-83653491D01*
X172488709Y-83653492D01*
X172358430Y-83892080D01*
X172316708Y-84003943D01*
X172263425Y-84146799D01*
X172263424Y-84146802D01*
X172263423Y-84146806D01*
X172205640Y-84412432D01*
X172205639Y-84412439D01*
X172186245Y-84683598D01*
X172186245Y-84683601D01*
X172205639Y-84954760D01*
X172205640Y-84954767D01*
X172255670Y-85184751D01*
X172263425Y-85220401D01*
X172313324Y-85354184D01*
X172358430Y-85475119D01*
X172488709Y-85713707D01*
X172488710Y-85713708D01*
X172488713Y-85713713D01*
X172651629Y-85931342D01*
X172651633Y-85931346D01*
X172651638Y-85931352D01*
X172843847Y-86123561D01*
X172843853Y-86123566D01*
X172843858Y-86123571D01*
X173061487Y-86286487D01*
X173061491Y-86286489D01*
X173061492Y-86286490D01*
X173300081Y-86416769D01*
X173300084Y-86416771D01*
X173300087Y-86416772D01*
X173410435Y-86457929D01*
X173466367Y-86499799D01*
X173490784Y-86565263D01*
X173491100Y-86574110D01*
X173491100Y-95391302D01*
X173471415Y-95458341D01*
X173454781Y-95478983D01*
X166884693Y-102049070D01*
X166823370Y-102082555D01*
X166753678Y-102077571D01*
X166697745Y-102035699D01*
X166690497Y-102023940D01*
X166690291Y-102024068D01*
X166687276Y-102019199D01*
X166673774Y-102001320D01*
X166585168Y-101883985D01*
X166552748Y-101841054D01*
X166387784Y-101690671D01*
X166387783Y-101690670D01*
X166318021Y-101647475D01*
X166271387Y-101595448D01*
X166259300Y-101542049D01*
X166259300Y-92433859D01*
X166259301Y-92433846D01*
X166259301Y-92265745D01*
X166259301Y-92265743D01*
X166218377Y-92113015D01*
X166180699Y-92047755D01*
X166139320Y-91976084D01*
X166027516Y-91864280D01*
X166027515Y-91864279D01*
X166023185Y-91859949D01*
X166023174Y-91859939D01*
X166013200Y-91849965D01*
X165979715Y-91788642D01*
X165977663Y-91776186D01*
X165967868Y-91689245D01*
X165908289Y-91518978D01*
X165812316Y-91366238D01*
X165684762Y-91238684D01*
X165532023Y-91142711D01*
X165361754Y-91083131D01*
X165361749Y-91083130D01*
X165182504Y-91062935D01*
X165182497Y-91062935D01*
X165177977Y-91063444D01*
X165109156Y-91051386D01*
X165057779Y-91004034D01*
X165040100Y-90940223D01*
X165040100Y-86289875D01*
X165059785Y-86222836D01*
X165089785Y-86190612D01*
X165179342Y-86123571D01*
X165371571Y-85931342D01*
X165534487Y-85713713D01*
X165637546Y-85524974D01*
X165664769Y-85475119D01*
X165664769Y-85475117D01*
X165664772Y-85475113D01*
X165759775Y-85220401D01*
X165817561Y-84954760D01*
X165836955Y-84683600D01*
X165836955Y-84683598D01*
X167106245Y-84683598D01*
X167106245Y-84683601D01*
X167125639Y-84954760D01*
X167125640Y-84954767D01*
X167175670Y-85184751D01*
X167183425Y-85220401D01*
X167233324Y-85354184D01*
X167278430Y-85475119D01*
X167408709Y-85713707D01*
X167408710Y-85713708D01*
X167408713Y-85713713D01*
X167571629Y-85931342D01*
X167571633Y-85931346D01*
X167571638Y-85931352D01*
X167763847Y-86123561D01*
X167763853Y-86123566D01*
X167763858Y-86123571D01*
X167981487Y-86286487D01*
X167981491Y-86286489D01*
X167981492Y-86286490D01*
X168220081Y-86416769D01*
X168220080Y-86416769D01*
X168220084Y-86416770D01*
X168220087Y-86416772D01*
X168474799Y-86511775D01*
X168740440Y-86569561D01*
X168992205Y-86587567D01*
X169011599Y-86588955D01*
X169011600Y-86588955D01*
X169011601Y-86588955D01*
X169029700Y-86587660D01*
X169282760Y-86569561D01*
X169548401Y-86511775D01*
X169803113Y-86416772D01*
X169803117Y-86416769D01*
X169803119Y-86416769D01*
X170041702Y-86286493D01*
X170041713Y-86286487D01*
X170259342Y-86123571D01*
X170451571Y-85931342D01*
X170614487Y-85713713D01*
X170717546Y-85524974D01*
X170744769Y-85475119D01*
X170744769Y-85475117D01*
X170744772Y-85475113D01*
X170839775Y-85220401D01*
X170897561Y-84954760D01*
X170916955Y-84683600D01*
X170897561Y-84412440D01*
X170839775Y-84146799D01*
X170744772Y-83892087D01*
X170744770Y-83892084D01*
X170744769Y-83892080D01*
X170614490Y-83653492D01*
X170614489Y-83653491D01*
X170614487Y-83653487D01*
X170451571Y-83435858D01*
X170451566Y-83435853D01*
X170451561Y-83435847D01*
X170259352Y-83243638D01*
X170259346Y-83243633D01*
X170259342Y-83243629D01*
X170041713Y-83080713D01*
X170041708Y-83080710D01*
X170041707Y-83080709D01*
X169803118Y-82950430D01*
X169803119Y-82950430D01*
X169753520Y-82931930D01*
X169548401Y-82855425D01*
X169548394Y-82855423D01*
X169548393Y-82855423D01*
X169282767Y-82797640D01*
X169282760Y-82797639D01*
X169011601Y-82778245D01*
X169011599Y-82778245D01*
X168740439Y-82797639D01*
X168740432Y-82797640D01*
X168474806Y-82855423D01*
X168474802Y-82855424D01*
X168474799Y-82855425D01*
X168356287Y-82899628D01*
X168220080Y-82950430D01*
X167981492Y-83080709D01*
X167981491Y-83080710D01*
X167763859Y-83243628D01*
X167763847Y-83243638D01*
X167571638Y-83435847D01*
X167571628Y-83435859D01*
X167408710Y-83653491D01*
X167408709Y-83653492D01*
X167278430Y-83892080D01*
X167236708Y-84003943D01*
X167183425Y-84146799D01*
X167183424Y-84146802D01*
X167183423Y-84146806D01*
X167125640Y-84412432D01*
X167125639Y-84412439D01*
X167106245Y-84683598D01*
X165836955Y-84683598D01*
X165817561Y-84412440D01*
X165759775Y-84146799D01*
X165664772Y-83892087D01*
X165664770Y-83892084D01*
X165664769Y-83892080D01*
X165534490Y-83653492D01*
X165534489Y-83653491D01*
X165534487Y-83653487D01*
X165371571Y-83435858D01*
X165371566Y-83435853D01*
X165371561Y-83435847D01*
X165179352Y-83243638D01*
X165179346Y-83243633D01*
X165179342Y-83243629D01*
X164961713Y-83080713D01*
X164961708Y-83080710D01*
X164961707Y-83080709D01*
X164723118Y-82950430D01*
X164723119Y-82950430D01*
X164673520Y-82931930D01*
X164468401Y-82855425D01*
X164468394Y-82855423D01*
X164468393Y-82855423D01*
X164202767Y-82797640D01*
X164202760Y-82797639D01*
X163931601Y-82778245D01*
X163931599Y-82778245D01*
X163660439Y-82797639D01*
X163660432Y-82797640D01*
X163394806Y-82855423D01*
X163394802Y-82855424D01*
X163394799Y-82855425D01*
X163276287Y-82899628D01*
X163140080Y-82950430D01*
X162901492Y-83080709D01*
X162901491Y-83080710D01*
X162683859Y-83243628D01*
X162683847Y-83243638D01*
X162491638Y-83435847D01*
X162491628Y-83435859D01*
X162328710Y-83653491D01*
X162328709Y-83653492D01*
X162198430Y-83892080D01*
X162156708Y-84003943D01*
X162103425Y-84146799D01*
X162103424Y-84146802D01*
X162103423Y-84146806D01*
X162045640Y-84412432D01*
X162045639Y-84412439D01*
X162026245Y-84683598D01*
X162026245Y-84683601D01*
X162045639Y-84954760D01*
X162045640Y-84954767D01*
X162095670Y-85184751D01*
X162103425Y-85220401D01*
X162153324Y-85354184D01*
X162198430Y-85475119D01*
X162328709Y-85713707D01*
X162328710Y-85713708D01*
X162328713Y-85713713D01*
X162491629Y-85931342D01*
X162491633Y-85931346D01*
X162491638Y-85931352D01*
X162683847Y-86123561D01*
X162683853Y-86123566D01*
X162683858Y-86123571D01*
X162901487Y-86286487D01*
X162901491Y-86286489D01*
X162901492Y-86286490D01*
X163140081Y-86416769D01*
X163140080Y-86416769D01*
X163140084Y-86416770D01*
X163140087Y-86416772D01*
X163394799Y-86511775D01*
X163660440Y-86569561D01*
X163723946Y-86574103D01*
X163789409Y-86598518D01*
X163831281Y-86654451D01*
X163839100Y-86697786D01*
X163839100Y-92752785D01*
X163819415Y-92819824D01*
X163766611Y-92865579D01*
X163697453Y-92875523D01*
X163649128Y-92857779D01*
X163569923Y-92808011D01*
X163399654Y-92748431D01*
X163399649Y-92748430D01*
X163220404Y-92728235D01*
X163220396Y-92728235D01*
X163041150Y-92748430D01*
X163041145Y-92748431D01*
X162870876Y-92808011D01*
X162718137Y-92903984D01*
X162590584Y-93031537D01*
X162494610Y-93184278D01*
X162435030Y-93354550D01*
X162425237Y-93441468D01*
X162398170Y-93505882D01*
X162389698Y-93515265D01*
X160217281Y-95687683D01*
X160155958Y-95721168D01*
X160086266Y-95716184D01*
X160030333Y-95674312D01*
X160005916Y-95608848D01*
X160005600Y-95600002D01*
X160005600Y-89455315D01*
X160024607Y-89389342D01*
X160117488Y-89241524D01*
X160177068Y-89071254D01*
X160177069Y-89071249D01*
X160197265Y-88892003D01*
X160197265Y-88891996D01*
X160177069Y-88712750D01*
X160177068Y-88712745D01*
X160117488Y-88542476D01*
X160021515Y-88389737D01*
X159893962Y-88262184D01*
X159741224Y-88166212D01*
X159741223Y-88166211D01*
X159688444Y-88147743D01*
X159631669Y-88107021D01*
X159605922Y-88042068D01*
X159605400Y-88030702D01*
X159605400Y-86510937D01*
X159625085Y-86443898D01*
X159669974Y-86402105D01*
X159881702Y-86286493D01*
X159881701Y-86286493D01*
X159881713Y-86286487D01*
X160099342Y-86123571D01*
X160291571Y-85931342D01*
X160454487Y-85713713D01*
X160557546Y-85524974D01*
X160584769Y-85475119D01*
X160584769Y-85475117D01*
X160584772Y-85475113D01*
X160679775Y-85220401D01*
X160737561Y-84954760D01*
X160756955Y-84683600D01*
X160737561Y-84412440D01*
X160679775Y-84146799D01*
X160584772Y-83892087D01*
X160584770Y-83892084D01*
X160584769Y-83892080D01*
X160454490Y-83653492D01*
X160454489Y-83653491D01*
X160454487Y-83653487D01*
X160291571Y-83435858D01*
X160291566Y-83435853D01*
X160291561Y-83435847D01*
X160099352Y-83243638D01*
X160099346Y-83243633D01*
X160099342Y-83243629D01*
X159881713Y-83080713D01*
X159881708Y-83080710D01*
X159881707Y-83080709D01*
X159643118Y-82950430D01*
X159643119Y-82950430D01*
X159593520Y-82931930D01*
X159388401Y-82855425D01*
X159388394Y-82855423D01*
X159388393Y-82855423D01*
X159122767Y-82797640D01*
X159122760Y-82797639D01*
X158851601Y-82778245D01*
X158851599Y-82778245D01*
X158580439Y-82797639D01*
X158580432Y-82797640D01*
X158314806Y-82855423D01*
X158314802Y-82855424D01*
X158314799Y-82855425D01*
X158196287Y-82899628D01*
X158060080Y-82950430D01*
X157821492Y-83080709D01*
X157821491Y-83080710D01*
X157603859Y-83243628D01*
X157603847Y-83243638D01*
X157411638Y-83435847D01*
X157411628Y-83435859D01*
X157248710Y-83653491D01*
X157248709Y-83653492D01*
X157118430Y-83892080D01*
X157076708Y-84003943D01*
X157023425Y-84146799D01*
X157023424Y-84146802D01*
X157023423Y-84146806D01*
X156965640Y-84412432D01*
X156965639Y-84412439D01*
X156946245Y-84683598D01*
X156946245Y-84683601D01*
X156965639Y-84954760D01*
X156965640Y-84954767D01*
X157015670Y-85184751D01*
X157023425Y-85220401D01*
X157073324Y-85354184D01*
X157118430Y-85475119D01*
X157248709Y-85713707D01*
X157248710Y-85713708D01*
X157248713Y-85713713D01*
X157411629Y-85931342D01*
X157411633Y-85931346D01*
X157411638Y-85931352D01*
X157603847Y-86123561D01*
X157603853Y-86123566D01*
X157603858Y-86123571D01*
X157682492Y-86182436D01*
X157724363Y-86238370D01*
X157729347Y-86308062D01*
X157713175Y-86347675D01*
X157673209Y-86411280D01*
X157624699Y-86549914D01*
X157583978Y-86606690D01*
X157519025Y-86632437D01*
X157450463Y-86618981D01*
X157419977Y-86596640D01*
X157383797Y-86560460D01*
X157383774Y-86560439D01*
X156788800Y-85965465D01*
X156755315Y-85904142D01*
X156753263Y-85891686D01*
X156743468Y-85804745D01*
X156683889Y-85634478D01*
X156587916Y-85481738D01*
X156460362Y-85354184D01*
X156307623Y-85258211D01*
X156137354Y-85198631D01*
X156137349Y-85198630D01*
X155958104Y-85178435D01*
X155958096Y-85178435D01*
X155809982Y-85195123D01*
X155741160Y-85183068D01*
X155689781Y-85135719D01*
X155672099Y-85071903D01*
X155672099Y-83235729D01*
X155672098Y-83235723D01*
X155672097Y-83235716D01*
X155665691Y-83176117D01*
X155665245Y-83174922D01*
X155615397Y-83041271D01*
X155615393Y-83041264D01*
X155529147Y-82926055D01*
X155529144Y-82926052D01*
X155413935Y-82839806D01*
X155413928Y-82839802D01*
X155279082Y-82789508D01*
X155279083Y-82789508D01*
X155219483Y-82783101D01*
X155219481Y-82783100D01*
X155219473Y-82783100D01*
X155219464Y-82783100D01*
X152323729Y-82783100D01*
X152323723Y-82783101D01*
X152264116Y-82789508D01*
X152129271Y-82839802D01*
X152129264Y-82839806D01*
X152014055Y-82926052D01*
X152014052Y-82926055D01*
X151927806Y-83041264D01*
X151927802Y-83041271D01*
X151877508Y-83176117D01*
X151871101Y-83235716D01*
X151871101Y-83235723D01*
X151871100Y-83235735D01*
X151871100Y-86131470D01*
X151871101Y-86131476D01*
X151877508Y-86191083D01*
X151927802Y-86325928D01*
X151927806Y-86325935D01*
X152014052Y-86441144D01*
X152014055Y-86441147D01*
X152129264Y-86527393D01*
X152129271Y-86527397D01*
X152264117Y-86577691D01*
X152264116Y-86577691D01*
X152271044Y-86578435D01*
X152323727Y-86584100D01*
X154845816Y-86584099D01*
X154912855Y-86603784D01*
X154958610Y-86656587D01*
X154968554Y-86725746D01*
X154962862Y-86749041D01*
X154962232Y-86750840D01*
X154962231Y-86750846D01*
X154942035Y-86930096D01*
X154942035Y-86930103D01*
X154962230Y-87109349D01*
X154962231Y-87109354D01*
X155021811Y-87279623D01*
X155117784Y-87432362D01*
X155245338Y-87559916D01*
X155398078Y-87655889D01*
X155568345Y-87715468D01*
X155655269Y-87725261D01*
X155719680Y-87752326D01*
X155729065Y-87760800D01*
X155845481Y-87877216D01*
X155878966Y-87938539D01*
X155881800Y-87964897D01*
X155881800Y-97440706D01*
X155862115Y-97507745D01*
X155809311Y-97553500D01*
X155771684Y-97563926D01*
X155650049Y-97577630D01*
X155650045Y-97577631D01*
X155479776Y-97637211D01*
X155327037Y-97733184D01*
X155199484Y-97860737D01*
X155103510Y-98013478D01*
X155043930Y-98183750D01*
X155034137Y-98270668D01*
X155007070Y-98335082D01*
X154998598Y-98344465D01*
X152545681Y-100797383D01*
X152484358Y-100830868D01*
X152414666Y-100825884D01*
X152358733Y-100784012D01*
X152334316Y-100718548D01*
X152334000Y-100709702D01*
X152334000Y-99109112D01*
X152353685Y-99042073D01*
X152361055Y-99031797D01*
X152363310Y-99028967D01*
X152363316Y-99028962D01*
X152459289Y-98876222D01*
X152518868Y-98705955D01*
X152539065Y-98526700D01*
X152518868Y-98347445D01*
X152459289Y-98177178D01*
X152363316Y-98024438D01*
X152235762Y-97896884D01*
X152178236Y-97860738D01*
X152083023Y-97800911D01*
X151912754Y-97741331D01*
X151912749Y-97741330D01*
X151733504Y-97721135D01*
X151733496Y-97721135D01*
X151554250Y-97741330D01*
X151554245Y-97741331D01*
X151383976Y-97800911D01*
X151231237Y-97896884D01*
X151103684Y-98024437D01*
X151007711Y-98177176D01*
X150948131Y-98347445D01*
X150948130Y-98347450D01*
X150927935Y-98526696D01*
X150927935Y-98526703D01*
X150948130Y-98705949D01*
X150948131Y-98705954D01*
X151007711Y-98876223D01*
X151103685Y-99028963D01*
X151105945Y-99031797D01*
X151106834Y-99033975D01*
X151107389Y-99034858D01*
X151107234Y-99034955D01*
X151132355Y-99096483D01*
X151133000Y-99109112D01*
X151133000Y-100550402D01*
X151113315Y-100617441D01*
X151096681Y-100638083D01*
X149491402Y-102243362D01*
X149430079Y-102276847D01*
X149360387Y-102271863D01*
X149316040Y-102243362D01*
X149303262Y-102230584D01*
X149150523Y-102134611D01*
X148980254Y-102075031D01*
X148980249Y-102075030D01*
X148801004Y-102054835D01*
X148800996Y-102054835D01*
X148621750Y-102075030D01*
X148621745Y-102075031D01*
X148451476Y-102134611D01*
X148298736Y-102230585D01*
X148295903Y-102232845D01*
X148293724Y-102233734D01*
X148292842Y-102234289D01*
X148292744Y-102234134D01*
X148231217Y-102259255D01*
X148218588Y-102259900D01*
X146957269Y-102259900D01*
X146957253Y-102259899D01*
X146949657Y-102259899D01*
X146791543Y-102259899D01*
X146684187Y-102288665D01*
X146638810Y-102300824D01*
X146638809Y-102300825D01*
X146588696Y-102329759D01*
X146588695Y-102329760D01*
X146545289Y-102354820D01*
X146501885Y-102379879D01*
X146501882Y-102379881D01*
X141637581Y-107244182D01*
X141637577Y-107244187D01*
X141592471Y-107322315D01*
X141592471Y-107322316D01*
X141558523Y-107381114D01*
X141558523Y-107381115D01*
X141517599Y-107533843D01*
X141517599Y-107533845D01*
X141517599Y-107701946D01*
X141517600Y-107701959D01*
X141517600Y-112945802D01*
X141497915Y-113012841D01*
X141481281Y-113033483D01*
X137611289Y-116903474D01*
X137549966Y-116936959D01*
X137480274Y-116931975D01*
X137424341Y-116890103D01*
X137399924Y-116824639D01*
X137404342Y-116781859D01*
X137430932Y-116688405D01*
X137449836Y-116484400D01*
X137433072Y-116303492D01*
X137446487Y-116234924D01*
X137468859Y-116204374D01*
X138995620Y-114677616D01*
X139074677Y-114540684D01*
X139115601Y-114387957D01*
X139115601Y-114229842D01*
X139115601Y-114222247D01*
X139115600Y-114222229D01*
X139115600Y-91571312D01*
X139135285Y-91504273D01*
X139142655Y-91493997D01*
X139144910Y-91491167D01*
X139144916Y-91491162D01*
X139240889Y-91338422D01*
X139300468Y-91168155D01*
X139312266Y-91063444D01*
X139320665Y-90988903D01*
X139320665Y-90988896D01*
X139300469Y-90809650D01*
X139300468Y-90809645D01*
X139240888Y-90639376D01*
X139144915Y-90486637D01*
X139017362Y-90359084D01*
X138864623Y-90263111D01*
X138694354Y-90203531D01*
X138694349Y-90203530D01*
X138515104Y-90183335D01*
X138515096Y-90183335D01*
X138335850Y-90203530D01*
X138335845Y-90203531D01*
X138165576Y-90263111D01*
X138012837Y-90359084D01*
X137885284Y-90486637D01*
X137789311Y-90639376D01*
X137729731Y-90809645D01*
X137729730Y-90809650D01*
X137720119Y-90894958D01*
X137693053Y-90959372D01*
X137635458Y-90998928D01*
X137610783Y-91004295D01*
X137519049Y-91014630D01*
X137519045Y-91014631D01*
X137348776Y-91074211D01*
X137196037Y-91170184D01*
X137068484Y-91297737D01*
X136972510Y-91450478D01*
X136912930Y-91620750D01*
X136903137Y-91707668D01*
X136876070Y-91772082D01*
X136867598Y-91781465D01*
X135970886Y-92678178D01*
X135859082Y-92789981D01*
X135859080Y-92789983D01*
X135848672Y-92808011D01*
X135838680Y-92825319D01*
X135780023Y-92926915D01*
X135739099Y-93079643D01*
X135739099Y-93079645D01*
X135739099Y-93247746D01*
X135739100Y-93247759D01*
X135739100Y-112721886D01*
X135719415Y-112788925D01*
X135666611Y-112834680D01*
X135634650Y-112843448D01*
X135634668Y-112843524D01*
X135632551Y-112844024D01*
X135628353Y-112845176D01*
X135627116Y-112845308D01*
X135492271Y-112895602D01*
X135492264Y-112895606D01*
X135377055Y-112981852D01*
X135377052Y-112981855D01*
X135290806Y-113097064D01*
X135290802Y-113097071D01*
X135240508Y-113231917D01*
X135234976Y-113283375D01*
X135234101Y-113291523D01*
X135234100Y-113291535D01*
X135234100Y-114597270D01*
X135234101Y-114597276D01*
X135240508Y-114656883D01*
X135290802Y-114791728D01*
X135290806Y-114791735D01*
X135377052Y-114906944D01*
X135377055Y-114906947D01*
X135492264Y-114993193D01*
X135492271Y-114993197D01*
X135627117Y-115043491D01*
X135627116Y-115043491D01*
X135634044Y-115044235D01*
X135686727Y-115049900D01*
X136625502Y-115049899D01*
X136692541Y-115069583D01*
X136738296Y-115122387D01*
X136748240Y-115191546D01*
X136719215Y-115255102D01*
X136713183Y-115261580D01*
X136617855Y-115356908D01*
X136556532Y-115390393D01*
X136507389Y-115391115D01*
X136442040Y-115378900D01*
X136237160Y-115378900D01*
X136035769Y-115416547D01*
X136035766Y-115416547D01*
X136035766Y-115416548D01*
X135844722Y-115490558D01*
X135670531Y-115598414D01*
X135519127Y-115736436D01*
X135395658Y-115899935D01*
X135304337Y-116083332D01*
X135304336Y-116083336D01*
X135252922Y-116264040D01*
X135248267Y-116280399D01*
X135229364Y-116484399D01*
X135229364Y-116484400D01*
X135248267Y-116688400D01*
X135248267Y-116688402D01*
X135248268Y-116688405D01*
X135274858Y-116781859D01*
X135304337Y-116885467D01*
X135395658Y-117068864D01*
X135519127Y-117232363D01*
X135632812Y-117336000D01*
X135670533Y-117370387D01*
X135844725Y-117478243D01*
X136035769Y-117552253D01*
X136237160Y-117589900D01*
X136237162Y-117589900D01*
X136442038Y-117589900D01*
X136442040Y-117589900D01*
X136642258Y-117552472D01*
X136711771Y-117559503D01*
X136766449Y-117603000D01*
X136788932Y-117669154D01*
X136772079Y-117736961D01*
X136752725Y-117762038D01*
X136680862Y-117833902D01*
X136617855Y-117896909D01*
X136556532Y-117930393D01*
X136507389Y-117931115D01*
X136442040Y-117918900D01*
X136237160Y-117918900D01*
X136035769Y-117956547D01*
X136035766Y-117956547D01*
X136035766Y-117956548D01*
X135844722Y-118030558D01*
X135670531Y-118138414D01*
X135519127Y-118276436D01*
X135395658Y-118439935D01*
X135304337Y-118623332D01*
X135248267Y-118820399D01*
X135229364Y-119024399D01*
X135229364Y-119024400D01*
X135248267Y-119228400D01*
X135248267Y-119228402D01*
X135248268Y-119228405D01*
X135279725Y-119338965D01*
X135304337Y-119425467D01*
X135395658Y-119608864D01*
X135519127Y-119772363D01*
X135649377Y-119891101D01*
X135670533Y-119910387D01*
X135844725Y-120018243D01*
X136035769Y-120092253D01*
X136237160Y-120129900D01*
X136237162Y-120129900D01*
X136442038Y-120129900D01*
X136442040Y-120129900D01*
X136643431Y-120092253D01*
X136834475Y-120018243D01*
X137008667Y-119910387D01*
X137160074Y-119772361D01*
X137283542Y-119608864D01*
X137374864Y-119425464D01*
X137430932Y-119228405D01*
X137449836Y-119024400D01*
X137433072Y-118843492D01*
X137446487Y-118774924D01*
X137468859Y-118744374D01*
X142476606Y-113736628D01*
X142476611Y-113736624D01*
X142486814Y-113726420D01*
X142486816Y-113726420D01*
X142556419Y-113656817D01*
X142617742Y-113623332D01*
X142687434Y-113628316D01*
X142743367Y-113670188D01*
X142767784Y-113735652D01*
X142768100Y-113744498D01*
X142768100Y-118026730D01*
X142768099Y-118026748D01*
X142768099Y-118192454D01*
X142768098Y-118192454D01*
X142768099Y-118192457D01*
X142790601Y-118276436D01*
X142809024Y-118345187D01*
X142819524Y-118363373D01*
X142819525Y-118363375D01*
X142888077Y-118482112D01*
X142888081Y-118482117D01*
X143006949Y-118600985D01*
X143006955Y-118600990D01*
X143150337Y-118744372D01*
X143183822Y-118805695D01*
X143186127Y-118843494D01*
X143169364Y-119024399D01*
X143169364Y-119024400D01*
X143188267Y-119228400D01*
X143188267Y-119228402D01*
X143188268Y-119228405D01*
X143219725Y-119338965D01*
X143244337Y-119425467D01*
X143335658Y-119608864D01*
X143459125Y-119772360D01*
X143608274Y-119908328D01*
X143644555Y-119968040D01*
X143642794Y-120037887D01*
X143612416Y-120087646D01*
X135028466Y-128671597D01*
X134967143Y-128705082D01*
X134949632Y-128707600D01*
X134764542Y-128720838D01*
X134764529Y-128720840D01*
X134498906Y-128778623D01*
X134498902Y-128778624D01*
X134498899Y-128778625D01*
X134403388Y-128814249D01*
X134244180Y-128873630D01*
X134005592Y-129003909D01*
X134005591Y-129003910D01*
X133787959Y-129166828D01*
X133787947Y-129166838D01*
X133595738Y-129359047D01*
X133595728Y-129359059D01*
X133432810Y-129576691D01*
X133432809Y-129576692D01*
X133302530Y-129815280D01*
X133280840Y-129873435D01*
X133207525Y-130069999D01*
X133207524Y-130070002D01*
X133207523Y-130070006D01*
X133149740Y-130335632D01*
X133149739Y-130335639D01*
X133130345Y-130606798D01*
X131856199Y-130606798D01*
X131856199Y-129158928D01*
X131849791Y-129099317D01*
X131849160Y-129097626D01*
X131799497Y-128964471D01*
X131799493Y-128964464D01*
X131713247Y-128849255D01*
X131713244Y-128849252D01*
X131598035Y-128763006D01*
X131598028Y-128763002D01*
X131463182Y-128712708D01*
X131463183Y-128712708D01*
X131403583Y-128706301D01*
X131403581Y-128706300D01*
X131403573Y-128706300D01*
X131403564Y-128706300D01*
X128507829Y-128706300D01*
X128507823Y-128706301D01*
X128448216Y-128712708D01*
X128313371Y-128763002D01*
X128313364Y-128763006D01*
X128198155Y-128849252D01*
X128198152Y-128849255D01*
X128111906Y-128964464D01*
X128111902Y-128964471D01*
X128061608Y-129099317D01*
X128056136Y-129150220D01*
X128055201Y-129158923D01*
X128055200Y-129158935D01*
X125196509Y-129158935D01*
X125169800Y-121626800D01*
X127014723Y-121626800D01*
X127027111Y-121768405D01*
X127033793Y-121844775D01*
X127033793Y-121844779D01*
X127090422Y-122056122D01*
X127090424Y-122056126D01*
X127090425Y-122056130D01*
X127106900Y-122091461D01*
X127182897Y-122254438D01*
X127182898Y-122254439D01*
X127308402Y-122433677D01*
X127463123Y-122588398D01*
X127642361Y-122713902D01*
X127840670Y-122806375D01*
X128052023Y-122863007D01*
X128234926Y-122879008D01*
X128269998Y-122882077D01*
X128270000Y-122882077D01*
X128270002Y-122882077D01*
X128298254Y-122879605D01*
X128487977Y-122863007D01*
X128699330Y-122806375D01*
X128897639Y-122713902D01*
X129076877Y-122588398D01*
X129231598Y-122433677D01*
X129357102Y-122254439D01*
X129449575Y-122056130D01*
X129506207Y-121844777D01*
X129525277Y-121626800D01*
X129519818Y-121564399D01*
X135229866Y-121564399D01*
X135229866Y-121564400D01*
X135248760Y-121768312D01*
X135304803Y-121965279D01*
X135304808Y-121965292D01*
X135396085Y-122148601D01*
X135396086Y-122148602D01*
X135398562Y-122151881D01*
X135398563Y-122151882D01*
X135913791Y-121636654D01*
X135938904Y-121730374D01*
X135995515Y-121828426D01*
X136075574Y-121908485D01*
X136173626Y-121965096D01*
X136267345Y-121990208D01*
X135755279Y-122502272D01*
X135755280Y-122502273D01*
X135844945Y-122557790D01*
X135844951Y-122557793D01*
X136035908Y-122631770D01*
X136237210Y-122669400D01*
X136441990Y-122669400D01*
X136643290Y-122631770D01*
X136643291Y-122631770D01*
X136834248Y-122557793D01*
X136834249Y-122557793D01*
X136923919Y-122502272D01*
X136411855Y-121990208D01*
X136505574Y-121965096D01*
X136603626Y-121908485D01*
X136683685Y-121828426D01*
X136740296Y-121730374D01*
X136765408Y-121636654D01*
X137280635Y-122151882D01*
X137280636Y-122151881D01*
X137283117Y-122148596D01*
X137374389Y-121965297D01*
X137374396Y-121965279D01*
X137430439Y-121768312D01*
X137449334Y-121564400D01*
X137449334Y-121564399D01*
X137430439Y-121360487D01*
X137374396Y-121163520D01*
X137374389Y-121163502D01*
X137283117Y-120980203D01*
X137280635Y-120976916D01*
X136765408Y-121492144D01*
X136740296Y-121398426D01*
X136683685Y-121300374D01*
X136603626Y-121220315D01*
X136505574Y-121163704D01*
X136411854Y-121138591D01*
X136923919Y-120626526D01*
X136834251Y-120571007D01*
X136834248Y-120571006D01*
X136643291Y-120497029D01*
X136441990Y-120459400D01*
X136237210Y-120459400D01*
X136035909Y-120497029D01*
X136035908Y-120497029D01*
X135844952Y-120571005D01*
X135844949Y-120571007D01*
X135755280Y-120626526D01*
X136267345Y-121138591D01*
X136173626Y-121163704D01*
X136075574Y-121220315D01*
X135995515Y-121300374D01*
X135938904Y-121398426D01*
X135913791Y-121492144D01*
X135398563Y-120976916D01*
X135398562Y-120976916D01*
X135396087Y-120980196D01*
X135396085Y-120980199D01*
X135304808Y-121163507D01*
X135304803Y-121163520D01*
X135248760Y-121360487D01*
X135229866Y-121564399D01*
X129519818Y-121564399D01*
X129506207Y-121408823D01*
X129449575Y-121197470D01*
X129357102Y-120999162D01*
X129357100Y-120999159D01*
X129357099Y-120999157D01*
X129231599Y-120819924D01*
X129231596Y-120819921D01*
X129076877Y-120665202D01*
X128897639Y-120539698D01*
X128897640Y-120539698D01*
X128897638Y-120539697D01*
X128725439Y-120459400D01*
X128699330Y-120447225D01*
X128699326Y-120447224D01*
X128699322Y-120447222D01*
X128487977Y-120390593D01*
X128270002Y-120371523D01*
X128269998Y-120371523D01*
X128124682Y-120384236D01*
X128052023Y-120390593D01*
X128052020Y-120390593D01*
X127840677Y-120447222D01*
X127840668Y-120447226D01*
X127642361Y-120539698D01*
X127642357Y-120539700D01*
X127463121Y-120665202D01*
X127308402Y-120819921D01*
X127182900Y-120999157D01*
X127182898Y-120999161D01*
X127090426Y-121197468D01*
X127090422Y-121197477D01*
X127033793Y-121408820D01*
X127033793Y-121408823D01*
X127014723Y-121626800D01*
X125169800Y-121626800D01*
X125152495Y-116746800D01*
X127014723Y-116746800D01*
X127026854Y-116885467D01*
X127033793Y-116964775D01*
X127033793Y-116964779D01*
X127090422Y-117176122D01*
X127090424Y-117176126D01*
X127090425Y-117176130D01*
X127104075Y-117205402D01*
X127182897Y-117374438D01*
X127182898Y-117374439D01*
X127308402Y-117553677D01*
X127463123Y-117708398D01*
X127642361Y-117833902D01*
X127840670Y-117926375D01*
X127840676Y-117926376D01*
X127840677Y-117926377D01*
X127871364Y-117934599D01*
X128052023Y-117983007D01*
X128234926Y-117999008D01*
X128269998Y-118002077D01*
X128270000Y-118002077D01*
X128270002Y-118002077D01*
X128298254Y-117999605D01*
X128487977Y-117983007D01*
X128699330Y-117926375D01*
X128897639Y-117833902D01*
X129076877Y-117708398D01*
X129231598Y-117553677D01*
X129357102Y-117374439D01*
X129449575Y-117176130D01*
X129506207Y-116964777D01*
X129525277Y-116746800D01*
X129506207Y-116528823D01*
X129449575Y-116317470D01*
X129357102Y-116119162D01*
X129357100Y-116119159D01*
X129357099Y-116119157D01*
X129231599Y-115939924D01*
X129191610Y-115899935D01*
X129076877Y-115785202D01*
X128923096Y-115677523D01*
X128897638Y-115659697D01*
X128766213Y-115598413D01*
X128699330Y-115567225D01*
X128699326Y-115567224D01*
X128699322Y-115567222D01*
X128487977Y-115510593D01*
X128270002Y-115491523D01*
X128269998Y-115491523D01*
X128124682Y-115504236D01*
X128052023Y-115510593D01*
X128052020Y-115510593D01*
X127840677Y-115567222D01*
X127840668Y-115567226D01*
X127642361Y-115659698D01*
X127642357Y-115659700D01*
X127463121Y-115785202D01*
X127308402Y-115939921D01*
X127182900Y-116119157D01*
X127182898Y-116119161D01*
X127090426Y-116317468D01*
X127090422Y-116317477D01*
X127033793Y-116528820D01*
X127033793Y-116528824D01*
X127018610Y-116702375D01*
X127014723Y-116746800D01*
X125152495Y-116746800D01*
X125108853Y-104439798D01*
X126263547Y-104439798D01*
X126263547Y-104439801D01*
X126282936Y-104710890D01*
X126282937Y-104710897D01*
X126340705Y-104976454D01*
X126435685Y-105231106D01*
X126435687Y-105231110D01*
X126565932Y-105469635D01*
X126565937Y-105469643D01*
X126659721Y-105594923D01*
X126659722Y-105594924D01*
X127395946Y-104858700D01*
X127488743Y-104997580D01*
X127610620Y-105119457D01*
X127749498Y-105212252D01*
X127013274Y-105948476D01*
X127138563Y-106042266D01*
X127138564Y-106042267D01*
X127377089Y-106172512D01*
X127377093Y-106172514D01*
X127631745Y-106267494D01*
X127897302Y-106325262D01*
X127897309Y-106325263D01*
X128168399Y-106344653D01*
X128168401Y-106344653D01*
X128439490Y-106325263D01*
X128439497Y-106325262D01*
X128705054Y-106267494D01*
X128959706Y-106172514D01*
X128959710Y-106172512D01*
X129198244Y-106042262D01*
X129323523Y-105948477D01*
X129323524Y-105948476D01*
X128587300Y-105212253D01*
X128726180Y-105119457D01*
X128848057Y-104997580D01*
X128940853Y-104858700D01*
X129677076Y-105594924D01*
X129677077Y-105594923D01*
X129770862Y-105469644D01*
X129901112Y-105231110D01*
X129901114Y-105231106D01*
X129996094Y-104976454D01*
X130053862Y-104710897D01*
X130053863Y-104710890D01*
X130073253Y-104439801D01*
X130073253Y-104439798D01*
X130053863Y-104168709D01*
X130053862Y-104168702D01*
X129996094Y-103903145D01*
X129901114Y-103648493D01*
X129901112Y-103648489D01*
X129770867Y-103409964D01*
X129770866Y-103409963D01*
X129677076Y-103284674D01*
X128940852Y-104020898D01*
X128848057Y-103882020D01*
X128726180Y-103760143D01*
X128587299Y-103667345D01*
X129323524Y-102931122D01*
X129323523Y-102931121D01*
X129198243Y-102837337D01*
X129198235Y-102837332D01*
X128959710Y-102707087D01*
X128959706Y-102707085D01*
X128705054Y-102612105D01*
X128439497Y-102554337D01*
X128439490Y-102554336D01*
X128168401Y-102534947D01*
X128168399Y-102534947D01*
X127897309Y-102554336D01*
X127897302Y-102554337D01*
X127631745Y-102612105D01*
X127377093Y-102707085D01*
X127377089Y-102707087D01*
X127138564Y-102837332D01*
X127138556Y-102837337D01*
X127013275Y-102931121D01*
X127013274Y-102931122D01*
X127749499Y-103667346D01*
X127610620Y-103760143D01*
X127488743Y-103882020D01*
X127395946Y-104020899D01*
X126659722Y-103284674D01*
X126659721Y-103284675D01*
X126565937Y-103409956D01*
X126565932Y-103409964D01*
X126435687Y-103648489D01*
X126435685Y-103648493D01*
X126340705Y-103903145D01*
X126282937Y-104168702D01*
X126282936Y-104168709D01*
X126263547Y-104439798D01*
X125108853Y-104439798D01*
X125085704Y-97911935D01*
X126267900Y-97911935D01*
X126267900Y-100807670D01*
X126267901Y-100807676D01*
X126274308Y-100867283D01*
X126324602Y-101002128D01*
X126324606Y-101002135D01*
X126410852Y-101117344D01*
X126410855Y-101117347D01*
X126526064Y-101203593D01*
X126526071Y-101203597D01*
X126660917Y-101253891D01*
X126660916Y-101253891D01*
X126667844Y-101254635D01*
X126720527Y-101260300D01*
X129616272Y-101260299D01*
X129675883Y-101253891D01*
X129810731Y-101203596D01*
X129925946Y-101117346D01*
X130012196Y-101002131D01*
X130062491Y-100867283D01*
X130068900Y-100807673D01*
X130068899Y-97911928D01*
X130062491Y-97852317D01*
X130021096Y-97741332D01*
X130012197Y-97717471D01*
X130012193Y-97717464D01*
X129925947Y-97602255D01*
X129925944Y-97602252D01*
X129810735Y-97516006D01*
X129810728Y-97516002D01*
X129675882Y-97465708D01*
X129675883Y-97465708D01*
X129616283Y-97459301D01*
X129616281Y-97459300D01*
X129616273Y-97459300D01*
X129616264Y-97459300D01*
X126720529Y-97459300D01*
X126720523Y-97459301D01*
X126660916Y-97465708D01*
X126526071Y-97516002D01*
X126526064Y-97516006D01*
X126410855Y-97602252D01*
X126410852Y-97602255D01*
X126324606Y-97717464D01*
X126324602Y-97717471D01*
X126274308Y-97852317D01*
X126269517Y-97896884D01*
X126267901Y-97911923D01*
X126267900Y-97911935D01*
X125085704Y-97911935D01*
X125033481Y-83184935D01*
X126928300Y-83184935D01*
X126928300Y-86080670D01*
X126928301Y-86080676D01*
X126934708Y-86140283D01*
X126985002Y-86275128D01*
X126985006Y-86275135D01*
X127071252Y-86390344D01*
X127071255Y-86390347D01*
X127186464Y-86476593D01*
X127186471Y-86476597D01*
X127321317Y-86526891D01*
X127321316Y-86526891D01*
X127325986Y-86527393D01*
X127380927Y-86533300D01*
X130276672Y-86533299D01*
X130336283Y-86526891D01*
X130471131Y-86476596D01*
X130586346Y-86390346D01*
X130672596Y-86275131D01*
X130722891Y-86140283D01*
X130729300Y-86080673D01*
X130729299Y-84632798D01*
X132003445Y-84632798D01*
X132003445Y-84632801D01*
X132022839Y-84903960D01*
X132022840Y-84903967D01*
X132073476Y-85136737D01*
X132080625Y-85169601D01*
X132109417Y-85246794D01*
X132175630Y-85424319D01*
X132305909Y-85662907D01*
X132305910Y-85662908D01*
X132305913Y-85662913D01*
X132468829Y-85880542D01*
X132468833Y-85880546D01*
X132468838Y-85880552D01*
X132661047Y-86072761D01*
X132661053Y-86072766D01*
X132661058Y-86072771D01*
X132878687Y-86235687D01*
X132878691Y-86235689D01*
X132878692Y-86235690D01*
X133117281Y-86365969D01*
X133117280Y-86365969D01*
X133117284Y-86365970D01*
X133117287Y-86365972D01*
X133371999Y-86460975D01*
X133637640Y-86518761D01*
X133889405Y-86536767D01*
X133908799Y-86538155D01*
X133908800Y-86538155D01*
X133908801Y-86538155D01*
X133926900Y-86536860D01*
X134179960Y-86518761D01*
X134445601Y-86460975D01*
X134700313Y-86365972D01*
X134700317Y-86365969D01*
X134700319Y-86365969D01*
X134845879Y-86286487D01*
X134938913Y-86235687D01*
X135156542Y-86072771D01*
X135348771Y-85880542D01*
X135511687Y-85662913D01*
X135614346Y-85474906D01*
X135641969Y-85424319D01*
X135641969Y-85424317D01*
X135641972Y-85424313D01*
X135736975Y-85169601D01*
X135794761Y-84903960D01*
X135814155Y-84632800D01*
X135814155Y-84632798D01*
X137083445Y-84632798D01*
X137083445Y-84632801D01*
X137102839Y-84903960D01*
X137102840Y-84903967D01*
X137153476Y-85136737D01*
X137160625Y-85169601D01*
X137189417Y-85246794D01*
X137255630Y-85424319D01*
X137385909Y-85662907D01*
X137385910Y-85662908D01*
X137385913Y-85662913D01*
X137548829Y-85880542D01*
X137548833Y-85880546D01*
X137548838Y-85880552D01*
X137741047Y-86072761D01*
X137741053Y-86072766D01*
X137741058Y-86072771D01*
X137958687Y-86235687D01*
X137958691Y-86235689D01*
X137958692Y-86235690D01*
X138197281Y-86365969D01*
X138197280Y-86365969D01*
X138197284Y-86365970D01*
X138197287Y-86365972D01*
X138451999Y-86460975D01*
X138717640Y-86518761D01*
X138969405Y-86536767D01*
X138988799Y-86538155D01*
X138988800Y-86538155D01*
X138988801Y-86538155D01*
X139006900Y-86536860D01*
X139259960Y-86518761D01*
X139525601Y-86460975D01*
X139780313Y-86365972D01*
X139780317Y-86365969D01*
X139780319Y-86365969D01*
X139925879Y-86286487D01*
X140018913Y-86235687D01*
X140236542Y-86072771D01*
X140428771Y-85880542D01*
X140591687Y-85662913D01*
X140694346Y-85474906D01*
X140721969Y-85424319D01*
X140721969Y-85424317D01*
X140721972Y-85424313D01*
X140816975Y-85169601D01*
X140874761Y-84903960D01*
X140894155Y-84632800D01*
X140894155Y-84632798D01*
X142163445Y-84632798D01*
X142163445Y-84632801D01*
X142182839Y-84903960D01*
X142182840Y-84903967D01*
X142233476Y-85136737D01*
X142240625Y-85169601D01*
X142269417Y-85246794D01*
X142335630Y-85424319D01*
X142465909Y-85662907D01*
X142465910Y-85662908D01*
X142465913Y-85662913D01*
X142628829Y-85880542D01*
X142628833Y-85880546D01*
X142628838Y-85880552D01*
X142821047Y-86072761D01*
X142821053Y-86072766D01*
X142821058Y-86072771D01*
X143038687Y-86235687D01*
X143038691Y-86235689D01*
X143038692Y-86235690D01*
X143277281Y-86365969D01*
X143277280Y-86365969D01*
X143277284Y-86365970D01*
X143277287Y-86365972D01*
X143531999Y-86460975D01*
X143797640Y-86518761D01*
X144049405Y-86536767D01*
X144068799Y-86538155D01*
X144068800Y-86538155D01*
X144068801Y-86538155D01*
X144086900Y-86536860D01*
X144339960Y-86518761D01*
X144605601Y-86460975D01*
X144860313Y-86365972D01*
X144860317Y-86365969D01*
X144860319Y-86365969D01*
X145005879Y-86286487D01*
X145098913Y-86235687D01*
X145316542Y-86072771D01*
X145508771Y-85880542D01*
X145671687Y-85662913D01*
X145774346Y-85474906D01*
X145801969Y-85424319D01*
X145801969Y-85424317D01*
X145801972Y-85424313D01*
X145896975Y-85169601D01*
X145954761Y-84903960D01*
X145974155Y-84632800D01*
X145954761Y-84361640D01*
X145896975Y-84095999D01*
X145801972Y-83841287D01*
X145801970Y-83841284D01*
X145801969Y-83841280D01*
X145671690Y-83602692D01*
X145671689Y-83602691D01*
X145671687Y-83602687D01*
X145508771Y-83385058D01*
X145508766Y-83385053D01*
X145508761Y-83385047D01*
X145316552Y-83192838D01*
X145316546Y-83192833D01*
X145316542Y-83192829D01*
X145098913Y-83029913D01*
X145098908Y-83029910D01*
X145098907Y-83029909D01*
X144860318Y-82899630D01*
X144860319Y-82899630D01*
X144810720Y-82881130D01*
X144605601Y-82804625D01*
X144605594Y-82804623D01*
X144605593Y-82804623D01*
X144339967Y-82746840D01*
X144339960Y-82746839D01*
X144068801Y-82727445D01*
X144068799Y-82727445D01*
X143797639Y-82746839D01*
X143797632Y-82746840D01*
X143532006Y-82804623D01*
X143532002Y-82804624D01*
X143531999Y-82804625D01*
X143404643Y-82852126D01*
X143277280Y-82899630D01*
X143038692Y-83029909D01*
X143038691Y-83029910D01*
X142821059Y-83192828D01*
X142821047Y-83192838D01*
X142628838Y-83385047D01*
X142628828Y-83385059D01*
X142465910Y-83602691D01*
X142465909Y-83602692D01*
X142335630Y-83841280D01*
X142316264Y-83893203D01*
X142240625Y-84095999D01*
X142240624Y-84096002D01*
X142240623Y-84096006D01*
X142182840Y-84361632D01*
X142182839Y-84361639D01*
X142163445Y-84632798D01*
X140894155Y-84632798D01*
X140874761Y-84361640D01*
X140816975Y-84095999D01*
X140721972Y-83841287D01*
X140721970Y-83841284D01*
X140721969Y-83841280D01*
X140591690Y-83602692D01*
X140591689Y-83602691D01*
X140591687Y-83602687D01*
X140428771Y-83385058D01*
X140428766Y-83385053D01*
X140428761Y-83385047D01*
X140236552Y-83192838D01*
X140236546Y-83192833D01*
X140236542Y-83192829D01*
X140018913Y-83029913D01*
X140018908Y-83029910D01*
X140018907Y-83029909D01*
X139780318Y-82899630D01*
X139780319Y-82899630D01*
X139730720Y-82881130D01*
X139525601Y-82804625D01*
X139525594Y-82804623D01*
X139525593Y-82804623D01*
X139259967Y-82746840D01*
X139259960Y-82746839D01*
X138988801Y-82727445D01*
X138988799Y-82727445D01*
X138717639Y-82746839D01*
X138717632Y-82746840D01*
X138452006Y-82804623D01*
X138452002Y-82804624D01*
X138451999Y-82804625D01*
X138324643Y-82852126D01*
X138197280Y-82899630D01*
X137958692Y-83029909D01*
X137958691Y-83029910D01*
X137741059Y-83192828D01*
X137741047Y-83192838D01*
X137548838Y-83385047D01*
X137548828Y-83385059D01*
X137385910Y-83602691D01*
X137385909Y-83602692D01*
X137255630Y-83841280D01*
X137236264Y-83893203D01*
X137160625Y-84095999D01*
X137160624Y-84096002D01*
X137160623Y-84096006D01*
X137102840Y-84361632D01*
X137102839Y-84361639D01*
X137083445Y-84632798D01*
X135814155Y-84632798D01*
X135794761Y-84361640D01*
X135736975Y-84095999D01*
X135641972Y-83841287D01*
X135641970Y-83841284D01*
X135641969Y-83841280D01*
X135511690Y-83602692D01*
X135511689Y-83602691D01*
X135511687Y-83602687D01*
X135348771Y-83385058D01*
X135348766Y-83385053D01*
X135348761Y-83385047D01*
X135156552Y-83192838D01*
X135156546Y-83192833D01*
X135156542Y-83192829D01*
X134938913Y-83029913D01*
X134938908Y-83029910D01*
X134938907Y-83029909D01*
X134700318Y-82899630D01*
X134700319Y-82899630D01*
X134650720Y-82881130D01*
X134445601Y-82804625D01*
X134445594Y-82804623D01*
X134445593Y-82804623D01*
X134179967Y-82746840D01*
X134179960Y-82746839D01*
X133908801Y-82727445D01*
X133908799Y-82727445D01*
X133637639Y-82746839D01*
X133637632Y-82746840D01*
X133372006Y-82804623D01*
X133372002Y-82804624D01*
X133371999Y-82804625D01*
X133244643Y-82852126D01*
X133117280Y-82899630D01*
X132878692Y-83029909D01*
X132878691Y-83029910D01*
X132661059Y-83192828D01*
X132661047Y-83192838D01*
X132468838Y-83385047D01*
X132468828Y-83385059D01*
X132305910Y-83602691D01*
X132305909Y-83602692D01*
X132175630Y-83841280D01*
X132156264Y-83893203D01*
X132080625Y-84095999D01*
X132080624Y-84096002D01*
X132080623Y-84096006D01*
X132022840Y-84361632D01*
X132022839Y-84361639D01*
X132003445Y-84632798D01*
X130729299Y-84632798D01*
X130729299Y-83184928D01*
X130722891Y-83125317D01*
X130722127Y-83123269D01*
X130672597Y-82990471D01*
X130672593Y-82990464D01*
X130586347Y-82875255D01*
X130586344Y-82875252D01*
X130471135Y-82789006D01*
X130471128Y-82789002D01*
X130336282Y-82738708D01*
X130336283Y-82738708D01*
X130276683Y-82732301D01*
X130276681Y-82732300D01*
X130276673Y-82732300D01*
X130276664Y-82732300D01*
X127380929Y-82732300D01*
X127380923Y-82732301D01*
X127321316Y-82738708D01*
X127186471Y-82789002D01*
X127186464Y-82789006D01*
X127071255Y-82875252D01*
X127071252Y-82875255D01*
X126985006Y-82990464D01*
X126985002Y-82990471D01*
X126934708Y-83125317D01*
X126929247Y-83176116D01*
X126928301Y-83184923D01*
X126928300Y-83184935D01*
X125033481Y-83184935D01*
X125019247Y-79170975D01*
X125038693Y-79103868D01*
X125091335Y-79057926D01*
X125144963Y-79046549D01*
X127696367Y-79081923D01*
G37*
%TD.AperFunction*%
%TD*%
M02*
