M48
; DRILL file {KiCad 8.0.7} date 2025-04-18T15:45:24+0200
; FORMAT={-:-/ absolute / inch / decimal}
; #@! TF.CreationDate,2025-04-18T15:45:24+02:00
; #@! TF.GenerationSoftware,Kicad,Pcbnew,8.0.7
; #@! TF.FileFunction,Plated,1,2,PTH
FMAT,2
INCH
; #@! TA.AperFunction,Plated,PTH,ViaDrill
T1C0.0118
; #@! TA.AperFunction,Plated,PTH,ComponentDrill
T2C0.0315
; #@! TA.AperFunction,Plated,PTH,ComponentDrill
T3C0.0339
; #@! TA.AperFunction,Plated,PTH,ComponentDrill
T4C0.0354
; #@! TA.AperFunction,Plated,PTH,ComponentDrill
T5C0.0433
; #@! TA.AperFunction,Plated,PTH,ComponentDrill
T6C0.0689
; #@! TA.AperFunction,Plated,PTH,ComponentDrill
T7C0.0866
%
G90
G05
T1
X5.3058Y-3.8431
X5.3058Y-3.9576
X5.3059Y-4.1866
X5.3197Y-4.0721
X5.4212Y-3.6142
X5.4534Y-3.5822
X5.528Y-4.3011
X5.5312Y-3.7279
X5.5568Y-4.161
X5.5731Y-3.8534
X5.6739Y-4.2035
X5.7814Y-4.0862
X5.8095Y-4.6667
X5.8174Y-4.1604
X5.8531Y-4.1965
X5.8583Y-4.0496
X5.9738Y-3.879
X5.9871Y-4.3204
X5.994Y-4.154
X6.0481Y-4.2159
X6.06Y-5.0025
X6.0653Y-4.1372
X6.104Y-4.109
X6.1196Y-3.9828
X6.1318Y-3.4224
X6.1346Y-4.2092
X6.135Y-3.8726
X6.1401Y-3.3852
X6.1577Y-4.0311
X6.229Y-3.5836
X6.2362Y-3.4158
X6.2438Y-4.2961
X6.2753Y-3.4997
X6.3127Y-4.0625
X6.3448Y-4.0552
X6.3466Y-4.1765
X6.366Y-3.986
X6.37Y-3.538
X6.374Y-4.2961
X6.3764Y-4.0402
X6.426Y-3.6824
X6.4389Y-3.9959
X6.4686Y-4.2058
X6.5032Y-3.6169
X6.575Y-4.5463
X6.5877Y-4.3338
X6.599Y-4.1027
X6.6824Y-4.0535
X6.7742Y-4.0632
X6.8126Y-4.2284
T2
X5.05Y-4.5963
X5.05Y-4.7885
X5.9855Y-4.586
X6.1777Y-4.586
T3
X5.3677Y-4.486
X5.3677Y-4.586
X5.3677Y-4.686
X5.3677Y-4.786
X5.6803Y-4.486
X5.6803Y-4.586
X5.6803Y-4.686
X5.6803Y-4.786
T4
X6.522Y-4.0416
X6.522Y-4.14
X6.522Y-4.2384
T5
X6.472Y-4.5014
X6.472Y-4.6786
X6.728Y-4.5014
X6.728Y-4.6786
T6
X5.046Y-3.9118
X5.046Y-4.1118
X5.072Y-3.332
X5.1164Y-5.142
X5.272Y-3.332
X5.3164Y-5.142
X5.472Y-3.332
X5.5164Y-5.142
X5.672Y-3.332
X5.7164Y-5.142
X5.9164Y-5.142
X6.054Y-3.334
X6.1164Y-5.142
X6.254Y-3.334
X6.454Y-3.334
X6.472Y-5.144
X6.654Y-3.334
X6.672Y-5.144
X6.854Y-3.334
X6.872Y-5.144
X7.048Y-3.988
X7.048Y-4.188
X7.048Y-4.388
X7.048Y-4.588
X7.054Y-3.334
X7.072Y-5.144
T7
X4.792Y-3.098
X4.796Y-5.408
X7.32Y-5.37
X7.33Y-3.106
M30
