M48
; DRILL file {KiCad 8.0.7} date 2025-03-27T15:31:58+0200
; FORMAT={-:-/ absolute / inch / decimal}
; #@! TF.CreationDate,2025-03-27T15:31:58+02:00
; #@! TF.GenerationSoftware,Kicad,Pcbnew,8.0.7
; #@! TF.FileFunction,Plated,1,2,PTH
FMAT,2
INCH
; #@! TA.AperFunction,Plated,PTH,ViaDrill
T1C0.0118
; #@! TA.AperFunction,Plated,PTH,ComponentDrill
T2C0.0315
; #@! TA.AperFunction,Plated,PTH,ComponentDrill
T3C0.0339
; #@! TA.AperFunction,Plated,PTH,ComponentDrill
T4C0.0354
; #@! TA.AperFunction,Plated,PTH,ComponentDrill
T5C0.0433
; #@! TA.AperFunction,Plated,PTH,ComponentDrill
T6C0.0689
; #@! TA.AperFunction,Plated,PTH,ComponentDrill
T7C0.0866
%
G90
G05
T1
X4.9554Y-4.37
X5.234Y-3.604
X5.366Y-4.35
X5.39Y-4.878
X5.4604Y-4.138
X5.514Y-3.988
X5.568Y-4.138
X5.578Y-4.644
X5.58Y-3.974
X5.584Y-4.328
X5.6656Y-4.324
X5.6943Y-3.9177
X5.732Y-3.842
X5.764Y-4.678
X5.796Y-3.9
X5.8Y-4.302
X5.836Y-4.116
X5.8437Y-4.2517
X5.8457Y-4.1483
X5.8756Y-3.9
X5.943Y-3.8876
X5.963Y-4.105
X5.976Y-4.138
X5.988Y-4.024
X6.0067Y-3.9878
X6.012Y-4.078
X6.024Y-3.55
X6.054Y-3.9983
X6.0772Y-4.1787
X6.082Y-4.026
X6.1004Y-4.084
X6.11Y-3.846
X6.124Y-4.038
X6.1839Y-3.9983
X6.184Y-4.03
X6.206Y-4.356
X6.286Y-4.456
X6.306Y-4.104
X6.316Y-3.938
X6.34Y-4.178
X6.3407Y-3.9713
X6.39Y-3.88
X6.41Y-4.214
X6.442Y-3.614
X6.458Y-4.312
X6.4656Y-3.78
X6.542Y-3.848
X6.632Y-3.792
X6.674Y-3.676
T2
X5.05Y-4.5963
X5.05Y-4.7885
X5.9855Y-4.586
X6.1777Y-4.586
T3
X5.3677Y-4.486
X5.3677Y-4.586
X5.3677Y-4.686
X5.3677Y-4.786
X5.6803Y-4.486
X5.6803Y-4.586
X5.6803Y-4.686
X5.6803Y-4.786
T4
X6.522Y-4.0416
X6.522Y-4.14
X6.522Y-4.2384
T5
X6.472Y-4.5014
X6.472Y-4.6786
X6.728Y-4.5014
X6.728Y-4.6786
T6
X5.046Y-3.9118
X5.046Y-4.1118
X5.072Y-3.332
X5.1164Y-5.142
X5.272Y-3.332
X5.3164Y-5.142
X5.472Y-3.332
X5.5164Y-5.142
X5.672Y-3.332
X5.7164Y-5.142
X5.9164Y-5.142
X6.054Y-3.334
X6.1164Y-5.142
X6.254Y-3.334
X6.454Y-3.334
X6.472Y-5.144
X6.654Y-3.334
X6.672Y-5.144
X6.854Y-3.334
X6.872Y-5.144
X7.048Y-3.988
X7.048Y-4.188
X7.048Y-4.388
X7.048Y-4.588
X7.054Y-3.334
X7.072Y-5.144
T7
X4.792Y-3.098
X4.796Y-5.408
X7.32Y-5.37
X7.33Y-3.106
M30
