%TF.GenerationSoftware,KiCad,Pcbnew,8.0.7*%
%TF.CreationDate,2025-04-18T15:45:10+02:00*%
%TF.ProjectId,DataLogger,44617461-4c6f-4676-9765-722e6b696361,V1.0*%
%TF.SameCoordinates,Original*%
%TF.FileFunction,Legend,Bot*%
%TF.FilePolarity,Positive*%
%FSLAX46Y46*%
G04 Gerber Fmt 4.6, Leading zero omitted, Abs format (unit mm)*
G04 Created by KiCad (PCBNEW 8.0.7) date 2025-04-18 15:45:10*
%MOMM*%
%LPD*%
G01*
G04 APERTURE LIST*
%ADD10C,0.100000*%
%ADD11C,0.000000*%
G04 APERTURE END LIST*
D10*
X171602400Y-123393200D02*
X183337200Y-123393200D01*
X183337200Y-126339600D01*
X171602400Y-126339600D01*
X171602400Y-123393200D01*
X182779315Y-122179331D02*
X182779315Y-121179331D01*
X182779315Y-121179331D02*
X182541220Y-121179331D01*
X182541220Y-121179331D02*
X182398363Y-121226950D01*
X182398363Y-121226950D02*
X182303125Y-121322188D01*
X182303125Y-121322188D02*
X182255506Y-121417426D01*
X182255506Y-121417426D02*
X182207887Y-121607902D01*
X182207887Y-121607902D02*
X182207887Y-121750759D01*
X182207887Y-121750759D02*
X182255506Y-121941235D01*
X182255506Y-121941235D02*
X182303125Y-122036473D01*
X182303125Y-122036473D02*
X182398363Y-122131712D01*
X182398363Y-122131712D02*
X182541220Y-122179331D01*
X182541220Y-122179331D02*
X182779315Y-122179331D01*
X181398363Y-122131712D02*
X181493601Y-122179331D01*
X181493601Y-122179331D02*
X181684077Y-122179331D01*
X181684077Y-122179331D02*
X181779315Y-122131712D01*
X181779315Y-122131712D02*
X181826934Y-122036473D01*
X181826934Y-122036473D02*
X181826934Y-121655521D01*
X181826934Y-121655521D02*
X181779315Y-121560283D01*
X181779315Y-121560283D02*
X181684077Y-121512664D01*
X181684077Y-121512664D02*
X181493601Y-121512664D01*
X181493601Y-121512664D02*
X181398363Y-121560283D01*
X181398363Y-121560283D02*
X181350744Y-121655521D01*
X181350744Y-121655521D02*
X181350744Y-121750759D01*
X181350744Y-121750759D02*
X181826934Y-121845997D01*
X180969791Y-122131712D02*
X180874553Y-122179331D01*
X180874553Y-122179331D02*
X180684077Y-122179331D01*
X180684077Y-122179331D02*
X180588839Y-122131712D01*
X180588839Y-122131712D02*
X180541220Y-122036473D01*
X180541220Y-122036473D02*
X180541220Y-121988854D01*
X180541220Y-121988854D02*
X180588839Y-121893616D01*
X180588839Y-121893616D02*
X180684077Y-121845997D01*
X180684077Y-121845997D02*
X180826934Y-121845997D01*
X180826934Y-121845997D02*
X180922172Y-121798378D01*
X180922172Y-121798378D02*
X180969791Y-121703140D01*
X180969791Y-121703140D02*
X180969791Y-121655521D01*
X180969791Y-121655521D02*
X180922172Y-121560283D01*
X180922172Y-121560283D02*
X180826934Y-121512664D01*
X180826934Y-121512664D02*
X180684077Y-121512664D01*
X180684077Y-121512664D02*
X180588839Y-121560283D01*
X180112648Y-122179331D02*
X180112648Y-121512664D01*
X180112648Y-121179331D02*
X180160267Y-121226950D01*
X180160267Y-121226950D02*
X180112648Y-121274569D01*
X180112648Y-121274569D02*
X180065029Y-121226950D01*
X180065029Y-121226950D02*
X180112648Y-121179331D01*
X180112648Y-121179331D02*
X180112648Y-121274569D01*
X179207887Y-121512664D02*
X179207887Y-122322188D01*
X179207887Y-122322188D02*
X179255506Y-122417426D01*
X179255506Y-122417426D02*
X179303125Y-122465045D01*
X179303125Y-122465045D02*
X179398363Y-122512664D01*
X179398363Y-122512664D02*
X179541220Y-122512664D01*
X179541220Y-122512664D02*
X179636458Y-122465045D01*
X179207887Y-122131712D02*
X179303125Y-122179331D01*
X179303125Y-122179331D02*
X179493601Y-122179331D01*
X179493601Y-122179331D02*
X179588839Y-122131712D01*
X179588839Y-122131712D02*
X179636458Y-122084092D01*
X179636458Y-122084092D02*
X179684077Y-121988854D01*
X179684077Y-121988854D02*
X179684077Y-121703140D01*
X179684077Y-121703140D02*
X179636458Y-121607902D01*
X179636458Y-121607902D02*
X179588839Y-121560283D01*
X179588839Y-121560283D02*
X179493601Y-121512664D01*
X179493601Y-121512664D02*
X179303125Y-121512664D01*
X179303125Y-121512664D02*
X179207887Y-121560283D01*
X178731696Y-121512664D02*
X178731696Y-122179331D01*
X178731696Y-121607902D02*
X178684077Y-121560283D01*
X178684077Y-121560283D02*
X178588839Y-121512664D01*
X178588839Y-121512664D02*
X178445982Y-121512664D01*
X178445982Y-121512664D02*
X178350744Y-121560283D01*
X178350744Y-121560283D02*
X178303125Y-121655521D01*
X178303125Y-121655521D02*
X178303125Y-122179331D01*
X177445982Y-122131712D02*
X177541220Y-122179331D01*
X177541220Y-122179331D02*
X177731696Y-122179331D01*
X177731696Y-122179331D02*
X177826934Y-122131712D01*
X177826934Y-122131712D02*
X177874553Y-122036473D01*
X177874553Y-122036473D02*
X177874553Y-121655521D01*
X177874553Y-121655521D02*
X177826934Y-121560283D01*
X177826934Y-121560283D02*
X177731696Y-121512664D01*
X177731696Y-121512664D02*
X177541220Y-121512664D01*
X177541220Y-121512664D02*
X177445982Y-121560283D01*
X177445982Y-121560283D02*
X177398363Y-121655521D01*
X177398363Y-121655521D02*
X177398363Y-121750759D01*
X177398363Y-121750759D02*
X177874553Y-121845997D01*
X176541220Y-122179331D02*
X176541220Y-121179331D01*
X176541220Y-122131712D02*
X176636458Y-122179331D01*
X176636458Y-122179331D02*
X176826934Y-122179331D01*
X176826934Y-122179331D02*
X176922172Y-122131712D01*
X176922172Y-122131712D02*
X176969791Y-122084092D01*
X176969791Y-122084092D02*
X177017410Y-121988854D01*
X177017410Y-121988854D02*
X177017410Y-121703140D01*
X177017410Y-121703140D02*
X176969791Y-121607902D01*
X176969791Y-121607902D02*
X176922172Y-121560283D01*
X176922172Y-121560283D02*
X176826934Y-121512664D01*
X176826934Y-121512664D02*
X176636458Y-121512664D01*
X176636458Y-121512664D02*
X176541220Y-121560283D01*
X175303124Y-122179331D02*
X175303124Y-121179331D01*
X175303124Y-121560283D02*
X175207886Y-121512664D01*
X175207886Y-121512664D02*
X175017410Y-121512664D01*
X175017410Y-121512664D02*
X174922172Y-121560283D01*
X174922172Y-121560283D02*
X174874553Y-121607902D01*
X174874553Y-121607902D02*
X174826934Y-121703140D01*
X174826934Y-121703140D02*
X174826934Y-121988854D01*
X174826934Y-121988854D02*
X174874553Y-122084092D01*
X174874553Y-122084092D02*
X174922172Y-122131712D01*
X174922172Y-122131712D02*
X175017410Y-122179331D01*
X175017410Y-122179331D02*
X175207886Y-122179331D01*
X175207886Y-122179331D02*
X175303124Y-122131712D01*
X174493600Y-121512664D02*
X174255505Y-122179331D01*
X174017410Y-121512664D02*
X174255505Y-122179331D01*
X174255505Y-122179331D02*
X174350743Y-122417426D01*
X174350743Y-122417426D02*
X174398362Y-122465045D01*
X174398362Y-122465045D02*
X174493600Y-122512664D01*
X182779315Y-125399219D02*
X182779315Y-124399219D01*
X182779315Y-124399219D02*
X182207887Y-125399219D01*
X182207887Y-125399219D02*
X182207887Y-124399219D01*
X181588839Y-125399219D02*
X181684077Y-125351600D01*
X181684077Y-125351600D02*
X181731696Y-125303980D01*
X181731696Y-125303980D02*
X181779315Y-125208742D01*
X181779315Y-125208742D02*
X181779315Y-124923028D01*
X181779315Y-124923028D02*
X181731696Y-124827790D01*
X181731696Y-124827790D02*
X181684077Y-124780171D01*
X181684077Y-124780171D02*
X181588839Y-124732552D01*
X181588839Y-124732552D02*
X181445982Y-124732552D01*
X181445982Y-124732552D02*
X181350744Y-124780171D01*
X181350744Y-124780171D02*
X181303125Y-124827790D01*
X181303125Y-124827790D02*
X181255506Y-124923028D01*
X181255506Y-124923028D02*
X181255506Y-125208742D01*
X181255506Y-125208742D02*
X181303125Y-125303980D01*
X181303125Y-125303980D02*
X181350744Y-125351600D01*
X181350744Y-125351600D02*
X181445982Y-125399219D01*
X181445982Y-125399219D02*
X181588839Y-125399219D01*
X180398363Y-124732552D02*
X180398363Y-125399219D01*
X180826934Y-124732552D02*
X180826934Y-125256361D01*
X180826934Y-125256361D02*
X180779315Y-125351600D01*
X180779315Y-125351600D02*
X180684077Y-125399219D01*
X180684077Y-125399219D02*
X180541220Y-125399219D01*
X180541220Y-125399219D02*
X180445982Y-125351600D01*
X180445982Y-125351600D02*
X180398363Y-125303980D01*
X179922172Y-125399219D02*
X179922172Y-124732552D01*
X179922172Y-124923028D02*
X179874553Y-124827790D01*
X179874553Y-124827790D02*
X179826934Y-124780171D01*
X179826934Y-124780171D02*
X179731696Y-124732552D01*
X179731696Y-124732552D02*
X179636458Y-124732552D01*
X178541219Y-125399219D02*
X178541219Y-124399219D01*
X178541219Y-124399219D02*
X178207886Y-125113504D01*
X178207886Y-125113504D02*
X177874553Y-124399219D01*
X177874553Y-124399219D02*
X177874553Y-125399219D01*
X177255505Y-125399219D02*
X177350743Y-125351600D01*
X177350743Y-125351600D02*
X177398362Y-125303980D01*
X177398362Y-125303980D02*
X177445981Y-125208742D01*
X177445981Y-125208742D02*
X177445981Y-124923028D01*
X177445981Y-124923028D02*
X177398362Y-124827790D01*
X177398362Y-124827790D02*
X177350743Y-124780171D01*
X177350743Y-124780171D02*
X177255505Y-124732552D01*
X177255505Y-124732552D02*
X177112648Y-124732552D01*
X177112648Y-124732552D02*
X177017410Y-124780171D01*
X177017410Y-124780171D02*
X176969791Y-124827790D01*
X176969791Y-124827790D02*
X176922172Y-124923028D01*
X176922172Y-124923028D02*
X176922172Y-125208742D01*
X176922172Y-125208742D02*
X176969791Y-125303980D01*
X176969791Y-125303980D02*
X177017410Y-125351600D01*
X177017410Y-125351600D02*
X177112648Y-125399219D01*
X177112648Y-125399219D02*
X177255505Y-125399219D01*
X176493600Y-125399219D02*
X176493600Y-124399219D01*
X176065029Y-125399219D02*
X176065029Y-124875409D01*
X176065029Y-124875409D02*
X176112648Y-124780171D01*
X176112648Y-124780171D02*
X176207886Y-124732552D01*
X176207886Y-124732552D02*
X176350743Y-124732552D01*
X176350743Y-124732552D02*
X176445981Y-124780171D01*
X176445981Y-124780171D02*
X176493600Y-124827790D01*
X175160267Y-125399219D02*
X175160267Y-124875409D01*
X175160267Y-124875409D02*
X175207886Y-124780171D01*
X175207886Y-124780171D02*
X175303124Y-124732552D01*
X175303124Y-124732552D02*
X175493600Y-124732552D01*
X175493600Y-124732552D02*
X175588838Y-124780171D01*
X175160267Y-125351600D02*
X175255505Y-125399219D01*
X175255505Y-125399219D02*
X175493600Y-125399219D01*
X175493600Y-125399219D02*
X175588838Y-125351600D01*
X175588838Y-125351600D02*
X175636457Y-125256361D01*
X175636457Y-125256361D02*
X175636457Y-125161123D01*
X175636457Y-125161123D02*
X175588838Y-125065885D01*
X175588838Y-125065885D02*
X175493600Y-125018266D01*
X175493600Y-125018266D02*
X175255505Y-125018266D01*
X175255505Y-125018266D02*
X175160267Y-124970647D01*
X174684076Y-125399219D02*
X174684076Y-124732552D01*
X174684076Y-124827790D02*
X174636457Y-124780171D01*
X174636457Y-124780171D02*
X174541219Y-124732552D01*
X174541219Y-124732552D02*
X174398362Y-124732552D01*
X174398362Y-124732552D02*
X174303124Y-124780171D01*
X174303124Y-124780171D02*
X174255505Y-124875409D01*
X174255505Y-124875409D02*
X174255505Y-125399219D01*
X174255505Y-124875409D02*
X174207886Y-124780171D01*
X174207886Y-124780171D02*
X174112648Y-124732552D01*
X174112648Y-124732552D02*
X173969791Y-124732552D01*
X173969791Y-124732552D02*
X173874552Y-124780171D01*
X173874552Y-124780171D02*
X173826933Y-124875409D01*
X173826933Y-124875409D02*
X173826933Y-125399219D01*
X172969791Y-125351600D02*
X173065029Y-125399219D01*
X173065029Y-125399219D02*
X173255505Y-125399219D01*
X173255505Y-125399219D02*
X173350743Y-125351600D01*
X173350743Y-125351600D02*
X173398362Y-125256361D01*
X173398362Y-125256361D02*
X173398362Y-124875409D01*
X173398362Y-124875409D02*
X173350743Y-124780171D01*
X173350743Y-124780171D02*
X173255505Y-124732552D01*
X173255505Y-124732552D02*
X173065029Y-124732552D01*
X173065029Y-124732552D02*
X172969791Y-124780171D01*
X172969791Y-124780171D02*
X172922172Y-124875409D01*
X172922172Y-124875409D02*
X172922172Y-124970647D01*
X172922172Y-124970647D02*
X173398362Y-125065885D01*
X172065029Y-125399219D02*
X172065029Y-124399219D01*
X172065029Y-125351600D02*
X172160267Y-125399219D01*
X172160267Y-125399219D02*
X172350743Y-125399219D01*
X172350743Y-125399219D02*
X172445981Y-125351600D01*
X172445981Y-125351600D02*
X172493600Y-125303980D01*
X172493600Y-125303980D02*
X172541219Y-125208742D01*
X172541219Y-125208742D02*
X172541219Y-124923028D01*
X172541219Y-124923028D02*
X172493600Y-124827790D01*
X172493600Y-124827790D02*
X172445981Y-124780171D01*
X172445981Y-124780171D02*
X172350743Y-124732552D01*
X172350743Y-124732552D02*
X172160267Y-124732552D01*
X172160267Y-124732552D02*
X172065029Y-124780171D01*
D11*
%TO.C,G\u002A\u002A\u002A*%
G36*
X177504163Y-89642021D02*
G01*
X177586388Y-89772408D01*
X177578575Y-89880771D01*
X177460547Y-89898249D01*
X177404438Y-89879033D01*
X177316519Y-89780584D01*
X177322693Y-89669404D01*
X177430532Y-89616553D01*
X177504163Y-89642021D01*
G37*
G36*
X177137369Y-91190409D02*
G01*
X177261582Y-91267201D01*
X177305740Y-91379213D01*
X177236435Y-91466694D01*
X177206427Y-91477589D01*
X177029754Y-91471902D01*
X176938650Y-91324037D01*
X176948570Y-91233413D01*
X177077758Y-91182886D01*
X177137369Y-91190409D01*
G37*
G36*
X177583412Y-91983603D02*
G01*
X177568851Y-92160607D01*
X177533665Y-92227005D01*
X177416491Y-92274887D01*
X177267259Y-92162457D01*
X177255844Y-92148236D01*
X177222702Y-92042647D01*
X177336420Y-91950562D01*
X177481337Y-91911375D01*
X177583412Y-91983603D01*
G37*
G36*
X178153643Y-92565750D02*
G01*
X178145075Y-92735062D01*
X178107949Y-92810845D01*
X178002733Y-92868138D01*
X177864348Y-92760453D01*
X177816156Y-92654638D01*
X177899902Y-92535441D01*
X177910920Y-92526697D01*
X178059208Y-92482955D01*
X178153643Y-92565750D01*
G37*
G36*
X178033313Y-88981566D02*
G01*
X178112860Y-89052347D01*
X178160835Y-89198655D01*
X178146636Y-89327860D01*
X178134757Y-89345318D01*
X178014255Y-89398777D01*
X177867406Y-89292805D01*
X177834038Y-89185287D01*
X177894959Y-89046146D01*
X178032233Y-88981553D01*
X178033313Y-88981566D01*
G37*
G36*
X178615728Y-97024886D02*
G01*
X178656464Y-97097845D01*
X178700395Y-97239577D01*
X178669299Y-97290615D01*
X178532358Y-97327267D01*
X178431729Y-97311659D01*
X178369193Y-97212440D01*
X178448988Y-97024886D01*
X178460281Y-97007944D01*
X178536030Y-96940456D01*
X178615728Y-97024886D01*
G37*
G36*
X181919025Y-97021142D02*
G01*
X181919028Y-97022909D01*
X181944769Y-97087461D01*
X182046025Y-97024886D01*
X182149901Y-96961841D01*
X182160347Y-97019769D01*
X182068663Y-97194294D01*
X182010529Y-97283114D01*
X181954367Y-97307772D01*
X181897511Y-97180853D01*
X181865818Y-97060314D01*
X181874873Y-96956149D01*
X181893592Y-96947788D01*
X181919025Y-97021142D01*
G37*
G36*
X175989785Y-95424860D02*
G01*
X176042701Y-95502586D01*
X176069556Y-95686880D01*
X176077025Y-96008886D01*
X176075173Y-96194432D01*
X176058518Y-96441373D01*
X176019026Y-96566698D01*
X175950025Y-96601553D01*
X175910265Y-96592912D01*
X175857349Y-96515186D01*
X175830494Y-96330892D01*
X175823025Y-96008886D01*
X175824876Y-95823340D01*
X175841532Y-95576400D01*
X175881024Y-95451074D01*
X175950025Y-95416220D01*
X175989785Y-95424860D01*
G37*
G36*
X178269745Y-96993694D02*
G01*
X178277062Y-97159931D01*
X178276503Y-97195482D01*
X178255783Y-97323316D01*
X178202978Y-97291014D01*
X178148712Y-97231203D01*
X178072278Y-97269847D01*
X177972180Y-97361810D01*
X177891546Y-97311572D01*
X177864846Y-97130720D01*
X177866273Y-97101725D01*
X177883892Y-96992762D01*
X177914618Y-97052443D01*
X177940448Y-97134983D01*
X177994945Y-97157829D01*
X178116464Y-97060488D01*
X178221159Y-96974393D01*
X178269745Y-96993694D01*
G37*
G36*
X183440451Y-95424860D02*
G01*
X183493367Y-95502586D01*
X183520223Y-95686880D01*
X183527691Y-96008886D01*
X183527691Y-96601553D01*
X183189025Y-96601553D01*
X183091661Y-96599248D01*
X182906281Y-96562860D01*
X182850358Y-96474553D01*
X182891786Y-96391713D01*
X183062025Y-96347553D01*
X183167735Y-96339924D01*
X183239157Y-96287450D01*
X183268197Y-96148583D01*
X183273691Y-95881886D01*
X183284672Y-95604723D01*
X183324103Y-95458026D01*
X183400691Y-95416220D01*
X183440451Y-95424860D01*
G37*
G36*
X177661198Y-97028986D02*
G01*
X177669186Y-97194220D01*
X177667727Y-97251628D01*
X177652586Y-97368732D01*
X177627329Y-97342386D01*
X177553060Y-97228535D01*
X177422879Y-97201848D01*
X177318431Y-97300053D01*
X177314976Y-97307787D01*
X177287143Y-97296015D01*
X177275727Y-97151886D01*
X177275866Y-97131679D01*
X177289442Y-96999781D01*
X177318431Y-97003720D01*
X177342048Y-97042590D01*
X177474025Y-97109553D01*
X177518488Y-97102116D01*
X177629618Y-97003720D01*
X177637457Y-96989268D01*
X177661198Y-97028986D01*
G37*
G36*
X176282883Y-96941871D02*
G01*
X176385620Y-97003796D01*
X176415691Y-97194220D01*
X176415406Y-97220545D01*
X176378759Y-97396344D01*
X176267525Y-97446923D01*
X176247636Y-97446630D01*
X176168371Y-97428851D01*
X176246358Y-97362256D01*
X176263300Y-97350963D01*
X176330789Y-97275215D01*
X176246358Y-97195516D01*
X176224810Y-97181219D01*
X176162086Y-97123286D01*
X176246358Y-97109553D01*
X176267382Y-97108982D01*
X176330650Y-97091248D01*
X176246358Y-97024886D01*
X176230140Y-97014280D01*
X176169481Y-96955499D01*
X176267525Y-96941516D01*
X176282883Y-96941871D01*
G37*
G36*
X177044883Y-96941871D02*
G01*
X177147620Y-97003796D01*
X177177691Y-97194220D01*
X177177406Y-97220545D01*
X177140759Y-97396344D01*
X177029525Y-97446923D01*
X177009636Y-97446630D01*
X176930371Y-97428851D01*
X177008358Y-97362256D01*
X177025300Y-97350963D01*
X177092789Y-97275215D01*
X177008358Y-97195516D01*
X176986810Y-97181219D01*
X176924086Y-97123286D01*
X177008358Y-97109553D01*
X177029382Y-97108982D01*
X177092650Y-97091248D01*
X177008358Y-97024886D01*
X176992140Y-97014280D01*
X176931481Y-96955499D01*
X177029525Y-96941516D01*
X177044883Y-96941871D01*
G37*
G36*
X180818358Y-97150675D02*
G01*
X180796670Y-97290423D01*
X180739542Y-97324835D01*
X180709013Y-97313330D01*
X180607545Y-97362172D01*
X180550385Y-97435284D01*
X180507479Y-97406034D01*
X180507670Y-97216211D01*
X180509563Y-97196391D01*
X180551231Y-97078575D01*
X180579335Y-97078575D01*
X180649025Y-97109553D01*
X180693847Y-97103443D01*
X180705469Y-97053108D01*
X180693060Y-97042975D01*
X180592580Y-97053108D01*
X180579335Y-97078575D01*
X180551231Y-97078575D01*
X180572394Y-97018735D01*
X180676922Y-96945122D01*
X180774970Y-96985715D01*
X180792696Y-97053108D01*
X180818358Y-97150675D01*
G37*
G36*
X176829203Y-97209178D02*
G01*
X176826868Y-97256056D01*
X176807545Y-97369022D01*
X176779489Y-97336298D01*
X176757892Y-97260819D01*
X176715036Y-97229534D01*
X176624810Y-97336298D01*
X176556532Y-97419109D01*
X176525564Y-97401918D01*
X176535671Y-97236553D01*
X176579337Y-97078575D01*
X176600001Y-97078575D01*
X176669691Y-97109553D01*
X176714514Y-97103443D01*
X176726136Y-97053108D01*
X176713727Y-97042975D01*
X176613247Y-97053108D01*
X176600001Y-97078575D01*
X176579337Y-97078575D01*
X176585343Y-97056848D01*
X176700172Y-96955178D01*
X176749568Y-96951630D01*
X176816996Y-97015427D01*
X176819370Y-97053108D01*
X176829203Y-97209178D01*
G37*
G36*
X175348694Y-95486776D02*
G01*
X175541919Y-95669293D01*
X175641205Y-95918658D01*
X175628152Y-96188442D01*
X175484358Y-96432220D01*
X175267740Y-96559267D01*
X174984640Y-96597514D01*
X174732678Y-96525056D01*
X174680591Y-96483691D01*
X174657458Y-96390143D01*
X174762155Y-96329825D01*
X174965100Y-96327840D01*
X174991259Y-96331370D01*
X175189482Y-96315304D01*
X175310473Y-96186724D01*
X175352958Y-96078779D01*
X175340175Y-95863598D01*
X175201239Y-95720101D01*
X174965100Y-95689932D01*
X174873484Y-95697755D01*
X174706531Y-95669269D01*
X174649735Y-95592556D01*
X174732678Y-95492717D01*
X174864792Y-95444361D01*
X175082191Y-95417516D01*
X175348694Y-95486776D01*
G37*
G36*
X182681025Y-96008886D02*
G01*
X182681025Y-96601553D01*
X182300025Y-96601553D01*
X182138428Y-96596389D01*
X181968887Y-96558260D01*
X181919025Y-96474553D01*
X181971373Y-96385417D01*
X182173025Y-96347553D01*
X182351297Y-96321379D01*
X182427025Y-96220553D01*
X182385597Y-96137713D01*
X182215358Y-96093553D01*
X182076148Y-96072532D01*
X182003691Y-96008886D01*
X182056243Y-95953202D01*
X182215358Y-95924220D01*
X182353424Y-95899363D01*
X182427025Y-95797220D01*
X182374677Y-95708084D01*
X182173025Y-95670220D01*
X181994753Y-95644046D01*
X181919025Y-95543220D01*
X181934517Y-95489354D01*
X182048903Y-95432840D01*
X182300025Y-95416220D01*
X182681025Y-95416220D01*
X182681025Y-96008886D01*
G37*
G36*
X184459025Y-96008886D02*
G01*
X184459025Y-96601553D01*
X184070969Y-96601553D01*
X184006907Y-96600045D01*
X183792007Y-96561896D01*
X183708848Y-96492036D01*
X183767671Y-96416943D01*
X183978721Y-96363096D01*
X184111713Y-96326045D01*
X184201139Y-96231787D01*
X184162635Y-96136838D01*
X183993358Y-96093553D01*
X183854148Y-96072532D01*
X183781691Y-96008886D01*
X183834243Y-95953202D01*
X183993358Y-95924220D01*
X184123173Y-95902775D01*
X184202908Y-95818562D01*
X184153809Y-95718410D01*
X183978721Y-95654677D01*
X183918605Y-95645983D01*
X183741986Y-95585178D01*
X183715336Y-95508964D01*
X183828411Y-95443819D01*
X184070969Y-95416220D01*
X184459025Y-95416220D01*
X184459025Y-96008886D01*
G37*
G36*
X176501556Y-95425436D02*
G01*
X176565834Y-95529039D01*
X176585025Y-95770277D01*
X176585025Y-96124335D01*
X176857143Y-95770277D01*
X177041105Y-95549042D01*
X177191146Y-95430946D01*
X177284946Y-95464714D01*
X177333305Y-95655607D01*
X177347025Y-96008886D01*
X177345767Y-96160989D01*
X177330154Y-96425341D01*
X177291882Y-96562398D01*
X177224893Y-96601553D01*
X177213682Y-96600824D01*
X177123177Y-96507663D01*
X177076726Y-96255110D01*
X177050691Y-95908667D01*
X176796691Y-96253109D01*
X176627796Y-96464786D01*
X176483007Y-96583992D01*
X176391927Y-96551229D01*
X176344589Y-96361269D01*
X176331025Y-96008886D01*
X176332876Y-95823340D01*
X176349532Y-95576400D01*
X176389024Y-95451074D01*
X176458025Y-95416220D01*
X176501556Y-95425436D01*
G37*
G36*
X177021659Y-92048295D02*
G01*
X176859044Y-92205050D01*
X176846431Y-92222239D01*
X176663721Y-92356400D01*
X176467329Y-92357932D01*
X176310470Y-92242431D01*
X176246358Y-92025491D01*
X176246870Y-92013678D01*
X176435094Y-92013678D01*
X176436890Y-92064991D01*
X176535636Y-92114220D01*
X176601522Y-92096796D01*
X176669691Y-91980164D01*
X176620820Y-91887654D01*
X176519367Y-91901870D01*
X176435094Y-92013678D01*
X176246870Y-92013678D01*
X176250240Y-91935947D01*
X176307099Y-91773335D01*
X176460211Y-91683734D01*
X176745680Y-91639213D01*
X176763006Y-91637706D01*
X177018592Y-91612528D01*
X177216781Y-91588428D01*
X177347040Y-91600182D01*
X177409394Y-91690358D01*
X177361802Y-91818621D01*
X177205813Y-91935956D01*
X177133344Y-91980164D01*
X177021659Y-92048295D01*
G37*
G36*
X180241194Y-96960517D02*
G01*
X180310358Y-97067220D01*
X180300806Y-97125643D01*
X180225691Y-97194220D01*
X180202485Y-97197665D01*
X180141025Y-97283883D01*
X180151696Y-97317903D01*
X180238773Y-97313135D01*
X180287677Y-97292399D01*
X180273569Y-97354582D01*
X180215585Y-97409549D01*
X180098691Y-97363553D01*
X180025263Y-97318847D01*
X179931899Y-97359442D01*
X179911349Y-97385681D01*
X179780428Y-97448220D01*
X179730305Y-97431775D01*
X179785425Y-97346620D01*
X179841255Y-97265271D01*
X179896846Y-97071453D01*
X179898408Y-97046233D01*
X179913916Y-96962811D01*
X179944484Y-97041360D01*
X179983879Y-97114904D01*
X180111095Y-97135411D01*
X180192080Y-97084174D01*
X180126957Y-97014400D01*
X180069172Y-96958797D01*
X180162191Y-96941516D01*
X180241194Y-96960517D01*
G37*
G36*
X178696517Y-95940111D02*
G01*
X178672838Y-96221420D01*
X178561569Y-96446719D01*
X178400844Y-96550922D01*
X178138236Y-96601553D01*
X178131691Y-96601522D01*
X177840489Y-96530140D01*
X177631369Y-96350375D01*
X177536489Y-96134787D01*
X177804850Y-96134787D01*
X177820594Y-96188394D01*
X177916258Y-96314632D01*
X178113295Y-96347553D01*
X178314417Y-96311082D01*
X178428819Y-96170843D01*
X178433220Y-95909210D01*
X178370731Y-95762531D01*
X178186444Y-95687106D01*
X178180374Y-95686435D01*
X177945160Y-95728524D01*
X177810189Y-95889468D01*
X177804850Y-96134787D01*
X177536489Y-96134787D01*
X177523249Y-96104704D01*
X177535050Y-95835605D01*
X177685691Y-95585553D01*
X177748882Y-95532977D01*
X178012191Y-95431071D01*
X178303756Y-95437992D01*
X178546858Y-95556342D01*
X178633869Y-95679254D01*
X178689096Y-95909210D01*
X178696517Y-95940111D01*
G37*
G36*
X174262315Y-95439133D02*
G01*
X174435231Y-95508526D01*
X174472649Y-95545309D01*
X174537328Y-95728073D01*
X174467673Y-95922085D01*
X174277858Y-96076213D01*
X174276935Y-96076655D01*
X174113116Y-96174381D01*
X174045025Y-96253395D01*
X174049462Y-96295999D01*
X174136006Y-96383071D01*
X174305019Y-96344345D01*
X174439078Y-96313985D01*
X174533332Y-96380093D01*
X174510691Y-96516886D01*
X174444188Y-96566769D01*
X174259589Y-96598875D01*
X174048694Y-96575862D01*
X173892625Y-96499953D01*
X173855650Y-96457653D01*
X173782576Y-96247046D01*
X173850581Y-96042329D01*
X174045796Y-95898012D01*
X174169222Y-95839216D01*
X174263831Y-95737524D01*
X174207995Y-95665641D01*
X174006981Y-95656356D01*
X173996659Y-95657565D01*
X173833810Y-95650781D01*
X173809231Y-95571689D01*
X173872002Y-95498371D01*
X174049536Y-95438274D01*
X174262315Y-95439133D01*
G37*
G36*
X177107803Y-93410941D02*
G01*
X177079372Y-93472808D01*
X176963899Y-93605973D01*
X176783349Y-93622608D01*
X176599119Y-93562399D01*
X176461020Y-93415393D01*
X176436643Y-93263369D01*
X176694281Y-93263369D01*
X176735246Y-93398974D01*
X176787748Y-93434538D01*
X176881358Y-93384220D01*
X176899102Y-93335736D01*
X176858137Y-93200132D01*
X176805635Y-93164568D01*
X176712025Y-93214886D01*
X176694281Y-93263369D01*
X176436643Y-93263369D01*
X176432139Y-93235282D01*
X176517243Y-93071712D01*
X176721100Y-92974327D01*
X176843815Y-92914779D01*
X177048981Y-92763754D01*
X177279328Y-92558310D01*
X177459645Y-92388367D01*
X177617293Y-92266634D01*
X177723268Y-92237760D01*
X177812771Y-92283619D01*
X177870423Y-92348160D01*
X177867829Y-92434797D01*
X177775989Y-92568467D01*
X177578462Y-92784303D01*
X177409758Y-92974359D01*
X177221000Y-93220641D01*
X177152538Y-93335736D01*
X177107803Y-93410941D01*
G37*
G36*
X178403254Y-88392291D02*
G01*
X178396339Y-88409183D01*
X178398702Y-88562324D01*
X178451558Y-88781601D01*
X178495864Y-88932320D01*
X178504434Y-89077959D01*
X178436411Y-89159650D01*
X178370545Y-89201270D01*
X178301534Y-89218842D01*
X178239899Y-89148599D01*
X178140924Y-88960386D01*
X178131195Y-88941927D01*
X177988185Y-88725125D01*
X177842417Y-88574585D01*
X177808067Y-88547787D01*
X177694823Y-88366278D01*
X177705372Y-88268036D01*
X177964281Y-88268036D01*
X178005246Y-88403641D01*
X178057748Y-88439204D01*
X178151358Y-88388886D01*
X178169102Y-88340403D01*
X178128137Y-88204798D01*
X178075635Y-88169235D01*
X177982025Y-88219553D01*
X177964281Y-88268036D01*
X177705372Y-88268036D01*
X177715233Y-88176194D01*
X177850206Y-88026349D01*
X178080646Y-87965553D01*
X178155314Y-87977749D01*
X178314467Y-88081464D01*
X178412746Y-88240324D01*
X178406495Y-88340403D01*
X178403254Y-88392291D01*
G37*
G36*
X181810567Y-97159841D02*
G01*
X181740785Y-97331951D01*
X181650532Y-97418012D01*
X181525229Y-97424715D01*
X181384270Y-97275434D01*
X181315645Y-97177458D01*
X181421693Y-97177458D01*
X181475983Y-97293044D01*
X181560855Y-97340775D01*
X181630376Y-97247059D01*
X181653625Y-97108840D01*
X181595604Y-97035206D01*
X181477347Y-97094031D01*
X181421693Y-97177458D01*
X181315645Y-97177458D01*
X181263246Y-97102649D01*
X181215729Y-97284354D01*
X181168447Y-97389093D01*
X181071824Y-97428765D01*
X180979510Y-97341246D01*
X180930174Y-97145357D01*
X180928209Y-97108585D01*
X180932489Y-97007250D01*
X180959559Y-97067220D01*
X180989573Y-97163253D01*
X181065419Y-97301778D01*
X181129828Y-97313224D01*
X181157025Y-97182538D01*
X181168873Y-97063458D01*
X181247973Y-96982070D01*
X181445404Y-96956815D01*
X181535293Y-96959003D01*
X181734361Y-97025735D01*
X181781586Y-97108840D01*
X181810567Y-97159841D01*
G37*
G36*
X179701729Y-97162462D02*
G01*
X179624119Y-97331951D01*
X179581611Y-97379339D01*
X179455249Y-97441473D01*
X179314880Y-97350208D01*
X179224160Y-97296640D01*
X179089989Y-97357497D01*
X178986445Y-97411583D01*
X178846798Y-97387555D01*
X178787655Y-97252723D01*
X178799913Y-97207847D01*
X178862855Y-97268567D01*
X178912535Y-97319081D01*
X179030892Y-97327070D01*
X179105772Y-97257006D01*
X179098707Y-97163459D01*
X179310242Y-97163459D01*
X179348746Y-97282474D01*
X179419903Y-97321139D01*
X179539124Y-97247679D01*
X179563820Y-97212039D01*
X179573261Y-97092181D01*
X179484679Y-97039714D01*
X179354714Y-97099997D01*
X179310242Y-97163459D01*
X179098707Y-97163459D01*
X179096736Y-97137366D01*
X178934525Y-97032722D01*
X178919609Y-97026974D01*
X178861143Y-96987828D01*
X178944476Y-96967004D01*
X179183215Y-96960553D01*
X179395939Y-96972476D01*
X179622991Y-97040380D01*
X179656401Y-97092181D01*
X179701729Y-97162462D01*
G37*
G36*
X181889260Y-93336490D02*
G01*
X181836439Y-93508712D01*
X181802224Y-93544367D01*
X181608448Y-93632420D01*
X181396990Y-93610463D01*
X181226849Y-93496041D01*
X181157025Y-93306694D01*
X181138410Y-93263369D01*
X181435615Y-93263369D01*
X181476579Y-93398974D01*
X181529082Y-93434538D01*
X181622691Y-93384220D01*
X181640435Y-93335736D01*
X181599470Y-93200132D01*
X181546968Y-93164568D01*
X181453358Y-93214886D01*
X181435615Y-93263369D01*
X181138410Y-93263369D01*
X181110653Y-93198764D01*
X180971410Y-93008622D01*
X180771748Y-92787211D01*
X180580736Y-92586714D01*
X180475075Y-92446872D01*
X180461107Y-92357189D01*
X180521945Y-92283619D01*
X180593272Y-92241725D01*
X180692555Y-92254627D01*
X180836003Y-92356643D01*
X181058297Y-92566036D01*
X181270607Y-92756972D01*
X181473390Y-92904436D01*
X181606248Y-92960886D01*
X181716560Y-92996153D01*
X181839375Y-93142018D01*
X181889067Y-93335736D01*
X181889260Y-93336490D01*
G37*
G36*
X177311024Y-88789304D02*
G01*
X177524788Y-89027339D01*
X177640865Y-89148835D01*
X177807694Y-89346727D01*
X177868438Y-89473758D01*
X177838872Y-89556506D01*
X177796494Y-89597187D01*
X177716961Y-89642936D01*
X177625478Y-89616863D01*
X177486976Y-89502154D01*
X177266389Y-89281993D01*
X177083879Y-89111432D01*
X176874798Y-88951407D01*
X176728240Y-88879826D01*
X176717732Y-88878104D01*
X176522630Y-88779115D01*
X176428661Y-88603951D01*
X176447391Y-88510889D01*
X176669691Y-88510889D01*
X176676081Y-88562825D01*
X176748508Y-88681604D01*
X176830729Y-88687210D01*
X176897922Y-88599117D01*
X176881358Y-88473553D01*
X176828964Y-88415299D01*
X176721576Y-88401222D01*
X176669691Y-88510889D01*
X176447391Y-88510889D01*
X176467685Y-88410053D01*
X176612083Y-88293510D01*
X176807235Y-88258358D01*
X176984852Y-88305030D01*
X177078348Y-88431220D01*
X177078378Y-88431391D01*
X177150667Y-88575228D01*
X177168561Y-88599117D01*
X177311024Y-88789304D01*
G37*
G36*
X181862573Y-88653865D02*
G01*
X181764740Y-88825486D01*
X181595008Y-88896886D01*
X181485150Y-88939440D01*
X181291464Y-89077452D01*
X181072358Y-89277886D01*
X180966958Y-89384566D01*
X180778751Y-89562524D01*
X180659132Y-89638637D01*
X180574789Y-89628375D01*
X180492408Y-89547209D01*
X180482341Y-89533445D01*
X180474155Y-89434318D01*
X180567387Y-89287012D01*
X180778374Y-89063914D01*
X180951306Y-88879222D01*
X181099880Y-88684581D01*
X181157025Y-88557525D01*
X181162539Y-88522036D01*
X181435615Y-88522036D01*
X181476579Y-88657641D01*
X181529082Y-88693204D01*
X181622691Y-88642886D01*
X181640435Y-88594403D01*
X181599470Y-88458798D01*
X181546968Y-88423235D01*
X181453358Y-88473553D01*
X181435615Y-88522036D01*
X181162539Y-88522036D01*
X181171876Y-88461941D01*
X181291370Y-88301297D01*
X181481411Y-88225664D01*
X181682305Y-88249907D01*
X181834358Y-88388886D01*
X181858412Y-88445896D01*
X181861383Y-88594403D01*
X181862573Y-88653865D01*
G37*
G36*
X177032954Y-89781099D02*
G01*
X177249658Y-89907626D01*
X177497702Y-90010369D01*
X177367187Y-90342627D01*
X177230194Y-90591044D01*
X177080182Y-90674886D01*
X176994197Y-90664801D01*
X176927797Y-90581646D01*
X176973032Y-90390824D01*
X177019368Y-90329616D01*
X177163532Y-90300509D01*
X177183748Y-90305251D01*
X177181298Y-90287242D01*
X177050691Y-90218685D01*
X177034324Y-90211097D01*
X176844459Y-90144641D01*
X176728379Y-90140712D01*
X176633102Y-90155236D01*
X176448065Y-90129619D01*
X176349597Y-90096829D01*
X176265376Y-90001236D01*
X176262502Y-89812345D01*
X176435094Y-89812345D01*
X176436890Y-89863658D01*
X176535636Y-89912886D01*
X176601522Y-89895463D01*
X176669691Y-89778831D01*
X176620820Y-89686321D01*
X176519367Y-89700537D01*
X176435094Y-89812345D01*
X176262502Y-89812345D01*
X176262377Y-89804148D01*
X176280646Y-89681114D01*
X176356485Y-89552645D01*
X176530195Y-89504259D01*
X176708173Y-89512838D01*
X176886656Y-89640757D01*
X177030590Y-89778831D01*
X177032954Y-89781099D01*
G37*
G36*
X179717691Y-96008886D02*
G01*
X179715840Y-96194432D01*
X179699184Y-96441373D01*
X179659693Y-96566698D01*
X179590691Y-96601553D01*
X179507852Y-96560125D01*
X179463691Y-96389886D01*
X179445106Y-96250732D01*
X179388762Y-96178220D01*
X179296645Y-96238875D01*
X179175144Y-96389886D01*
X179043992Y-96536517D01*
X178911406Y-96601553D01*
X178903355Y-96601514D01*
X178805013Y-96579718D01*
X178809621Y-96494151D01*
X178917959Y-96310081D01*
X178990509Y-96163002D01*
X178960292Y-96054063D01*
X178937954Y-96035902D01*
X178877824Y-95883098D01*
X178883037Y-95797220D01*
X179125025Y-95797220D01*
X179156454Y-95871280D01*
X179294358Y-95924220D01*
X179393105Y-95900648D01*
X179463691Y-95797220D01*
X179432262Y-95723159D01*
X179294358Y-95670220D01*
X179195611Y-95693791D01*
X179125025Y-95797220D01*
X178883037Y-95797220D01*
X178890036Y-95681935D01*
X178972625Y-95517820D01*
X178989832Y-95503721D01*
X179158905Y-95441494D01*
X179395958Y-95416220D01*
X179717691Y-95416220D01*
X179717691Y-95797220D01*
X179717691Y-96008886D01*
G37*
G36*
X177260076Y-90971986D02*
G01*
X177226854Y-91040126D01*
X177126890Y-91078139D01*
X176926006Y-91094634D01*
X176590022Y-91098220D01*
X176506684Y-91098865D01*
X176197774Y-91113391D01*
X175969173Y-91143130D01*
X175865358Y-91182886D01*
X175814325Y-91232326D01*
X175643337Y-91268076D01*
X175451080Y-91219401D01*
X175315025Y-91098220D01*
X175293426Y-91050407D01*
X175286638Y-90892703D01*
X175508948Y-90892703D01*
X175549913Y-91028307D01*
X175602415Y-91063871D01*
X175696025Y-91013553D01*
X175713768Y-90965070D01*
X175672804Y-90829465D01*
X175620301Y-90793901D01*
X175526691Y-90844220D01*
X175508948Y-90892703D01*
X175286638Y-90892703D01*
X175284021Y-90831911D01*
X175400091Y-90659934D01*
X175609340Y-90590220D01*
X175748476Y-90608992D01*
X175865358Y-90674886D01*
X175876939Y-90685330D01*
X176015633Y-90723101D01*
X176268153Y-90749574D01*
X176590022Y-90759553D01*
X176761150Y-90760128D01*
X177031697Y-90768495D01*
X177182628Y-90793672D01*
X177248122Y-90844266D01*
X177262358Y-90928886D01*
X177260442Y-90965070D01*
X177260076Y-90971986D01*
G37*
G36*
X182986711Y-91146710D02*
G01*
X182943220Y-91200554D01*
X182783322Y-91259437D01*
X182596179Y-91255589D01*
X182469358Y-91182886D01*
X182463833Y-91176678D01*
X182339310Y-91136916D01*
X182098292Y-91108850D01*
X181787028Y-91098220D01*
X181680488Y-91097988D01*
X181398646Y-91090822D01*
X181240933Y-91066561D01*
X181172132Y-91015738D01*
X181157025Y-90928886D01*
X181157607Y-90904824D01*
X181161458Y-90892703D01*
X182620948Y-90892703D01*
X182661913Y-91028307D01*
X182714415Y-91063871D01*
X182808025Y-91013553D01*
X182825768Y-90965070D01*
X182784804Y-90829465D01*
X182732301Y-90793901D01*
X182638691Y-90844220D01*
X182620948Y-90892703D01*
X181161458Y-90892703D01*
X181182440Y-90826668D01*
X181269948Y-90782893D01*
X181455656Y-90763766D01*
X181775091Y-90759553D01*
X181804067Y-90759453D01*
X182115890Y-90745570D01*
X182359743Y-90712808D01*
X182484993Y-90667718D01*
X182583850Y-90617342D01*
X182777093Y-90604218D01*
X182778801Y-90604465D01*
X182944360Y-90702849D01*
X183020636Y-90901641D01*
X183011855Y-90965070D01*
X182986711Y-91146710D01*
G37*
G36*
X179501410Y-87400049D02*
G01*
X179423279Y-87593504D01*
X179392472Y-87650794D01*
X179319295Y-87943636D01*
X179294358Y-88380284D01*
X179293932Y-88547730D01*
X179284971Y-88789608D01*
X179253003Y-88920346D01*
X179183398Y-88979238D01*
X179061525Y-89005577D01*
X178923618Y-89026127D01*
X178726485Y-89051542D01*
X178637689Y-89052342D01*
X178617025Y-89030811D01*
X178608465Y-88989777D01*
X178560829Y-88848957D01*
X178543512Y-88793473D01*
X178573879Y-88732012D01*
X178730162Y-88745625D01*
X178955691Y-88788738D01*
X178955691Y-88212809D01*
X178955691Y-88212666D01*
X178944082Y-87915459D01*
X178913666Y-87689808D01*
X178871025Y-87584553D01*
X178795363Y-87464172D01*
X178798799Y-87415220D01*
X179040358Y-87415220D01*
X179043198Y-87451584D01*
X179113990Y-87539706D01*
X179237914Y-87485775D01*
X179262948Y-87456888D01*
X179283967Y-87339793D01*
X179167358Y-87288220D01*
X179108131Y-87302971D01*
X179040358Y-87415220D01*
X178798799Y-87415220D01*
X178808260Y-87280447D01*
X178912259Y-87119799D01*
X178956635Y-87090878D01*
X179159409Y-87057381D01*
X179367553Y-87119219D01*
X179498607Y-87257085D01*
X179500229Y-87339793D01*
X179501410Y-87400049D01*
G37*
G36*
X180854111Y-95429981D02*
G01*
X181199517Y-95443519D01*
X181427405Y-95471631D01*
X181573859Y-95520294D01*
X181674961Y-95595489D01*
X181807394Y-95835226D01*
X181817931Y-96130165D01*
X181702557Y-96413381D01*
X181650966Y-96470400D01*
X181427888Y-96580691D01*
X181154460Y-96600630D01*
X180905477Y-96520193D01*
X180849705Y-96475411D01*
X180838816Y-96391226D01*
X180962304Y-96339270D01*
X181196342Y-96334736D01*
X181296654Y-96339945D01*
X181458018Y-96305638D01*
X181536173Y-96184055D01*
X181552880Y-96125091D01*
X181555937Y-95881188D01*
X181417816Y-95725878D01*
X181132885Y-95651731D01*
X180966072Y-95636846D01*
X180702364Y-95637512D01*
X180556028Y-95705438D01*
X180493118Y-95866297D01*
X180479691Y-96145761D01*
X180478163Y-96294243D01*
X180459962Y-96491950D01*
X180409039Y-96580897D01*
X180310358Y-96601553D01*
X180255195Y-96597439D01*
X180181744Y-96548448D01*
X180148699Y-96411379D01*
X180141025Y-96145761D01*
X180140295Y-96047885D01*
X180123181Y-95817541D01*
X180071981Y-95698243D01*
X179971691Y-95645687D01*
X179873030Y-95602614D01*
X179802358Y-95509793D01*
X179806900Y-95497286D01*
X179928948Y-95454930D01*
X180214323Y-95431416D01*
X180658961Y-95427136D01*
X180854111Y-95429981D01*
G37*
G36*
X182164603Y-89819197D02*
G01*
X182110802Y-90008821D01*
X181962017Y-90131858D01*
X181741976Y-90140336D01*
X181724573Y-90135915D01*
X181496684Y-90119095D01*
X181394140Y-90214917D01*
X181401080Y-90293886D01*
X181412779Y-90427003D01*
X181446183Y-90567948D01*
X181419884Y-90656543D01*
X181288698Y-90674886D01*
X181139647Y-90612062D01*
X181018311Y-90396946D01*
X180999327Y-90293886D01*
X181157025Y-90293886D01*
X181199358Y-90336220D01*
X181241691Y-90293886D01*
X181199358Y-90251553D01*
X181157025Y-90293886D01*
X180999327Y-90293886D01*
X180952538Y-90039886D01*
X180931011Y-89982333D01*
X180821554Y-89858548D01*
X180794104Y-89836119D01*
X180741237Y-89743688D01*
X180817099Y-89618069D01*
X180868896Y-89558553D01*
X180950847Y-89520705D01*
X181044025Y-89621381D01*
X181099100Y-89722869D01*
X181106983Y-89840693D01*
X181102920Y-89847425D01*
X181091297Y-89918160D01*
X181175653Y-89899666D01*
X181314781Y-89812345D01*
X181684428Y-89812345D01*
X181686223Y-89863658D01*
X181784969Y-89912886D01*
X181850855Y-89895463D01*
X181919025Y-89778831D01*
X181870154Y-89686321D01*
X181768700Y-89700537D01*
X181684428Y-89812345D01*
X181314781Y-89812345D01*
X181321836Y-89807917D01*
X181495691Y-89658886D01*
X181624481Y-89537977D01*
X181783620Y-89428553D01*
X181906693Y-89431966D01*
X182039977Y-89537934D01*
X182099690Y-89610954D01*
X182152020Y-89778831D01*
X182164603Y-89819197D01*
G37*
G36*
X180552834Y-88452859D02*
G01*
X180392262Y-88645712D01*
X180288520Y-88758700D01*
X180166705Y-88929083D01*
X180164930Y-88939220D01*
X180150090Y-89023950D01*
X180246858Y-89022118D01*
X180310505Y-89013014D01*
X180474247Y-89060656D01*
X180551040Y-89147037D01*
X180489224Y-89266401D01*
X180479246Y-89277507D01*
X180344088Y-89344783D01*
X180204976Y-89330529D01*
X180141025Y-89240606D01*
X180133905Y-89217632D01*
X180035191Y-89166411D01*
X179860142Y-89142730D01*
X179575850Y-89080070D01*
X179423980Y-88995457D01*
X179402517Y-88939220D01*
X179717691Y-88939220D01*
X179760025Y-88981553D01*
X179802358Y-88939220D01*
X179760025Y-88896886D01*
X179717691Y-88939220D01*
X179402517Y-88939220D01*
X179379025Y-88877667D01*
X179384468Y-88811014D01*
X179450504Y-88738944D01*
X179629776Y-88745136D01*
X179648085Y-88747675D01*
X179846741Y-88736607D01*
X179929742Y-88620710D01*
X179913829Y-88378371D01*
X179911954Y-88367850D01*
X179925829Y-88268036D01*
X180165615Y-88268036D01*
X180206579Y-88403641D01*
X180259082Y-88439204D01*
X180352691Y-88388886D01*
X180370435Y-88340403D01*
X180329470Y-88204798D01*
X180276968Y-88169235D01*
X180183358Y-88219553D01*
X180165615Y-88268036D01*
X179925829Y-88268036D01*
X179941250Y-88157104D01*
X180074502Y-88020460D01*
X180259265Y-87972233D01*
X180443095Y-88026739D01*
X180573546Y-88198293D01*
X180596603Y-88300603D01*
X180585162Y-88340403D01*
X180552834Y-88452859D01*
G37*
G36*
X182156480Y-92095070D02*
G01*
X182071425Y-92266620D01*
X181955496Y-92342913D01*
X181745120Y-92348497D01*
X181563992Y-92212323D01*
X181464737Y-92103655D01*
X181343076Y-92013678D01*
X181684428Y-92013678D01*
X181686223Y-92064991D01*
X181784969Y-92114220D01*
X181850855Y-92096796D01*
X181919025Y-91980164D01*
X181870154Y-91887654D01*
X181768700Y-91901870D01*
X181684428Y-92013678D01*
X181343076Y-92013678D01*
X181287869Y-91972848D01*
X181116345Y-91892409D01*
X181008662Y-91895693D01*
X180997402Y-91914496D01*
X181058247Y-91944886D01*
X181061034Y-91944916D01*
X181146024Y-92005663D01*
X181138285Y-92137662D01*
X181041258Y-92274230D01*
X180942789Y-92324165D01*
X180826679Y-92251245D01*
X180792281Y-92196550D01*
X180785973Y-92053316D01*
X180873460Y-91826868D01*
X180905574Y-91762414D01*
X181008684Y-91590517D01*
X181080113Y-91521553D01*
X181107818Y-91487527D01*
X181096890Y-91352220D01*
X181086821Y-91305515D01*
X181115328Y-91207469D01*
X181271493Y-91182886D01*
X181322578Y-91184038D01*
X181441699Y-91220851D01*
X181435710Y-91331053D01*
X181396729Y-91412900D01*
X181294616Y-91536902D01*
X181277172Y-91559482D01*
X181330865Y-91613519D01*
X181466763Y-91657459D01*
X181624355Y-91675692D01*
X181743130Y-91652608D01*
X181749782Y-91648634D01*
X181912375Y-91628671D01*
X182051395Y-91728292D01*
X182141283Y-91899693D01*
X182147542Y-91980164D01*
X182156480Y-92095070D01*
G37*
G36*
X180237846Y-93031499D02*
G01*
X180395025Y-93214886D01*
X180542496Y-93368981D01*
X180627519Y-93489335D01*
X180627766Y-93589736D01*
X180627768Y-93590497D01*
X180561379Y-93728452D01*
X180422536Y-93864492D01*
X180232674Y-93891903D01*
X180050012Y-93819566D01*
X179926371Y-93668861D01*
X179917037Y-93517369D01*
X180165615Y-93517369D01*
X180206579Y-93652974D01*
X180259082Y-93688538D01*
X180352691Y-93638220D01*
X180370435Y-93589736D01*
X180329470Y-93454132D01*
X180276968Y-93418568D01*
X180183358Y-93468886D01*
X180165615Y-93517369D01*
X179917037Y-93517369D01*
X179913575Y-93461171D01*
X179914385Y-93458054D01*
X179936173Y-93222140D01*
X179850775Y-93112543D01*
X179662643Y-93135054D01*
X179602006Y-93157877D01*
X179440503Y-93205732D01*
X179384825Y-93170433D01*
X179394303Y-93037139D01*
X179464065Y-92918553D01*
X179717691Y-92918553D01*
X179760025Y-92960886D01*
X179802358Y-92918553D01*
X179760025Y-92876220D01*
X179717691Y-92918553D01*
X179464065Y-92918553D01*
X179483445Y-92885609D01*
X179738858Y-92750783D01*
X179809550Y-92727567D01*
X179985791Y-92680646D01*
X180056358Y-92680577D01*
X180089107Y-92672513D01*
X180195453Y-92579886D01*
X180255703Y-92522881D01*
X180354186Y-92486316D01*
X180470620Y-92579013D01*
X180529184Y-92642808D01*
X180553822Y-92735248D01*
X180442351Y-92839055D01*
X180427468Y-92849930D01*
X180293815Y-92914424D01*
X180210814Y-92855047D01*
X180162484Y-92795272D01*
X180142321Y-92852134D01*
X180149469Y-92884491D01*
X180169946Y-92918553D01*
X180237846Y-93031499D01*
G37*
G36*
X180874623Y-90702001D02*
G01*
X180887540Y-90990066D01*
X180788910Y-91448665D01*
X180567221Y-91882104D01*
X180246873Y-92247435D01*
X179852260Y-92501710D01*
X179706946Y-92554218D01*
X179246574Y-92614562D01*
X178764942Y-92549640D01*
X178315874Y-92371105D01*
X177953195Y-92090608D01*
X177874285Y-91993530D01*
X177779495Y-91778904D01*
X177810587Y-91625876D01*
X177938302Y-91557416D01*
X178133384Y-91596494D01*
X178366575Y-91766077D01*
X178594270Y-91940335D01*
X178977300Y-92077232D01*
X179383602Y-92078557D01*
X179769784Y-91946403D01*
X180092452Y-91682861D01*
X180131404Y-91636288D01*
X180254664Y-91475838D01*
X180307246Y-91358657D01*
X180272710Y-91277374D01*
X180134612Y-91224619D01*
X179876510Y-91193021D01*
X179481961Y-91175210D01*
X178934525Y-91163817D01*
X177558691Y-91140553D01*
X177532769Y-90829003D01*
X177531072Y-90718937D01*
X177552566Y-90621380D01*
X178024358Y-90621380D01*
X178030393Y-90626878D01*
X178150224Y-90645715D01*
X178400228Y-90660959D01*
X178749555Y-90671164D01*
X179167358Y-90674886D01*
X179445406Y-90674200D01*
X179858337Y-90665809D01*
X180128384Y-90641055D01*
X180272901Y-90591537D01*
X180309241Y-90508852D01*
X180254759Y-90384600D01*
X180126809Y-90210378D01*
X179962780Y-90040462D01*
X179610513Y-89836012D01*
X179218385Y-89760565D01*
X178825615Y-89812469D01*
X178471422Y-89990074D01*
X178195026Y-90291727D01*
X178165556Y-90340214D01*
X178064975Y-90521108D01*
X178024358Y-90621380D01*
X177552566Y-90621380D01*
X177615405Y-90336164D01*
X177815373Y-89955261D01*
X178103161Y-89634479D01*
X178273059Y-89508790D01*
X178719295Y-89308591D01*
X179188111Y-89250218D01*
X179651043Y-89322707D01*
X180079626Y-89515095D01*
X180445393Y-89816416D01*
X180719881Y-90215706D01*
X180813162Y-90508852D01*
X180874623Y-90702001D01*
G37*
G36*
X178393651Y-93656043D02*
G01*
X178268853Y-93822010D01*
X178080646Y-93892220D01*
X178035032Y-93890221D01*
X177819656Y-93810629D01*
X177703032Y-93650385D01*
X177703879Y-93517369D01*
X177964281Y-93517369D01*
X178005246Y-93652974D01*
X178057748Y-93688538D01*
X178151358Y-93638220D01*
X178169102Y-93589736D01*
X178128137Y-93454132D01*
X178075635Y-93418568D01*
X177982025Y-93468886D01*
X177964281Y-93517369D01*
X177703879Y-93517369D01*
X177704255Y-93458300D01*
X177842417Y-93283187D01*
X177851537Y-93276472D01*
X177999897Y-93117830D01*
X178139418Y-92900300D01*
X178273208Y-92711393D01*
X178406026Y-92676525D01*
X178465383Y-92706521D01*
X178532358Y-92786167D01*
X178554746Y-92818297D01*
X178680525Y-92846681D01*
X178980811Y-92847880D01*
X179168360Y-92877627D01*
X179261126Y-92971137D01*
X179292795Y-93163562D01*
X179297051Y-93490053D01*
X179301196Y-93676517D01*
X179341637Y-94051034D01*
X179424051Y-94268235D01*
X179520779Y-94416325D01*
X179523616Y-94469011D01*
X179527857Y-94547789D01*
X179410805Y-94695011D01*
X179224876Y-94799259D01*
X179029464Y-94787261D01*
X178872952Y-94683336D01*
X178798801Y-94516807D01*
X178819829Y-94435497D01*
X179040358Y-94435497D01*
X179057782Y-94501383D01*
X179174414Y-94569553D01*
X179238106Y-94555378D01*
X179274955Y-94469011D01*
X179191262Y-94357564D01*
X179089712Y-94342779D01*
X179040358Y-94435497D01*
X178819829Y-94435497D01*
X178850476Y-94316994D01*
X178894500Y-94199505D01*
X178938612Y-93943947D01*
X178955691Y-93639368D01*
X178955686Y-93619546D01*
X178950551Y-93345888D01*
X178924571Y-93199593D01*
X178861233Y-93140943D01*
X178744025Y-93130220D01*
X178603712Y-93104042D01*
X178526991Y-93024386D01*
X178499713Y-93009399D01*
X178439268Y-93124692D01*
X178396983Y-93284612D01*
X178401998Y-93448326D01*
X178406543Y-93461313D01*
X178398041Y-93589736D01*
X178393651Y-93656043D01*
G37*
%TD*%
M02*
