%TF.GenerationSoftware,KiCad,Pcbnew,8.0.7*%
%TF.CreationDate,2025-03-27T15:31:39+02:00*%
%TF.ProjectId,DataLogger,44617461-4c6f-4676-9765-722e6b696361,V1.0*%
%TF.SameCoordinates,Original*%
%TF.FileFunction,Soldermask,Bot*%
%TF.FilePolarity,Negative*%
%FSLAX46Y46*%
G04 Gerber Fmt 4.6, Leading zero omitted, Abs format (unit mm)*
G04 Created by KiCad (PCBNEW 8.0.7) date 2025-03-27 15:31:39*
%MOMM*%
%LPD*%
G01*
G04 APERTURE LIST*
G04 Aperture macros list*
%AMRoundRect*
0 Rectangle with rounded corners*
0 $1 Rounding radius*
0 $2 $3 $4 $5 $6 $7 $8 $9 X,Y pos of 4 corners*
0 Add a 4 corners polygon primitive as box body*
4,1,4,$2,$3,$4,$5,$6,$7,$8,$9,$2,$3,0*
0 Add four circle primitives for the rounded corners*
1,1,$1+$1,$2,$3*
1,1,$1+$1,$4,$5*
1,1,$1+$1,$6,$7*
1,1,$1+$1,$8,$9*
0 Add four rect primitives between the rounded corners*
20,1,$1+$1,$2,$3,$4,$5,0*
20,1,$1+$1,$4,$5,$6,$7,0*
20,1,$1+$1,$6,$7,$8,$9,0*
20,1,$1+$1,$8,$9,$2,$3,0*%
G04 Aperture macros list end*
%ADD10C,3.800000*%
%ADD11R,2.800000X2.800000*%
%ADD12C,2.800000*%
%ADD13C,1.500000*%
%ADD14RoundRect,0.102000X-0.605000X-0.605000X0.605000X-0.605000X0.605000X0.605000X-0.605000X0.605000X0*%
%ADD15C,1.414000*%
%ADD16C,2.000000*%
%ADD17RoundRect,0.102000X0.704000X-0.704000X0.704000X0.704000X-0.704000X0.704000X-0.704000X-0.704000X0*%
%ADD18C,1.612000*%
G04 APERTURE END LIST*
D10*
%TO.C,H2*%
X185928000Y-136398000D03*
%TD*%
%TO.C,H1*%
X186182000Y-78892400D03*
%TD*%
D11*
%TO.C,J4*%
X128168400Y-99359800D03*
D12*
X128168400Y-104439800D03*
%TD*%
D11*
%TO.C,J6*%
X128828800Y-84632800D03*
D12*
X133908800Y-84632800D03*
X138988800Y-84632800D03*
X144068800Y-84632800D03*
%TD*%
D11*
%TO.C,J1*%
X164388800Y-130657600D03*
D12*
X169468800Y-130657600D03*
X174548800Y-130657600D03*
X179628800Y-130657600D03*
%TD*%
D13*
%TO.C,Y2*%
X152032800Y-116484400D03*
X156912800Y-116484400D03*
%TD*%
D14*
%TO.C,U3*%
X136339600Y-113944400D03*
D15*
X136339600Y-116484400D03*
X136339600Y-119024400D03*
X136339600Y-121564400D03*
X144279600Y-121564400D03*
X144279600Y-119024400D03*
X144279600Y-116484400D03*
X144279600Y-113944400D03*
%TD*%
D11*
%TO.C,J5*%
X129955700Y-130606800D03*
D12*
X135035700Y-130606800D03*
X140115700Y-130606800D03*
X145195700Y-130606800D03*
X150275700Y-130606800D03*
X155355700Y-130606800D03*
%TD*%
D11*
%TO.C,J3*%
X179019200Y-101295200D03*
D12*
X179019200Y-106375200D03*
X179019200Y-111455200D03*
X179019200Y-116535200D03*
%TD*%
D10*
%TO.C,H3*%
X121716800Y-78689200D03*
%TD*%
%TO.C,H4*%
X121818400Y-137363200D03*
%TD*%
D11*
%TO.C,J2*%
X153771600Y-84683600D03*
D12*
X158851600Y-84683600D03*
X163931600Y-84683600D03*
X169011600Y-84683600D03*
X174091600Y-84683600D03*
X179171600Y-84683600D03*
%TD*%
D16*
%TO.C,SW1*%
X164390000Y-114336000D03*
X170890000Y-114336000D03*
X164390000Y-118836000D03*
X170890000Y-118836000D03*
%TD*%
D17*
%TO.C,SW2*%
X165658800Y-107656000D03*
D18*
X165658800Y-105156000D03*
X165658800Y-102656000D03*
%TD*%
D13*
%TO.C,Y1*%
X128270000Y-121626800D03*
X128270000Y-116746800D03*
%TD*%
M02*
